<?xml version="1.0" standalone="no"?>
<!DOCTYPE svg PUBLIC "-//W3C//DTD SVG 1.1//EN" "http://www.w3.org/Graphics/SVG/1.1/DTD/svg11.dtd" >
<svg>
<metadata>
Created by FontForge 20120731 at Thu May  9 06:02:48 2019
 By www-data
Copyright 2017 The EB Garamond Project Authors (https://github.com/octaviopardo/EBGaramond12)
</metadata>
<defs>
<font id="EBGaramond-Medium" horiz-adv-x="0" >
  <font-face 
    font-family="EB Garamond Medium"
    font-weight="500"
    font-stretch="normal"
    units-per-em="1000"
    panose-1="0 0 6 0 0 0 0 0 0 0"
    ascent="800"
    descent="-200"
    x-height="411"
    cap-height="654"
    bbox="-298 -324 2567 1003"
    underline-thickness="50"
    underline-position="-50"
    unicode-range="U+000D-1F44D"
  />
<missing-glyph horiz-adv-x="505" 
d="M43 496h419v-496h-419v496zM396 69v358h-288v-358h288z" />
    <glyph glyph-name="f_f" unicode="ff" horiz-adv-x="606" 
d="M682 689q29 -17 29 -49q0 -21 -10 -32.5t-26 -11.5q-8 0 -15.5 6t-19.5 19q-18 19 -38 30.5t-50 11.5q-46 0 -72.5 -40t-26.5 -119v-86q0 -11 13 -11h120q7 0 10.5 -3.5t3.5 -9.5q0 -19 -6 -31q-5 -8 -9 -8h-107q-15 0 -20 -4t-5 -13v-263q0 -23 13 -33t53 -15
q11 -2 16 -6t5 -11q0 -6 -5 -9.5t-13 -3.5q-31 0 -60 3q-36 2 -53 2t-43 -2q-21 -3 -49 -3q-20 0 -20 12q0 7 5 11t16 6q25 7 34 15.5t9 27.5v283q-24 0 -39 1h-103q-24 0 -32 -5t-8 -14v-264q0 -33 46 -43q22 -5 22 -18q0 -12 -19 -12q-27 0 -50 3q-26 2 -43 2t-43 -2
q-21 -3 -49 -3q-20 0 -20 12q0 7 5.5 10.5t17.5 7.5q19 6 30 15t11 27v283q-31 0 -52 2q-4 1 -9 8.5t-5 13.5q0 4 8 7q21 6 36.5 14t21.5 11q2 87 39 145.5t90 86t104 27.5q38 0 68 -10t46 -25q34 38 76.5 56t83.5 18q59 0 88 -17zM353 407l8 4q1 88 30 153q-3 2 -20 19
q-35 39 -87 39q-49 0 -77 -44.5t-28 -135.5v-13q0 -22 25 -22h149z" />
    <glyph glyph-name="f_f_i" unicode="ffi" horiz-adv-x="818" 
d="M795.5 18.5q5.5 -3.5 5.5 -10.5q0 -11 -18 -11q-29 0 -50 3q-28 2 -44 2q-17 0 -43 -2q-21 -3 -49 -3q-7 0 -13 2.5t-6 7.5q0 11 21 19q23 6 34 15t11 27v216q0 64 -47 71l-49 1l-55 -1q-26 -1 -33 -6t-7 -16v-263q0 -19 12.5 -28t33.5 -15q22 -8 22 -19q0 -5 -6 -8
t-13 -3q-29 0 -50 3q-28 2 -44 2t-42 -2q-21 -3 -49 -3q-7 0 -13.5 2.5t-6.5 8.5q0 7 6 11t17 8q20 6 30.5 14.5t10.5 27.5v283h-20q-15 0 -24 1h-98q-24 0 -32 -5t-8 -14v-264q0 -33 46 -43q22 -5 22 -18q0 -12 -19 -12q-27 0 -50 3q-26 2 -43 2t-43 -2q-21 -3 -49 -3
q-20 0 -20 12q0 7 5.5 10.5t17.5 7.5q19 6 30 15t11 27v283q-31 0 -52 2q-4 1 -9 8.5t-5 13.5q0 4 8 7q21 6 36.5 14t21.5 11q2 87 39 145.5t90 86t104 27.5q41 0 72 -11t45 -28q38 40 85.5 59t92.5 19q58 0 95.5 -17t37.5 -53q0 -28 -15 -43.5t-37 -15.5q-12 0 -21 8.5
t-22 25.5q-31 49 -85 49q-49 0 -82 -45t-33 -134v-54q0 -11 6.5 -15t18.5 -5q67 -7 114 -7l30 1q51 5 66 11l44 26l4 1q9 0 9 -8q0 -6 -2 -24q-8 -77 -8 -128v-211q0 -17 11.5 -26t33.5 -16q10 -4 15.5 -7.5zM359 407l2 1q1 88 32 154q-5 3 -12 10t-10 11q-35 39 -87 39
q-49 0 -77 -44.5t-28 -135.5v-13q0 -22 25 -22h155z" />
    <glyph glyph-name="f_f_l" unicode="ffl" horiz-adv-x="812" 
d="M794 8q0 -10 -20 -10q-21 0 -49 2q-26 2 -42 2q-17 0 -41 -2q-21 -3 -48 -3q-20 0 -20 11q0 7 5.5 10.5t17.5 8.5q20 6 31 14.5t11 27.5v271q0 15 -17 15h-129q-26 0 -33 -5.5t-7 -16.5v-263q0 -19 12.5 -28t33.5 -15q22 -8 22 -19q0 -5 -6 -8t-13 -3q-29 0 -50 3
q-28 2 -44 2t-42 -2q-21 -3 -49 -3q-7 0 -13.5 2.5t-6.5 8.5q0 7 6 11t17 8q20 6 30.5 14.5t10.5 27.5v283q-27 0 -44 1h-98q-24 0 -32 -5t-8 -14v-264q0 -33 46 -43q22 -5 22 -18q0 -12 -19 -12q-27 0 -50 3q-26 2 -43 2t-43 -2q-21 -3 -49 -3q-20 0 -20 12q0 7 5.5 10.5
t17.5 7.5q19 6 30 15t11 27v283q-31 0 -52 2q-4 1 -9 8.5t-5 13.5q0 4 8 7q21 6 36.5 14t21.5 11q2 87 39 145.5t90 86t104 27.5q41 0 71.5 -11t45.5 -28q36 40 82 59t89 19q39 0 66 -12q6 -3 12 -3q4 0 10 2q7 3 13 5.5t12 4.5q3 1 8 1q7 0 7 -8q0 -7 -2.5 -35.5
t-3.5 -76.5l1 -515q0 -19 10 -27.5t30 -14.5q23 -8 23 -19zM639 565q0 41 -12 68.5t-51 27.5q-52 0 -87.5 -46.5t-35.5 -137.5v-50q0 -20 25 -20h147q14 0 14 13v145zM359 407l2 1q3 87 32 154q-5 3 -12 10t-10 11q-35 39 -87 39q-49 0 -77 -44.5t-28 -135.5v-13
q0 -22 25 -22h155z" />
    <glyph glyph-name="f_i" unicode="fi" horiz-adv-x="544" 
d="M29.5 -0.5q-6.5 2.5 -6.5 8.5q0 7 6 11t17 8q20 6 30.5 14.5t10.5 27.5v283h-19.5t-32.5 2q-4 1 -8 8t-4 14t11 10q25 8 53 22q2 108 43 174.5t98.5 95t112.5 28.5q58 0 95.5 -17t37.5 -53q0 -28 -15 -43.5t-37 -15.5q-12 0 -21 8.5t-22 25.5q-31 49 -85 49
q-49 0 -82 -45t-33 -134v-54q0 -11 6.5 -15t18.5 -5q66 -7 114 -7l30 1q51 5 66 11l44 26l4 1q9 0 9 -8q0 -6 -2 -24q-8 -77 -8 -128v-211q0 -17 11.5 -26t33.5 -16q10 -4 15.5 -7.5t5.5 -10.5q0 -11 -18 -11q-29 0 -50 3q-28 2 -44 2q-17 0 -43 -2q-21 -3 -49 -3
q-7 0 -13 2.5t-6 7.5q0 11 21 19q23 6 34 15t11 27v216q0 64 -47 71l-49 1l-55 -1q-26 -1 -33 -6t-7 -16v-263q0 -19 12.5 -28t33.5 -15q22 -8 22 -19q0 -5 -6 -8t-13 -3q-29 0 -50 3q-28 2 -44 2t-42 -2q-21 -3 -49 -3q-7 0 -13.5 2.5z" />
    <glyph glyph-name="f_l" unicode="fl" horiz-adv-x="540" 
d="M31.5 -0.5q-6.5 2.5 -6.5 8.5q0 7 6 11t17 8q20 6 30.5 14.5t10.5 27.5v283q-36 0 -57 2q-4 1 -7.5 8.5t-3.5 14.5q0 4 5 6q24 6 63 25q3 108 43 174.5t95.5 95t108.5 28.5q39 0 66 -12q6 -3 12 -3q4 0 10 2q7 3 13 5.5t12 4.5q3 1 8 1q7 0 7 -8q0 -7 -2.5 -35.5
t-3.5 -76.5l1 -515q0 -19 10 -27.5t30 -14.5q23 -8 23 -19q0 -10 -20 -10q-21 0 -49 2q-26 2 -42 2q-17 0 -41 -2q-21 -3 -48 -3q-20 0 -20 11q0 7 5.5 10.5t17.5 8.5q20 6 31 14.5t11 27.5v271q0 15 -17 15h-129q-26 0 -33 -5.5t-7 -16.5v-263q0 -19 12.5 -28t33.5 -15
q22 -8 22 -19q0 -5 -6 -8t-13 -3q-29 0 -50 3q-28 2 -44 2t-42 -2q-21 -3 -49 -3q-7 0 -13.5 2.5zM353 407q14 0 14 13v145q0 41 -12 68.5t-51 27.5q-52 0 -87.5 -46.5t-35.5 -137.5v-50q0 -20 25 -20h147z" />
    <glyph glyph-name=".notdef" horiz-adv-x="505" 
d="M43 496h419v-496h-419v496zM396 69v358h-288v-358h288z" />
    <glyph glyph-name="NULL" 
 />
    <glyph glyph-name="nonmarkingreturn" unicode="&#xd;" horiz-adv-x="213" 
 />
    <glyph glyph-name="space" unicode=" " horiz-adv-x="213" 
 />
    <glyph glyph-name="A" unicode="A" horiz-adv-x="702" 
d="M5 -1.5q-8 3.5 -8 10.5q0 14 30 23q29 8 50.5 25t34.5 48q52 119 92.5 221.5t89.5 238.5q14 36 18 66q29 7 48 17q12 6 19.5 18.5t9.5 15.5q6 4 9 -2q3 -5 5 -12t3 -12q60 -191 157 -478l20 -59q16 -46 38 -64t57 -25q15 -3 22.5 -9t7.5 -14q0 -11 -26 -11l-62 2
q-43 3 -85 3l-68 -1q-20 -1 -53 -1q-12 0 -19.5 3.5t-7.5 9.5q0 7 8.5 12.5t21.5 7.5q35 6 50 18t12 32q-1 18 -10.5 54.5t-18.5 71.5q-2 5 -7 23q-2 7 -7 9.5t-17 2.5h-185q-10 0 -17 -17q-10 -30 -23 -74.5t-15 -58.5q-6 -46 59 -62q30 -7 30 -20q0 -12 -27 -12
q-25 0 -40 1l-57 1q-15 0 -35 -1t-30 -2q-28 -3 -54 -3q-12 0 -20 3.5zM408 284q6 0 10 1t4 4q0 1 -2 11l-74 237q-5 16 -8 16q-2 0 -7 -15l-87 -238l-2 -8q0 -5 5 -6.5t15 -1.5h146z" />
    <glyph glyph-name="Aacute" unicode="&#xc1;" horiz-adv-x="702" 
d="M5 -1.5q-8 3.5 -8 10.5q0 14 30 23q29 8 50.5 25t34.5 48q52 119 92.5 221.5t89.5 238.5q14 36 18 66q29 7 48 17q12 6 19.5 18.5t9.5 15.5q6 4 9 -2q3 -5 5 -12t3 -12q60 -191 157 -478l20 -59q16 -46 38 -64t57 -25q15 -3 22.5 -9t7.5 -14q0 -11 -26 -11l-62 2
q-43 3 -85 3l-68 -1q-20 -1 -53 -1q-12 0 -19.5 3.5t-7.5 9.5q0 7 8.5 12.5t21.5 7.5q35 6 50 18t12 32q-1 18 -10.5 54.5t-18.5 71.5q-2 5 -7 23q-2 7 -7 9.5t-17 2.5h-185q-10 0 -17 -17q-10 -30 -23 -74.5t-15 -58.5q-6 -46 59 -62q30 -7 30 -20q0 -12 -27 -12
q-25 0 -40 1l-57 1q-15 0 -35 -1t-30 -2q-28 -3 -54 -3q-12 0 -20 3.5zM408 284q6 0 10 1t4 4q0 1 -2 11l-74 237q-5 16 -8 16q-2 0 -7 -15l-87 -238l-2 -8q0 -5 5 -6.5t15 -1.5h146zM321 691q0 7 7 17q51 75 88 121q9 13 29 13q15 -1 39.5 -10t23.5 -18q-1 -6 -4 -10
t-11 -10q-31 -24 -91 -65q-36 -24 -52 -36q-13 -9 -21 -9t-8 7z" />
    <glyph glyph-name="Abreve" unicode="&#x102;" horiz-adv-x="702" 
d="M5 -1.5q-8 3.5 -8 10.5q0 14 30 23q29 8 50.5 25t34.5 48q52 119 92.5 221.5t89.5 238.5q14 36 18 66q29 7 48 17q12 6 19.5 18.5t9.5 15.5q6 4 9 -2q3 -5 5 -12t3 -12q60 -191 157 -478l20 -59q16 -46 38 -64t57 -25q15 -3 22.5 -9t7.5 -14q0 -11 -26 -11l-62 2
q-43 3 -85 3l-68 -1q-20 -1 -53 -1q-12 0 -19.5 3.5t-7.5 9.5q0 7 8.5 12.5t21.5 7.5q35 6 50 18t12 32q-1 18 -10.5 54.5t-18.5 71.5q-2 5 -7 23q-2 7 -7 9.5t-17 2.5h-185q-10 0 -17 -17q-10 -30 -23 -74.5t-15 -58.5q-6 -46 59 -62q30 -7 30 -20q0 -12 -27 -12
q-25 0 -40 1l-57 1q-15 0 -35 -1t-30 -2q-28 -3 -54 -3q-12 0 -20 3.5zM408 284q6 0 10 1t4 4q0 1 -2 11l-74 237q-5 16 -8 16q-2 0 -7 -15l-87 -238l-2 -8q0 -5 5 -6.5t15 -1.5h146zM294 708q-32 18 -49 44.5t-17 48.5q0 11 3 18t8 7q6 0 11.5 -4.5t9 -9t5.5 -7.5
q21 -25 45.5 -36t57.5 -11t57.5 11t45.5 36q2 3 7 9t9.5 9t9.5 3q7 0 9 -6t2 -19q0 -22 -17 -48.5t-49 -44.5t-74 -18t-74 18z" />
    <glyph glyph-name="Acircumflex" unicode="&#xc2;" horiz-adv-x="702" 
d="M5 -1.5q-8 3.5 -8 10.5q0 14 30 23q29 8 50.5 25t34.5 48q52 119 92.5 221.5t89.5 238.5q14 36 18 66q29 7 48 17q12 6 19.5 18.5t9.5 15.5q6 4 9 -2q3 -5 5 -12t3 -12q60 -191 157 -478l20 -59q16 -46 38 -64t57 -25q15 -3 22.5 -9t7.5 -14q0 -11 -26 -11l-62 2
q-43 3 -85 3l-68 -1q-20 -1 -53 -1q-12 0 -19.5 3.5t-7.5 9.5q0 7 8.5 12.5t21.5 7.5q35 6 50 18t12 32q-1 18 -10.5 54.5t-18.5 71.5q-2 5 -7 23q-2 7 -7 9.5t-17 2.5h-185q-10 0 -17 -17q-10 -30 -23 -74.5t-15 -58.5q-6 -46 59 -62q30 -7 30 -20q0 -12 -27 -12
q-25 0 -40 1l-57 1q-15 0 -35 -1t-30 -2q-28 -3 -54 -3q-12 0 -20 3.5zM408 284q6 0 10 1t4 4q0 1 -2 11l-74 237q-5 16 -8 16q-2 0 -7 -15l-87 -238l-2 -8q0 -5 5 -6.5t15 -1.5h146zM216 706q0 7 7 13l101 87q17 15 25 19.5t19 4.5t19 -4.5t25 -19.5l101 -87q6 -5 6 -13
q0 -12 -15 -12q-10 0 -56 20.5t-69 33.5q-5 4 -11 4t-11 -4q-23 -13 -69 -33t-56 -20q-16 0 -16 11z" />
    <glyph glyph-name="Adieresis" unicode="&#xc4;" horiz-adv-x="702" 
d="M5 -1.5q-8 3.5 -8 10.5q0 14 30 23q29 8 50.5 25t34.5 48q52 119 92.5 221.5t89.5 238.5q14 36 18 66q29 7 48 17q12 6 19.5 18.5t9.5 15.5q6 4 9 -2q3 -5 5 -12t3 -12q60 -191 157 -478l20 -59q16 -46 38 -64t57 -25q15 -3 22.5 -9t7.5 -14q0 -11 -26 -11l-62 2
q-43 3 -85 3l-68 -1q-20 -1 -53 -1q-12 0 -19.5 3.5t-7.5 9.5q0 7 8.5 12.5t21.5 7.5q35 6 50 18t12 32q-1 18 -10.5 54.5t-18.5 71.5q-2 5 -7 23q-2 7 -7 9.5t-17 2.5h-185q-10 0 -17 -17q-10 -30 -23 -74.5t-15 -58.5q-6 -46 59 -62q30 -7 30 -20q0 -12 -27 -12
q-25 0 -40 1l-57 1q-15 0 -35 -1t-30 -2q-28 -3 -54 -3q-12 0 -20 3.5zM408 284q6 0 10 1t4 4q0 1 -2 11l-74 237q-5 16 -8 16q-2 0 -7 -15l-87 -238l-2 -8q0 -5 5 -6.5t15 -1.5h146zM229 709q-17 17 -17 41q0 25 17 41.5t41 16.5q25 0 42 -16.5t17 -41.5q0 -24 -17 -41
t-42 -17q-24 0 -41 17zM425 709q-17 17 -17 41q0 25 17 41.5t41 16.5q25 0 41.5 -16.5t16.5 -41.5q0 -24 -16.5 -41t-41.5 -17q-24 0 -41 17z" />
    <glyph glyph-name="Agrave" unicode="&#xc0;" horiz-adv-x="702" 
d="M5 -1.5q-8 3.5 -8 10.5q0 14 30 23q29 8 50.5 25t34.5 48q52 119 92.5 221.5t89.5 238.5q14 36 18 66q29 7 48 17q12 6 19.5 18.5t9.5 15.5q6 4 9 -2q3 -5 5 -12t3 -12q60 -191 157 -478l20 -59q16 -46 38 -64t57 -25q15 -3 22.5 -9t7.5 -14q0 -11 -26 -11l-62 2
q-43 3 -85 3l-68 -1q-20 -1 -53 -1q-12 0 -19.5 3.5t-7.5 9.5q0 7 8.5 12.5t21.5 7.5q35 6 50 18t12 32q-1 18 -10.5 54.5t-18.5 71.5q-2 5 -7 23q-2 7 -7 9.5t-17 2.5h-185q-10 0 -17 -17q-10 -30 -23 -74.5t-15 -58.5q-6 -46 59 -62q30 -7 30 -20q0 -12 -27 -12
q-25 0 -40 1l-57 1q-15 0 -35 -1t-30 -2q-28 -3 -54 -3q-12 0 -20 3.5zM408 284q6 0 10 1t4 4q0 1 -2 11l-74 237q-5 16 -8 16q-2 0 -7 -15l-87 -238l-2 -8q0 -5 5 -6.5t15 -1.5h146zM378 693q-16 12 -52 36q-60 41 -91 65q-8 6 -11 10t-4 10q-1 9 23.5 18t39.5 10
q20 0 29 -13q37 -46 88 -121q7 -10 7 -17t-8 -7t-21 9z" />
    <glyph glyph-name="Amacron" unicode="&#x100;" horiz-adv-x="702" 
d="M5 -1.5q-8 3.5 -8 10.5q0 14 30 23q29 8 50.5 25t34.5 48q52 119 92.5 221.5t89.5 238.5q14 36 18 66q29 7 48 17q12 6 19.5 18.5t9.5 15.5q6 4 9 -2q3 -5 5 -12t3 -12q60 -191 157 -478l20 -59q16 -46 38 -64t57 -25q15 -3 22.5 -9t7.5 -14q0 -11 -26 -11l-62 2
q-43 3 -85 3l-68 -1q-20 -1 -53 -1q-12 0 -19.5 3.5t-7.5 9.5q0 7 8.5 12.5t21.5 7.5q35 6 50 18t12 32q-1 18 -10.5 54.5t-18.5 71.5q-2 5 -7 23q-2 7 -7 9.5t-17 2.5h-185q-10 0 -17 -17q-10 -30 -23 -74.5t-15 -58.5q-6 -46 59 -62q30 -7 30 -20q0 -12 -27 -12
q-25 0 -40 1l-57 1q-15 0 -35 -1t-30 -2q-28 -3 -54 -3q-12 0 -20 3.5zM408 284q6 0 10 1t4 4q0 1 -2 11l-74 237q-5 16 -8 16q-2 0 -7 -15l-87 -238l-2 -8q0 -5 5 -6.5t15 -1.5h146zM221.5 725.5q-4.5 4.5 -4.5 9.5q0 16 7.5 32.5t20.5 16.5h265q6 0 10.5 -4.5t4.5 -9.5
q0 -18 -10.5 -33.5t-23.5 -15.5h-258q-7 0 -11.5 4.5z" />
    <glyph glyph-name="Aogonek" unicode="&#x104;" horiz-adv-x="702" 
d="M5 -1.5q-8 3.5 -8 10.5q0 14 30 23q29 8 50.5 25t34.5 48q52 119 92.5 221.5t89.5 238.5q14 36 18 66q29 7 48 17q12 6 19.5 18.5t9.5 15.5q6 4 9 -2q3 -5 5 -12t3 -12q60 -191 157 -478l20 -59q16 -46 38 -64t57 -25q15 -3 22.5 -9t7.5 -14q0 -11 -26 -11l-62 2
q-43 3 -85 3l-68 -1q-20 -1 -53 -1q-12 0 -19.5 3.5t-7.5 9.5q0 7 8.5 12.5t21.5 7.5q35 6 50 18t12 32q-1 18 -10.5 54.5t-18.5 71.5q-2 5 -7 23q-2 7 -7 9.5t-17 2.5h-185q-10 0 -17 -17q-10 -30 -23 -74.5t-15 -58.5q-6 -46 59 -62q30 -7 30 -20q0 -12 -27 -12
q-25 0 -40 1l-57 1q-15 0 -35 -1t-30 -2q-28 -3 -54 -3q-12 0 -20 3.5zM408 284q6 0 10 1t4 4q0 1 -2 11l-74 237q-5 16 -8 16q-2 0 -7 -15l-87 -238l-2 -8q0 -5 5 -6.5t15 -1.5h146zM445 -255q-33 32 -33 81q0 61 59.5 112.5t111.5 79.5h31q-3 -3 -31.5 -27t-52.5 -63.5
t-24 -79.5q0 -25 18 -42t44 -17q30 0 52.5 17.5t24.5 19.5q4 2 7 2q9 0 9 -11q0 -22 -20.5 -46.5t-52 -41t-60.5 -16.5q-50 0 -83 32z" />
    <glyph glyph-name="Aring" unicode="&#xc5;" horiz-adv-x="702" 
d="M5 -1.5q-8 3.5 -8 10.5q0 14 30 23q29 8 50.5 25t34.5 48q52 119 92.5 221.5t89.5 238.5q14 36 18 66q29 7 48 17q12 6 19.5 18.5t9.5 15.5q6 4 9 -2q3 -5 5 -12t3 -12q60 -191 157 -478l20 -59q16 -46 38 -64t57 -25q15 -3 22.5 -9t7.5 -14q0 -11 -26 -11l-62 2
q-43 3 -85 3l-68 -1q-20 -1 -53 -1q-12 0 -19.5 3.5t-7.5 9.5q0 7 8.5 12.5t21.5 7.5q35 6 50 18t12 32q-1 18 -10.5 54.5t-18.5 71.5q-2 5 -7 23q-2 7 -7 9.5t-17 2.5h-185q-10 0 -17 -17q-10 -30 -23 -74.5t-15 -58.5q-6 -46 59 -62q30 -7 30 -20q0 -12 -27 -12
q-25 0 -40 1l-57 1q-15 0 -35 -1t-30 -2q-28 -3 -54 -3q-12 0 -20 3.5zM408 284q6 0 10 1t4 4q0 1 -2 11l-74 237q-5 16 -8 16q-2 0 -7 -15l-87 -238l-2 -8q0 -5 5 -6.5t15 -1.5h146zM432.5 828.5q26.5 -19.5 26.5 -51.5q0 -36 -29.5 -58.5t-69.5 -22.5q-38 0 -64.5 20
t-26.5 53q0 35 30 57t70 22q37 0 63.5 -19.5zM332.5 736q14.5 -15 36.5 -15q19 0 30 15t11 36t-14 35.5t-35 14.5q-19 0 -31 -15t-12 -35q0 -21 14.5 -36z" />
    <glyph glyph-name="Aringacute" unicode="&#x1fa;" horiz-adv-x="702" 
d="M5 -1.5q-8 3.5 -8 10.5q0 14 30 23q29 8 50.5 25t34.5 48q52 119 92.5 221.5t89.5 238.5q14 36 18 66q29 7 48 17q12 6 19.5 18.5t9.5 15.5q6 4 9 -2q3 -5 5 -12t3 -12q60 -191 157 -478l20 -59q16 -46 38 -64t57 -25q15 -3 22.5 -9t7.5 -14q0 -11 -26 -11l-62 2
q-43 3 -85 3l-68 -1q-20 -1 -53 -1q-12 0 -19.5 3.5t-7.5 9.5q0 7 8.5 12.5t21.5 7.5q35 6 50 18t12 32q-1 18 -10.5 54.5t-18.5 71.5q-2 5 -7 23q-2 7 -7 9.5t-17 2.5h-185q-10 0 -17 -17q-10 -30 -23 -74.5t-15 -58.5q-6 -46 59 -62q30 -7 30 -20q0 -12 -27 -12
q-25 0 -40 1l-57 1q-15 0 -35 -1t-30 -2q-28 -3 -54 -3q-12 0 -20 3.5zM408 284q6 0 10 1t4 4q0 1 -2 11l-74 237q-5 16 -8 16q-2 0 -7 -15l-87 -238l-2 -8q0 -5 5 -6.5t15 -1.5h146zM432.5 828.5q26.5 -19.5 26.5 -51.5q0 -36 -29.5 -58.5t-69.5 -22.5q-38 0 -64.5 20
t-26.5 53q0 35 30 57t70 22q37 0 63.5 -19.5zM332.5 736q14.5 -15 36.5 -15q19 0 30 15t11 36t-14 35.5t-35 14.5q-19 0 -31 -15t-12 -35q0 -21 14.5 -36zM278 862q-5 3 -5 7q0 7 8 15q18 16 71.5 50t82.5 49q12 6 20 6q12 0 22 -10.5t16 -24t6 -20.5q0 -10 -6 -12
q-26 -11 -82 -29t-92 -28q-4 -1 -13.5 -3.5t-16.5 -2.5q-6 0 -11 3z" />
    <glyph glyph-name="Atilde" unicode="&#xc3;" horiz-adv-x="702" 
d="M5 -1.5q-8 3.5 -8 10.5q0 14 30 23q29 8 50.5 25t34.5 48q52 119 92.5 221.5t89.5 238.5q14 36 18 66q29 7 48 17q12 6 19.5 18.5t9.5 15.5q6 4 9 -2q3 -5 5 -12t3 -12q60 -191 157 -478l20 -59q16 -46 38 -64t57 -25q15 -3 22.5 -9t7.5 -14q0 -11 -26 -11l-62 2
q-43 3 -85 3l-68 -1q-20 -1 -53 -1q-12 0 -19.5 3.5t-7.5 9.5q0 7 8.5 12.5t21.5 7.5q35 6 50 18t12 32q-1 18 -10.5 54.5t-18.5 71.5q-2 5 -7 23q-2 7 -7 9.5t-17 2.5h-185q-10 0 -17 -17q-10 -30 -23 -74.5t-15 -58.5q-6 -46 59 -62q30 -7 30 -20q0 -12 -27 -12
q-25 0 -40 1l-57 1q-15 0 -35 -1t-30 -2q-28 -3 -54 -3q-12 0 -20 3.5zM408 284q6 0 10 1t4 4q0 1 -2 11l-74 237q-5 16 -8 16q-2 0 -7 -15l-87 -238l-2 -8q0 -5 5 -6.5t15 -1.5h146zM236 697.5q-6 5.5 -6 10.5q0 6 16 29t34.5 42t29.5 19q28 0 74 -4l21 -1q32 -2 50 -2
q20 0 37 19q6 6 12 13t8 7q7 0 14 -5.5t7 -11.5q0 -4 -7 -12t-9 -10q-13 -15 -44 -57q-5 -7 -14.5 -10.5t-15.5 -3.5t-56 4q-82 5 -88 5q-7 0 -16.5 -4.5t-15.5 -10.5q-7 -7 -12.5 -14.5t-7.5 -7.5q-5 0 -11 5.5z" />
    <glyph glyph-name="AE" unicode="&#xc6;" horiz-adv-x="885" 
d="M-5 8q0 7 7.5 12t22.5 10q26 7 53 31.5t46 56.5l280 477l2 5q0 9 -15 11l-69 13q-13 4 -13 15q0 5 3.5 9t9.5 4l69 -1q60 -2 97 -2q28 0 223 3l86 1q7 0 13 -3t7 -9q13 -67 14 -112q0 -6 -4.5 -9.5t-9.5 -3.5q-10 0 -14 12q-9 25 -15.5 39t-14.5 23q-22 25 -66 25h-111
q-15 0 -28.5 -8t-13.5 -23v-227q0 -10 5.5 -16t14.5 -6l93 1q16 1 27 8.5t21 22.5q5 6 13 18q4 7 8.5 12t9.5 5q4 0 8.5 -5.5t3.5 -12.5q-3 -37 -3 -66q0 -32 3 -76v-4q0 -16 -9 -16q-8 0 -14.5 7.5t-9.5 15.5q-7 25 -20 37.5t-28 12.5q-39 2 -100 2q-10 0 -16.5 -6
t-6.5 -17v-167q0 -30 15.5 -49.5t45.5 -19.5h99q12 0 38 6t36 13q25 20 47 71q3 7 6 10t9 2q5 0 9 -3.5t4 -8.5q0 -41 -21 -117q-4 -16 -17 -16q-61 0 -138 3q-29 1 -87 2t-100 1q-29 0 -58 -3q-9 0 -28.5 -1.5t-37.5 -1.5q-12 0 -19 3t-7 9q0 13 30 19q37 8 53 23t16 47
v162q0 18 -21 18h-141q-10 0 -16 -5.5t-12 -16.5q-25 -42 -74 -143q-8 -18 -8 -30q0 -20 17.5 -31.5t47.5 -18.5q29 -7 29 -20q0 -12 -26 -12t-41 1l-58 1q-16 0 -36.5 -1t-31.5 -2q-29 -3 -55 -3q-28 0 -28 13zM433 323q10 0 13 2.5t3 11.5v232q0 16 -4 16q-3 0 -11 -14
l-129 -232q-4 -7 -3 -11q0 -5 16 -5h115z" />
    <glyph glyph-name="AEacute" unicode="&#x1fc;" horiz-adv-x="885" 
d="M-5 8q0 7 7.5 12t22.5 10q26 7 53 31.5t46 56.5l280 477l2 5q0 9 -15 11l-69 13q-13 4 -13 15q0 5 3.5 9t9.5 4l69 -1q60 -2 97 -2q28 0 223 3l86 1q7 0 13 -3t7 -9q13 -67 14 -112q0 -6 -4.5 -9.5t-9.5 -3.5q-10 0 -14 12q-9 25 -15.5 39t-14.5 23q-22 25 -66 25h-111
q-15 0 -28.5 -8t-13.5 -23v-227q0 -10 5.5 -16t14.5 -6l93 1q16 1 27 8.5t21 22.5q5 6 13 18q4 7 8.5 12t9.5 5q4 0 8.5 -5.5t3.5 -12.5q-3 -37 -3 -66q0 -32 3 -76v-4q0 -16 -9 -16q-8 0 -14.5 7.5t-9.5 15.5q-7 25 -20 37.5t-28 12.5q-39 2 -100 2q-10 0 -16.5 -6
t-6.5 -17v-167q0 -30 15.5 -49.5t45.5 -19.5h99q12 0 38 6t36 13q25 20 47 71q3 7 6 10t9 2q5 0 9 -3.5t4 -8.5q0 -41 -21 -117q-4 -16 -17 -16q-61 0 -138 3q-29 1 -87 2t-100 1q-29 0 -58 -3q-9 0 -28.5 -1.5t-37.5 -1.5q-12 0 -19 3t-7 9q0 13 30 19q37 8 53 23t16 47
v162q0 18 -21 18h-141q-10 0 -16 -5.5t-12 -16.5q-25 -42 -74 -143q-8 -18 -8 -30q0 -20 17.5 -31.5t47.5 -18.5q29 -7 29 -20q0 -12 -26 -12t-41 1l-58 1q-16 0 -36.5 -1t-31.5 -2q-29 -3 -55 -3q-28 0 -28 13zM433 323q10 0 13 2.5t3 11.5v232q0 16 -4 16q-3 0 -11 -14
l-129 -232q-4 -7 -3 -11q0 -5 16 -5h115zM506 691q0 7 7 17q51 75 88 121q9 13 29 13q15 -1 39.5 -10t23.5 -18q-1 -6 -4 -10t-11 -10q-31 -24 -91 -65q-36 -24 -52 -36q-13 -9 -21 -9t-8 7z" />
    <glyph glyph-name="uni01E2" unicode="&#x1e2;" horiz-adv-x="885" 
d="M-5 8q0 7 7.5 12t22.5 10q26 7 53 31.5t46 56.5l280 477l2 5q0 9 -15 11l-69 13q-13 4 -13 15q0 5 3.5 9t9.5 4l69 -1q60 -2 97 -2q28 0 223 3l86 1q7 0 13 -3t7 -9q13 -67 14 -112q0 -6 -4.5 -9.5t-9.5 -3.5q-10 0 -14 12q-9 25 -15.5 39t-14.5 23q-22 25 -66 25h-111
q-15 0 -28.5 -8t-13.5 -23v-227q0 -10 5.5 -16t14.5 -6l93 1q16 1 27 8.5t21 22.5q5 6 13 18q4 7 8.5 12t9.5 5q4 0 8.5 -5.5t3.5 -12.5q-3 -37 -3 -66q0 -32 3 -76v-4q0 -16 -9 -16q-8 0 -14.5 7.5t-9.5 15.5q-7 25 -20 37.5t-28 12.5q-39 2 -100 2q-10 0 -16.5 -6
t-6.5 -17v-167q0 -30 15.5 -49.5t45.5 -19.5h99q12 0 38 6t36 13q25 20 47 71q3 7 6 10t9 2q5 0 9 -3.5t4 -8.5q0 -41 -21 -117q-4 -16 -17 -16q-61 0 -138 3q-29 1 -87 2t-100 1q-29 0 -58 -3q-9 0 -28.5 -1.5t-37.5 -1.5q-12 0 -19 3t-7 9q0 13 30 19q37 8 53 23t16 47
v162q0 18 -21 18h-141q-10 0 -16 -5.5t-12 -16.5q-25 -42 -74 -143q-8 -18 -8 -30q0 -20 17.5 -31.5t47.5 -18.5q29 -7 29 -20q0 -12 -26 -12t-41 1l-58 1q-16 0 -36.5 -1t-31.5 -2q-29 -3 -55 -3q-28 0 -28 13zM433 323q10 0 13 2.5t3 11.5v232q0 16 -4 16q-3 0 -11 -14
l-129 -232q-4 -7 -3 -11q0 -5 16 -5h115zM406.5 725.5q-4.5 4.5 -4.5 9.5q0 16 7.5 32.5t20.5 16.5h265q6 0 10.5 -4.5t4.5 -9.5q0 -18 -10.5 -33.5t-23.5 -15.5h-258q-7 0 -11.5 4.5z" />
    <glyph glyph-name="B" unicode="B" horiz-adv-x="601" 
d="M25 -2q-7 3 -7 9q0 13 29 19q39 8 56 23.5t17 48.5v452q0 35 -14.5 51t-50.5 20q-15 1 -22 7t-7 13q0 6 7 9.5t19 3.5q31 0 65 -2l50 -1q24 0 48 3q57 3 74 3q121 0 178.5 -34.5t57.5 -114.5q0 -31 -11.5 -57t-28.5 -42q-16 -15 -30.5 -24t-38.5 -17q-4 -2 -4 -5.5
t4 -4.5q42 -12 73 -28t53 -49t22 -87q0 -51 -16 -84t-37.5 -49.5t-50.5 -31.5q-68 -33 -172 -33q-10 0 -42 2q-40 2 -68 2q-24 0 -64 -2q-32 -3 -70 -3q-12 0 -19 3zM377 399q14 9 27 32t13 61q0 130 -131 130q-35 0 -48 -10.5t-13 -33.5v-171q0 -21 13.5 -29t30.5 -8
q63 0 108 29zM370 61.5q34 19.5 54.5 53t20.5 73.5q0 49 -19.5 78.5t-45.5 45.5q-38 24 -102 24q-25 0 -39 -11t-14 -24v-191q0 -37 18 -52.5t54 -15.5q39 0 73 19.5z" />
    <glyph glyph-name="C" unicode="C" horiz-adv-x="710" 
d="M225 27.5q-84 42.5 -134.5 119t-50.5 174.5q0 94 52 172.5t142 124t198 45.5q51 0 89 -7t91 -22q13 -4 19.5 -11.5t7.5 -20.5q6 -58 9 -116q0 -7 -5.5 -11.5t-11.5 -4.5q-15 0 -19 15q-10 38 -22.5 62t-33.5 40q-49 38 -138 38q-73 0 -130.5 -39t-90 -103t-32.5 -137
q0 -85 31.5 -159t90 -118.5t136.5 -44.5q71 0 118 31t80 95q8 14 21 14q6 0 10 -4t4 -12q0 -14 -7.5 -45t-17.5 -58q-6 -13 -11 -18t-19 -10q-37 -15 -88.5 -23.5t-106.5 -8.5q-97 0 -181 42.5z" />
    <glyph glyph-name="Cacute" unicode="&#x106;" horiz-adv-x="710" 
d="M225 27.5q-84 42.5 -134.5 119t-50.5 174.5q0 94 52 172.5t142 124t198 45.5q51 0 89 -7t91 -22q13 -4 19.5 -11.5t7.5 -20.5q6 -58 9 -116q0 -7 -5.5 -11.5t-11.5 -4.5q-15 0 -19 15q-10 38 -22.5 62t-33.5 40q-49 38 -138 38q-73 0 -130.5 -39t-90 -103t-32.5 -137
q0 -85 31.5 -159t90 -118.5t136.5 -44.5q71 0 118 31t80 95q8 14 21 14q6 0 10 -4t4 -12q0 -14 -7.5 -45t-17.5 -58q-6 -13 -11 -18t-19 -10q-37 -15 -88.5 -23.5t-106.5 -8.5q-97 0 -181 42.5zM355 691q0 7 7 17q51 75 88 121q9 13 29 13q15 -1 39.5 -10t23.5 -18
q-1 -6 -4 -10t-11 -10q-31 -24 -91 -65q-36 -24 -52 -36q-13 -9 -21 -9t-8 7z" />
    <glyph glyph-name="Ccaron" unicode="&#x10c;" horiz-adv-x="710" 
d="M225 27.5q-84 42.5 -134.5 119t-50.5 174.5q0 94 52 172.5t142 124t198 45.5q51 0 89 -7t91 -22q13 -4 19.5 -11.5t7.5 -20.5q6 -58 9 -116q0 -7 -5.5 -11.5t-11.5 -4.5q-15 0 -19 15q-10 38 -22.5 62t-33.5 40q-49 38 -138 38q-73 0 -130.5 -39t-90 -103t-32.5 -137
q0 -85 31.5 -159t90 -118.5t136.5 -44.5q71 0 118 31t80 95q8 14 21 14q6 0 10 -4t4 -12q0 -14 -7.5 -45t-17.5 -58q-6 -13 -11 -18t-19 -10q-37 -15 -88.5 -23.5t-106.5 -8.5q-97 0 -181 42.5zM323 811q46 -20 69 -33q8 -4 11 -4t11 4q23 13 69 33.5t56 20.5q15 0 15 -12
q0 -8 -6 -13l-101 -83q-19 -16 -26 -20.5t-18 -4.5t-18 4.5t-26 20.5l-101 83q-7 6 -7 13q0 11 16 11q10 0 56 -20z" />
    <glyph glyph-name="Ccedilla" unicode="&#xc7;" horiz-adv-x="710" 
d="M225 27.5q-84 42.5 -134.5 119t-50.5 174.5q0 94 52 172.5t142 124t198 45.5q51 0 89 -7t91 -22q13 -4 19.5 -11.5t7.5 -20.5q6 -58 9 -116q0 -7 -5.5 -11.5t-11.5 -4.5q-15 0 -19 15q-10 38 -22.5 62t-33.5 40q-49 38 -138 38q-73 0 -130.5 -39t-90 -103t-32.5 -137
q0 -85 31.5 -159t90 -118.5t136.5 -44.5q71 0 118 31t80 95q8 14 21 14q6 0 10 -4t4 -12q0 -14 -7.5 -45t-17.5 -58q-6 -13 -11 -18t-19 -10q-37 -15 -88.5 -23.5t-106.5 -8.5q-97 0 -181 42.5zM296 -266.5q-12 8.5 -12 27.5q0 15 5.5 24t12.5 9q2 0 16 -6.5t46 -6.5
q20 0 31.5 10.5t11.5 28.5q0 24 -12.5 36.5t-35.5 12.5q-6 0 -13.5 -2t-11.5 -2q-12 0 -19.5 6.5t-7.5 12.5q0 8 6 16l84 108h37l-37 -53q-4 -5 -4 -10q0 -7 10 -12q26 -9 45.5 -32t19.5 -54q0 -32 -22.5 -60.5t-55 -45t-58.5 -16.5q-24 0 -36 8.5z" />
    <glyph glyph-name="Ccircumflex" unicode="&#x108;" horiz-adv-x="710" 
d="M225 27.5q-84 42.5 -134.5 119t-50.5 174.5q0 94 52 172.5t142 124t198 45.5q51 0 89 -7t91 -22q13 -4 19.5 -11.5t7.5 -20.5q6 -58 9 -116q0 -7 -5.5 -11.5t-11.5 -4.5q-15 0 -19 15q-10 38 -22.5 62t-33.5 40q-49 38 -138 38q-73 0 -130.5 -39t-90 -103t-32.5 -137
q0 -85 31.5 -159t90 -118.5t136.5 -44.5q71 0 118 31t80 95q8 14 21 14q6 0 10 -4t4 -12q0 -14 -7.5 -45t-17.5 -58q-6 -13 -11 -18t-19 -10q-37 -15 -88.5 -23.5t-106.5 -8.5q-97 0 -181 42.5zM250 706q0 7 7 13l101 87q17 15 25 19.5t19 4.5t19 -4.5t25 -19.5l101 -87
q6 -5 6 -13q0 -12 -15 -12q-10 0 -56 20.5t-69 33.5q-5 4 -11 4t-11 -4q-23 -13 -69 -33t-56 -20q-16 0 -16 11z" />
    <glyph glyph-name="Cdotaccent" unicode="&#x10a;" horiz-adv-x="710" 
d="M225 27.5q-84 42.5 -134.5 119t-50.5 174.5q0 94 52 172.5t142 124t198 45.5q51 0 89 -7t91 -22q13 -4 19.5 -11.5t7.5 -20.5q6 -58 9 -116q0 -7 -5.5 -11.5t-11.5 -4.5q-15 0 -19 15q-10 38 -22.5 62t-33.5 40q-49 38 -138 38q-73 0 -130.5 -39t-90 -103t-32.5 -137
q0 -85 31.5 -159t90 -118.5t136.5 -44.5q71 0 118 31t80 95q8 14 21 14q6 0 10 -4t4 -12q0 -14 -7.5 -45t-17.5 -58q-6 -13 -11 -18t-19 -10q-37 -15 -88.5 -23.5t-106.5 -8.5q-97 0 -181 42.5zM357 712.5q-19 18.5 -19 43.5q0 26 19 44.5t45 18.5q28 0 47 -18.5t19 -44.5
t-19 -44t-47 -18q-26 0 -45 18.5z" />
    <glyph glyph-name="D" unicode="D" horiz-adv-x="758" 
d="M297 -4q-86 4 -128 4q-18 0 -52 -2q-38 -2 -66 -2q-26 0 -26 13q0 8 6.5 11.5t22.5 6.5q38 7 52.5 22t14.5 49v452q0 34 -14 48.5t-53 22.5q-16 3 -22.5 7t-6.5 12q0 7 7 10.5t19 3.5q25 0 63 -2l59 -1q23 0 99 4q68 4 84 4q119 0 202.5 -41.5t125.5 -113.5t42 -164
q0 -93 -45.5 -172.5t-126 -127t-179.5 -47.5q-28 0 -78 3zM490.5 70q55.5 36 85.5 100.5t30 148.5q0 91 -35 159.5t-94 105t-128 36.5q-48 0 -71.5 -2.5t-37 -14t-13.5 -36.5v-442q0 -52 36 -71.5t99 -19.5q73 0 128.5 36z" />
    <glyph glyph-name="Eth" unicode="&#xd0;" horiz-adv-x="758" 
d="M558.5 617.5q83.5 -41.5 125.5 -113.5t42 -164q0 -93 -45.5 -172.5t-126 -127t-179.5 -47.5q-28 0 -78 3q-86 4 -128 4q-18 0 -52 -2q-38 -2 -66 -2q-26 0 -26 13q0 8 6.5 11.5t22.5 6.5q38 7 52.5 22t14.5 49v215h-62q-8 0 -12.5 7.5t-4.5 14.5q0 9 7.5 15.5t18.5 6.5
h53v193q0 34 -14 48.5t-53 22.5q-16 3 -22.5 7t-6.5 12q0 7 7 10.5t19 3.5q25 0 63 -2l59 -1q23 0 99 4q68 4 84 4q119 0 202.5 -41.5zM490.5 70q55.5 36 85.5 100.5t30 148.5q0 91 -35 159.5t-94 105t-128 36.5q-48 0 -71.5 -2.5t-37 -14t-13.5 -36.5v-210h146q6 0 11 -4
t5 -10l-1 -3q-12 -27 -34 -27h-127v-188q0 -52 36 -71.5t99 -19.5q73 0 128.5 36z" />
    <glyph glyph-name="Dcaron" unicode="&#x10e;" horiz-adv-x="758" 
d="M297 -4q-86 4 -128 4q-18 0 -52 -2q-38 -2 -66 -2q-26 0 -26 13q0 8 6.5 11.5t22.5 6.5q38 7 52.5 22t14.5 49v452q0 34 -14 48.5t-53 22.5q-16 3 -22.5 7t-6.5 12q0 7 7 10.5t19 3.5q25 0 63 -2l59 -1q23 0 99 4q68 4 84 4q119 0 202.5 -41.5t125.5 -113.5t42 -164
q0 -93 -45.5 -172.5t-126 -127t-179.5 -47.5q-28 0 -78 3zM490.5 70q55.5 36 85.5 100.5t30 148.5q0 91 -35 159.5t-94 105t-128 36.5q-48 0 -71.5 -2.5t-37 -14t-13.5 -36.5v-442q0 -52 36 -71.5t99 -19.5q73 0 128.5 36zM290 811q46 -20 69 -33q8 -4 11 -4t11 4
q23 13 69 33.5t56 20.5q15 0 15 -12q0 -8 -6 -13l-101 -83q-19 -16 -26 -20.5t-18 -4.5t-18 4.5t-26 20.5l-101 83q-7 6 -7 13q0 11 16 11q10 0 56 -20z" />
    <glyph glyph-name="Dcroat" unicode="&#x110;" horiz-adv-x="758" 
d="M558.5 617.5q83.5 -41.5 125.5 -113.5t42 -164q0 -93 -45.5 -172.5t-126 -127t-179.5 -47.5q-28 0 -78 3q-86 4 -128 4q-18 0 -52 -2q-38 -2 -66 -2q-26 0 -26 13q0 8 6.5 11.5t22.5 6.5q38 7 52.5 22t14.5 49v215h-62q-8 0 -12.5 7.5t-4.5 14.5q0 9 7.5 15.5t18.5 6.5
h53v193q0 34 -14 48.5t-53 22.5q-16 3 -22.5 7t-6.5 12q0 7 7 10.5t19 3.5q25 0 63 -2l59 -1q23 0 99 4q68 4 84 4q119 0 202.5 -41.5zM490.5 70q55.5 36 85.5 100.5t30 148.5q0 91 -35 159.5t-94 105t-128 36.5q-48 0 -71.5 -2.5t-37 -14t-13.5 -36.5v-210h146q6 0 11 -4
t5 -10l-1 -3q-12 -27 -34 -27h-127v-188q0 -52 36 -71.5t99 -19.5q73 0 128.5 36z" />
    <glyph glyph-name="E" unicode="E" horiz-adv-x="568" 
d="M31 7q0 13 29 19q38 8 54 23.5t16 48.5v452q0 34 -14 48.5t-51 22.5q-29 6 -29 20q0 6 7 9.5t19 3.5q35 0 87 -2q50 -2 80 -2q67 0 165 2q33 0 56.5 1.5t26.5 1.5q7 0 13 -3t7 -9l5 -30q11 -57 11 -82q0 -9 -4.5 -13t-9.5 -4q-9 0 -14 12q-1 4 -6.5 19.5t-10.5 25.5
t-10 16q-27 28 -68 28h-112q-14 0 -28 -10.5t-14 -25.5v-204q0 -10 6 -16t15 -6h94q27 0 38.5 12t19.5 41q7 20 19 20q5 0 9 -5t4 -13q-4 -56 -4 -73q0 -37 3 -79v-4q0 -16 -9 -16q-16 0 -24 29q-7 27 -17.5 39.5t-29.5 12.5h-93q-17 0 -24 -5.5t-7 -20.5v-191
q0 -34 14.5 -48t46.5 -14h79q58 0 85 19q16 11 29 29t28 49q8 13 17 12q11 0 11 -16t-10 -52.5t-21 -67.5q-7 -16 -17 -16q-70 0 -150 3q-27 1 -69.5 2t-98.5 1q-28 0 -57 -3q-57 -3 -66 -3q-26 0 -26 12z" />
    <glyph glyph-name="Eacute" unicode="&#xc9;" horiz-adv-x="568" 
d="M31 7q0 13 29 19q38 8 54 23.5t16 48.5v452q0 34 -14 48.5t-51 22.5q-29 6 -29 20q0 6 7 9.5t19 3.5q35 0 87 -2q50 -2 80 -2q67 0 165 2q33 0 56.5 1.5t26.5 1.5q7 0 13 -3t7 -9l5 -30q11 -57 11 -82q0 -9 -4.5 -13t-9.5 -4q-9 0 -14 12q-1 4 -6.5 19.5t-10.5 25.5
t-10 16q-27 28 -68 28h-112q-14 0 -28 -10.5t-14 -25.5v-204q0 -10 6 -16t15 -6h94q27 0 38.5 12t19.5 41q7 20 19 20q5 0 9 -5t4 -13q-4 -56 -4 -73q0 -37 3 -79v-4q0 -16 -9 -16q-16 0 -24 29q-7 27 -17.5 39.5t-29.5 12.5h-93q-17 0 -24 -5.5t-7 -20.5v-191
q0 -34 14.5 -48t46.5 -14h79q58 0 85 19q16 11 29 29t28 49q8 13 17 12q11 0 11 -16t-10 -52.5t-21 -67.5q-7 -16 -17 -16q-70 0 -150 3q-27 1 -69.5 2t-98.5 1q-28 0 -57 -3q-57 -3 -66 -3q-26 0 -26 12zM251 691q0 7 7 17q51 75 88 121q9 13 29 13q15 -1 39.5 -10
t23.5 -18q-1 -6 -4 -10t-11 -10q-31 -24 -91 -65q-36 -24 -52 -36q-13 -9 -21 -9t-8 7z" />
    <glyph glyph-name="Ebreve" unicode="&#x114;" horiz-adv-x="568" 
d="M31 7q0 13 29 19q38 8 54 23.5t16 48.5v452q0 34 -14 48.5t-51 22.5q-29 6 -29 20q0 6 7 9.5t19 3.5q35 0 87 -2q50 -2 80 -2q67 0 165 2q33 0 56.5 1.5t26.5 1.5q7 0 13 -3t7 -9l5 -30q11 -57 11 -82q0 -9 -4.5 -13t-9.5 -4q-9 0 -14 12q-1 4 -6.5 19.5t-10.5 25.5
t-10 16q-27 28 -68 28h-112q-14 0 -28 -10.5t-14 -25.5v-204q0 -10 6 -16t15 -6h94q27 0 38.5 12t19.5 41q7 20 19 20q5 0 9 -5t4 -13q-4 -56 -4 -73q0 -37 3 -79v-4q0 -16 -9 -16q-16 0 -24 29q-7 27 -17.5 39.5t-29.5 12.5h-93q-17 0 -24 -5.5t-7 -20.5v-191
q0 -34 14.5 -48t46.5 -14h79q58 0 85 19q16 11 29 29t28 49q8 13 17 12q11 0 11 -16t-10 -52.5t-21 -67.5q-7 -16 -17 -16q-70 0 -150 3q-27 1 -69.5 2t-98.5 1q-28 0 -57 -3q-57 -3 -66 -3q-26 0 -26 12zM224 708q-32 18 -49 44.5t-17 48.5q0 11 3 18t8 7q6 0 11.5 -4.5
t9 -9t5.5 -7.5q21 -25 45.5 -36t57.5 -11t57.5 11t45.5 36q2 3 7 9t9.5 9t9.5 3q7 0 9 -6t2 -19q0 -22 -17 -48.5t-49 -44.5t-74 -18t-74 18z" />
    <glyph glyph-name="Ecaron" unicode="&#x11a;" horiz-adv-x="568" 
d="M31 7q0 13 29 19q38 8 54 23.5t16 48.5v452q0 34 -14 48.5t-51 22.5q-29 6 -29 20q0 6 7 9.5t19 3.5q35 0 87 -2q50 -2 80 -2q67 0 165 2q33 0 56.5 1.5t26.5 1.5q7 0 13 -3t7 -9l5 -30q11 -57 11 -82q0 -9 -4.5 -13t-9.5 -4q-9 0 -14 12q-1 4 -6.5 19.5t-10.5 25.5
t-10 16q-27 28 -68 28h-112q-14 0 -28 -10.5t-14 -25.5v-204q0 -10 6 -16t15 -6h94q27 0 38.5 12t19.5 41q7 20 19 20q5 0 9 -5t4 -13q-4 -56 -4 -73q0 -37 3 -79v-4q0 -16 -9 -16q-16 0 -24 29q-7 27 -17.5 39.5t-29.5 12.5h-93q-17 0 -24 -5.5t-7 -20.5v-191
q0 -34 14.5 -48t46.5 -14h79q58 0 85 19q16 11 29 29t28 49q8 13 17 12q11 0 11 -16t-10 -52.5t-21 -67.5q-7 -16 -17 -16q-70 0 -150 3q-27 1 -69.5 2t-98.5 1q-28 0 -57 -3q-57 -3 -66 -3q-26 0 -26 12zM219 811q46 -20 69 -33q8 -4 11 -4t11 4q23 13 69 33.5t56 20.5
q15 0 15 -12q0 -8 -6 -13l-101 -83q-19 -16 -26 -20.5t-18 -4.5t-18 4.5t-26 20.5l-101 83q-7 6 -7 13q0 11 16 11q10 0 56 -20z" />
    <glyph glyph-name="Ecircumflex" unicode="&#xca;" horiz-adv-x="568" 
d="M31 7q0 13 29 19q38 8 54 23.5t16 48.5v452q0 34 -14 48.5t-51 22.5q-29 6 -29 20q0 6 7 9.5t19 3.5q35 0 87 -2q50 -2 80 -2q67 0 165 2q33 0 56.5 1.5t26.5 1.5q7 0 13 -3t7 -9l5 -30q11 -57 11 -82q0 -9 -4.5 -13t-9.5 -4q-9 0 -14 12q-1 4 -6.5 19.5t-10.5 25.5
t-10 16q-27 28 -68 28h-112q-14 0 -28 -10.5t-14 -25.5v-204q0 -10 6 -16t15 -6h94q27 0 38.5 12t19.5 41q7 20 19 20q5 0 9 -5t4 -13q-4 -56 -4 -73q0 -37 3 -79v-4q0 -16 -9 -16q-16 0 -24 29q-7 27 -17.5 39.5t-29.5 12.5h-93q-17 0 -24 -5.5t-7 -20.5v-191
q0 -34 14.5 -48t46.5 -14h79q58 0 85 19q16 11 29 29t28 49q8 13 17 12q11 0 11 -16t-10 -52.5t-21 -67.5q-7 -16 -17 -16q-70 0 -150 3q-27 1 -69.5 2t-98.5 1q-28 0 -57 -3q-57 -3 -66 -3q-26 0 -26 12zM146 706q0 7 7 13l101 87q17 15 25 19.5t19 4.5t19 -4.5t25 -19.5
l101 -87q6 -5 6 -13q0 -12 -15 -12q-10 0 -56 20.5t-69 33.5q-5 4 -11 4t-11 -4q-23 -13 -69 -33t-56 -20q-16 0 -16 11z" />
    <glyph glyph-name="Edieresis" unicode="&#xcb;" horiz-adv-x="568" 
d="M31 7q0 13 29 19q38 8 54 23.5t16 48.5v452q0 34 -14 48.5t-51 22.5q-29 6 -29 20q0 6 7 9.5t19 3.5q35 0 87 -2q50 -2 80 -2q67 0 165 2q33 0 56.5 1.5t26.5 1.5q7 0 13 -3t7 -9l5 -30q11 -57 11 -82q0 -9 -4.5 -13t-9.5 -4q-9 0 -14 12q-1 4 -6.5 19.5t-10.5 25.5
t-10 16q-27 28 -68 28h-112q-14 0 -28 -10.5t-14 -25.5v-204q0 -10 6 -16t15 -6h94q27 0 38.5 12t19.5 41q7 20 19 20q5 0 9 -5t4 -13q-4 -56 -4 -73q0 -37 3 -79v-4q0 -16 -9 -16q-16 0 -24 29q-7 27 -17.5 39.5t-29.5 12.5h-93q-17 0 -24 -5.5t-7 -20.5v-191
q0 -34 14.5 -48t46.5 -14h79q58 0 85 19q16 11 29 29t28 49q8 13 17 12q11 0 11 -16t-10 -52.5t-21 -67.5q-7 -16 -17 -16q-70 0 -150 3q-27 1 -69.5 2t-98.5 1q-28 0 -57 -3q-57 -3 -66 -3q-26 0 -26 12zM159 709q-17 17 -17 41q0 25 17 41.5t41 16.5q25 0 42 -16.5
t17 -41.5q0 -24 -17 -41t-42 -17q-24 0 -41 17zM355 709q-17 17 -17 41q0 25 17 41.5t41 16.5q25 0 41.5 -16.5t16.5 -41.5q0 -24 -16.5 -41t-41.5 -17q-24 0 -41 17z" />
    <glyph glyph-name="Edotaccent" unicode="&#x116;" horiz-adv-x="568" 
d="M31 7q0 13 29 19q38 8 54 23.5t16 48.5v452q0 34 -14 48.5t-51 22.5q-29 6 -29 20q0 6 7 9.5t19 3.5q35 0 87 -2q50 -2 80 -2q67 0 165 2q33 0 56.5 1.5t26.5 1.5q7 0 13 -3t7 -9l5 -30q11 -57 11 -82q0 -9 -4.5 -13t-9.5 -4q-9 0 -14 12q-1 4 -6.5 19.5t-10.5 25.5
t-10 16q-27 28 -68 28h-112q-14 0 -28 -10.5t-14 -25.5v-204q0 -10 6 -16t15 -6h94q27 0 38.5 12t19.5 41q7 20 19 20q5 0 9 -5t4 -13q-4 -56 -4 -73q0 -37 3 -79v-4q0 -16 -9 -16q-16 0 -24 29q-7 27 -17.5 39.5t-29.5 12.5h-93q-17 0 -24 -5.5t-7 -20.5v-191
q0 -34 14.5 -48t46.5 -14h79q58 0 85 19q16 11 29 29t28 49q8 13 17 12q11 0 11 -16t-10 -52.5t-21 -67.5q-7 -16 -17 -16q-70 0 -150 3q-27 1 -69.5 2t-98.5 1q-28 0 -57 -3q-57 -3 -66 -3q-26 0 -26 12zM253 712.5q-19 18.5 -19 43.5q0 26 19 44.5t45 18.5q28 0 47 -18.5
t19 -44.5t-19 -44t-47 -18q-26 0 -45 18.5z" />
    <glyph glyph-name="Egrave" unicode="&#xc8;" horiz-adv-x="568" 
d="M31 7q0 13 29 19q38 8 54 23.5t16 48.5v452q0 34 -14 48.5t-51 22.5q-29 6 -29 20q0 6 7 9.5t19 3.5q35 0 87 -2q50 -2 80 -2q67 0 165 2q33 0 56.5 1.5t26.5 1.5q7 0 13 -3t7 -9l5 -30q11 -57 11 -82q0 -9 -4.5 -13t-9.5 -4q-9 0 -14 12q-1 4 -6.5 19.5t-10.5 25.5
t-10 16q-27 28 -68 28h-112q-14 0 -28 -10.5t-14 -25.5v-204q0 -10 6 -16t15 -6h94q27 0 38.5 12t19.5 41q7 20 19 20q5 0 9 -5t4 -13q-4 -56 -4 -73q0 -37 3 -79v-4q0 -16 -9 -16q-16 0 -24 29q-7 27 -17.5 39.5t-29.5 12.5h-93q-17 0 -24 -5.5t-7 -20.5v-191
q0 -34 14.5 -48t46.5 -14h79q58 0 85 19q16 11 29 29t28 49q8 13 17 12q11 0 11 -16t-10 -52.5t-21 -67.5q-7 -16 -17 -16q-70 0 -150 3q-27 1 -69.5 2t-98.5 1q-28 0 -57 -3q-57 -3 -66 -3q-26 0 -26 12zM308 693q-16 12 -52 36q-60 41 -91 65q-8 6 -11 10t-4 10
q-1 9 23.5 18t39.5 10q20 0 29 -13q37 -46 88 -121q7 -10 7 -17t-8 -7t-21 9z" />
    <glyph glyph-name="Emacron" unicode="&#x112;" horiz-adv-x="568" 
d="M31 7q0 13 29 19q38 8 54 23.5t16 48.5v452q0 34 -14 48.5t-51 22.5q-29 6 -29 20q0 6 7 9.5t19 3.5q35 0 87 -2q50 -2 80 -2q67 0 165 2q33 0 56.5 1.5t26.5 1.5q7 0 13 -3t7 -9l5 -30q11 -57 11 -82q0 -9 -4.5 -13t-9.5 -4q-9 0 -14 12q-1 4 -6.5 19.5t-10.5 25.5
t-10 16q-27 28 -68 28h-112q-14 0 -28 -10.5t-14 -25.5v-204q0 -10 6 -16t15 -6h94q27 0 38.5 12t19.5 41q7 20 19 20q5 0 9 -5t4 -13q-4 -56 -4 -73q0 -37 3 -79v-4q0 -16 -9 -16q-16 0 -24 29q-7 27 -17.5 39.5t-29.5 12.5h-93q-17 0 -24 -5.5t-7 -20.5v-191
q0 -34 14.5 -48t46.5 -14h79q58 0 85 19q16 11 29 29t28 49q8 13 17 12q11 0 11 -16t-10 -52.5t-21 -67.5q-7 -16 -17 -16q-70 0 -150 3q-27 1 -69.5 2t-98.5 1q-28 0 -57 -3q-57 -3 -66 -3q-26 0 -26 12zM151.5 725.5q-4.5 4.5 -4.5 9.5q0 16 7.5 32.5t20.5 16.5h265
q6 0 10.5 -4.5t4.5 -9.5q0 -18 -10.5 -33.5t-23.5 -15.5h-258q-7 0 -11.5 4.5z" />
    <glyph glyph-name="Eogonek" unicode="&#x118;" horiz-adv-x="545" 
d="M31 7q0 13 29 19q38 8 54 23.5t16 48.5v452q0 34 -14 48.5t-51 22.5q-29 6 -29 20q0 6 7 9.5t19 3.5q35 0 87 -2q50 -2 80 -2q67 0 165 2q33 0 56.5 1.5t26.5 1.5q7 0 13 -3t7 -9l5 -30q11 -57 11 -82q0 -9 -4.5 -13t-9.5 -4q-9 0 -14 12q-1 4 -6.5 19.5t-10.5 25.5
t-10 16q-27 28 -68 28h-112q-14 0 -28 -10.5t-14 -25.5v-204q0 -10 6 -16t15 -6h94q27 0 38.5 12t19.5 41q7 20 19 20q5 0 9 -5t4 -13q-4 -56 -4 -73q0 -37 3 -79v-4q0 -16 -9 -16q-16 0 -24 29q-7 27 -17.5 39.5t-29.5 12.5h-93q-17 0 -24 -5.5t-7 -20.5v-191
q0 -34 14.5 -48t46.5 -14h79q58 0 85 19q16 11 29 29t28 49q8 13 17 12q11 0 11 -16t-10 -52.5t-21 -67.5q-7 -16 -17 -16q-70 0 -150 3q-27 1 -69.5 2t-98.5 1q-28 0 -57 -3q-57 -3 -66 -3q-26 0 -26 12zM305 -255q-33 32 -33 81q0 61 59.5 112.5t111.5 79.5h31
q-3 -3 -31.5 -27t-52.5 -63.5t-24 -79.5q0 -25 18 -42t44 -17q30 0 52.5 17.5t24.5 19.5q4 2 7 2q9 0 9 -11q0 -22 -20.5 -46.5t-52 -41t-60.5 -16.5q-50 0 -83 32z" />
    <glyph glyph-name="F" unicode="F" horiz-adv-x="524" 
d="M26 8q0 7 7 11.5t22 7.5q38 7 52 22t14 50v431q0 43 -12.5 63.5t-47.5 27.5q-30 6 -30 20q0 6 7.5 9.5t18.5 3.5q35 0 85 -2t79 -2h144q31 0 71 6q30 4 38 4q7 0 13.5 -3t7.5 -9q2 -28 3.5 -59.5t1.5 -53.5q0 -9 -3 -15t-7 -6q-6 0 -11 4t-6 10q-11 40 -27 59
q-26 26 -69 26h-109q-22 0 -31 -13t-10 -36v-94v-96q0 -22 15 -22l65 1q17 1 44 1q41 0 61 45q2 5 8 11t10 6q5 0 9.5 -5t3.5 -13q-3 -37 -3 -61t3 -68q0 -21 -9 -21t-15 7.5t-9 16.5q-13 43 -48 43l-49 1q-42 0 -63 -1q-10 -1 -16.5 -7t-6.5 -18q0 -126 3 -190
q1 -33 16 -49.5t53 -23.5q15 -3 22 -7.5t7 -11.5q0 -12 -25 -12q-19 0 -39 1.5t-29 1.5q-25 3 -51 3q-32 0 -62 -3q-10 0 -31 -1.5t-40 -1.5q-25 0 -25 12z" />
    <glyph glyph-name="G" unicode="G" horiz-adv-x="726" 
d="M214 28.5q-80 42.5 -127.5 117t-47.5 166.5q0 95 49 175.5t134.5 128t188.5 47.5q37 0 106.5 -11.5t93.5 -22.5q6 -2 8.5 -5.5t4.5 -10.5q10 -84 10 -110q0 -8 -4.5 -14t-10.5 -6q-10 0 -15 6t-10 19q-15 36 -37 61q-17 19 -54 35t-93 16q-73 0 -129.5 -40t-87 -106.5
t-30.5 -143.5q0 -91 32 -159.5t86.5 -105t120.5 -36.5q68 0 103 32q12 11 20 30.5t8 42.5q0 20 1 33l1 34q0 25 -11 32q-12 11 -39.5 18.5t-46.5 8.5q-7 1 -14.5 6.5t-7.5 12.5q0 6 7.5 11t13.5 5q24 0 66 -2q44 -2 70 -2q17 0 49 2t52 2q6 0 12.5 -4t6.5 -12q0 -7 -6.5 -12
t-13.5 -7q-23 -7 -33 -17.5t-13 -31.5q-5 -36 -5 -75v-29q0 -6 3.5 -10.5t4.5 -6.5q2 -3 7 -9t5 -10q0 -17 -16 -19q-9 -2 -28 -12q-48 -23 -98 -38.5t-113 -15.5q-93 0 -173 42.5z" />
    <glyph glyph-name="Gbreve" unicode="&#x11e;" horiz-adv-x="726" 
d="M214 28.5q-80 42.5 -127.5 117t-47.5 166.5q0 95 49 175.5t134.5 128t188.5 47.5q37 0 106.5 -11.5t93.5 -22.5q6 -2 8.5 -5.5t4.5 -10.5q10 -84 10 -110q0 -8 -4.5 -14t-10.5 -6q-10 0 -15 6t-10 19q-15 36 -37 61q-17 19 -54 35t-93 16q-73 0 -129.5 -40t-87 -106.5
t-30.5 -143.5q0 -91 32 -159.5t86.5 -105t120.5 -36.5q68 0 103 32q12 11 20 30.5t8 42.5q0 20 1 33l1 34q0 25 -11 32q-12 11 -39.5 18.5t-46.5 8.5q-7 1 -14.5 6.5t-7.5 12.5q0 6 7.5 11t13.5 5q24 0 66 -2q44 -2 70 -2q17 0 49 2t52 2q6 0 12.5 -4t6.5 -12q0 -7 -6.5 -12
t-13.5 -7q-23 -7 -33 -17.5t-13 -31.5q-5 -36 -5 -75v-29q0 -6 3.5 -10.5t4.5 -6.5q2 -3 7 -9t5 -10q0 -17 -16 -19q-9 -2 -28 -12q-48 -23 -98 -38.5t-113 -15.5q-93 0 -173 42.5zM339 708q-32 18 -49 44.5t-17 48.5q0 11 3 18t8 7q6 0 11.5 -4.5t9 -9t5.5 -7.5
q21 -25 45.5 -36t57.5 -11t57.5 11t45.5 36q2 3 7 9t9.5 9t9.5 3q7 0 9 -6t2 -19q0 -22 -17 -48.5t-49 -44.5t-74 -18t-74 18z" />
    <glyph glyph-name="Gcaron" unicode="&#x1e6;" horiz-adv-x="726" 
d="M214 28.5q-80 42.5 -127.5 117t-47.5 166.5q0 95 49 175.5t134.5 128t188.5 47.5q37 0 106.5 -11.5t93.5 -22.5q6 -2 8.5 -5.5t4.5 -10.5q10 -84 10 -110q0 -8 -4.5 -14t-10.5 -6q-10 0 -15 6t-10 19q-15 36 -37 61q-17 19 -54 35t-93 16q-73 0 -129.5 -40t-87 -106.5
t-30.5 -143.5q0 -91 32 -159.5t86.5 -105t120.5 -36.5q68 0 103 32q12 11 20 30.5t8 42.5q0 20 1 33l1 34q0 25 -11 32q-12 11 -39.5 18.5t-46.5 8.5q-7 1 -14.5 6.5t-7.5 12.5q0 6 7.5 11t13.5 5q24 0 66 -2q44 -2 70 -2q17 0 49 2t52 2q6 0 12.5 -4t6.5 -12q0 -7 -6.5 -12
t-13.5 -7q-23 -7 -33 -17.5t-13 -31.5q-5 -36 -5 -75v-29q0 -6 3.5 -10.5t4.5 -6.5q2 -3 7 -9t5 -10q0 -17 -16 -19q-9 -2 -28 -12q-48 -23 -98 -38.5t-113 -15.5q-93 0 -173 42.5zM334 811q46 -20 69 -33q8 -4 11 -4t11 4q23 13 69 33.5t56 20.5q15 0 15 -12q0 -8 -6 -13
l-101 -83q-19 -16 -26 -20.5t-18 -4.5t-18 4.5t-26 20.5l-101 83q-7 6 -7 13q0 11 16 11q10 0 56 -20z" />
    <glyph glyph-name="Gcircumflex" unicode="&#x11c;" horiz-adv-x="726" 
d="M214 28.5q-80 42.5 -127.5 117t-47.5 166.5q0 95 49 175.5t134.5 128t188.5 47.5q37 0 106.5 -11.5t93.5 -22.5q6 -2 8.5 -5.5t4.5 -10.5q10 -84 10 -110q0 -8 -4.5 -14t-10.5 -6q-10 0 -15 6t-10 19q-15 36 -37 61q-17 19 -54 35t-93 16q-73 0 -129.5 -40t-87 -106.5
t-30.5 -143.5q0 -91 32 -159.5t86.5 -105t120.5 -36.5q68 0 103 32q12 11 20 30.5t8 42.5q0 20 1 33l1 34q0 25 -11 32q-12 11 -39.5 18.5t-46.5 8.5q-7 1 -14.5 6.5t-7.5 12.5q0 6 7.5 11t13.5 5q24 0 66 -2q44 -2 70 -2q17 0 49 2t52 2q6 0 12.5 -4t6.5 -12q0 -7 -6.5 -12
t-13.5 -7q-23 -7 -33 -17.5t-13 -31.5q-5 -36 -5 -75v-29q0 -6 3.5 -10.5t4.5 -6.5q2 -3 7 -9t5 -10q0 -17 -16 -19q-9 -2 -28 -12q-48 -23 -98 -38.5t-113 -15.5q-93 0 -173 42.5zM261 706q0 7 7 13l101 87q17 15 25 19.5t19 4.5t19 -4.5t25 -19.5l101 -87q6 -5 6 -13
q0 -12 -15 -12q-10 0 -56 20.5t-69 33.5q-5 4 -11 4t-11 -4q-23 -13 -69 -33t-56 -20q-16 0 -16 11z" />
    <glyph glyph-name="Gdotaccent" unicode="&#x120;" horiz-adv-x="726" 
d="M214 28.5q-80 42.5 -127.5 117t-47.5 166.5q0 95 49 175.5t134.5 128t188.5 47.5q37 0 106.5 -11.5t93.5 -22.5q6 -2 8.5 -5.5t4.5 -10.5q10 -84 10 -110q0 -8 -4.5 -14t-10.5 -6q-10 0 -15 6t-10 19q-15 36 -37 61q-17 19 -54 35t-93 16q-73 0 -129.5 -40t-87 -106.5
t-30.5 -143.5q0 -91 32 -159.5t86.5 -105t120.5 -36.5q68 0 103 32q12 11 20 30.5t8 42.5q0 20 1 33l1 34q0 25 -11 32q-12 11 -39.5 18.5t-46.5 8.5q-7 1 -14.5 6.5t-7.5 12.5q0 6 7.5 11t13.5 5q24 0 66 -2q44 -2 70 -2q17 0 49 2t52 2q6 0 12.5 -4t6.5 -12q0 -7 -6.5 -12
t-13.5 -7q-23 -7 -33 -17.5t-13 -31.5q-5 -36 -5 -75v-29q0 -6 3.5 -10.5t4.5 -6.5q2 -3 7 -9t5 -10q0 -17 -16 -19q-9 -2 -28 -12q-48 -23 -98 -38.5t-113 -15.5q-93 0 -173 42.5zM368 712.5q-19 18.5 -19 43.5q0 26 19 44.5t45 18.5q28 0 47 -18.5t19 -44.5t-19 -44
t-47 -18q-26 0 -45 18.5z" />
    <glyph glyph-name="uni0241" unicode="&#x241;" horiz-adv-x="474" 
d="M67 8q0 7 7 11.5t22 7.5q39 7 56.5 22.5t17.5 47.5v138q0 35 20.5 59.5t38 37t21.5 15.5q35 27 56 57.5t21 84.5q0 58 -33.5 98t-86.5 40q-58 0 -86 -30t-43 -74q-5 -12 -13 -25t-16 -19q-2 -2 -4 -2q-5 0 -10.5 7.5t-5.5 16.5q0 24 5.5 67.5t12.5 48.5l30 10
q51 17 87.5 27t72.5 10q60 0 107 -20.5t73.5 -57.5t26.5 -84q0 -50 -20.5 -85.5t-40 -51.5t-66.5 -50q-27 -20 -33.5 -35t-6.5 -45v-138q0 -31 17 -46t56 -24q16 -3 23 -7.5t7 -11.5q0 -12 -25 -12q-36 0 -68 3q-40 2 -60 2q-22 0 -64 -2q-33 -3 -70 -3q-26 0 -26 12z" />
    <glyph glyph-name="uni021C" unicode="&#x21c;" horiz-adv-x="535" 
d="M21.5 -192q-33.5 8 -33.5 25q0 22 12 41t26 19q8 0 28 -16l19 -14q32 -21 71 -21q80 0 138 38.5t87.5 98t29.5 121.5q0 68 -34.5 112.5t-99.5 44.5q-27 0 -48.5 -7t-48.5 -19q-18 -9 -22 -9q-11 0 -19 9.5t-6 18.5q1 8 14 19t23 15q55 23 90.5 47.5t56.5 63.5t21 97
q0 54 -30.5 94t-78.5 40q-66 0 -103 -39q-27 -30 -43 -89q-2 -10 -11 -16.5t-15 -6.5q-4 0 -8.5 7.5t-4.5 15.5q0 37 10 100q3 18 15 22l30 10q47 16 82 25t67 9q55 0 102 -19.5t75 -55t28 -81.5q0 -58 -30.5 -105.5t-77.5 -76.5q-5 -3 -4.5 -7t5.5 -5q88 -4 135 -55.5
t47 -127.5q0 -78 -47.5 -154.5t-139.5 -126.5t-216 -50q-58 0 -91.5 8z" />
    <glyph glyph-name="H" unicode="H" horiz-adv-x="807" 
d="M38 -0.5q-7 3.5 -7 9.5q0 7 6 11t22 7q36 7 48.5 21.5t12.5 49.5v453q0 35 -10 49t-45 21q-15 3 -22 7.5t-7 11.5q0 6 6.5 10t18.5 4q29 0 65 -2q32 -2 50 -2l54 1q38 2 67 2q25 0 25 -13q0 -7 -7 -11.5t-22 -7.5q-38 -8 -52.5 -24t-14.5 -46v-191q0 -11 14 -11h334
q9 0 9 13v189q0 30 -14.5 46t-51.5 24q-15 3 -22 7.5t-7 11.5q0 13 25 13q27 0 69 -2l58 -1q17 0 45 2q34 2 62 2q12 0 19 -4t7 -10q0 -7 -7 -11.5t-22 -7.5q-35 -7 -45 -22t-10 -47v-453q0 -37 10.5 -51t46.5 -21q16 -3 22 -7t6 -11q0 -6 -7.5 -9.5t-18.5 -3.5q-35 0 -64 3
q-32 2 -51 2q-18 0 -54 -2q-30 -3 -67 -3q-11 0 -18 3.5t-7 9.5q0 8 6 11.5t22 6.5q35 8 51.5 24t16.5 46v193q0 15 -8 15h-341q-5 0 -6.5 -2.5t-1.5 -9.5v-189q0 -30 19.5 -49.5t55.5 -27.5q16 -3 22.5 -6.5t6.5 -11.5q0 -6 -7.5 -9.5t-18.5 -3.5q-36 0 -68 3q-40 2 -60 2
q-19 0 -55 -2q-28 -3 -65 -3q-11 0 -18 3.5z" />
    <glyph glyph-name="Hbar" unicode="&#x126;" horiz-adv-x="807" 
d="M768 20q6 -4 6 -11q0 -6 -7.5 -9.5t-18.5 -3.5q-35 0 -64 3q-32 2 -51 2q-18 0 -54 -2q-30 -3 -67 -3q-11 0 -18 3.5t-7 9.5q0 8 6 11.5t22 6.5q35 8 51.5 24t16.5 46v193q0 15 -8 15h-341q-5 0 -6.5 -2.5t-1.5 -9.5v-189q0 -30 19.5 -49.5t55.5 -27.5q16 -3 22.5 -6.5
t6.5 -11.5q0 -6 -7.5 -9.5t-18.5 -3.5q-36 0 -68 3q-40 2 -60 2q-19 0 -55 -2q-28 -3 -65 -3q-11 0 -18 3.5t-7 9.5q0 7 6 11t22 7q36 7 48.5 21.5t12.5 49.5v355h-59q-7 0 -13 7t-6 15q0 10 7.5 16t18.5 6h52v54q0 35 -10 49t-45 21q-15 3 -22 7.5t-7 11.5q0 6 6.5 10
t18.5 4q29 0 65 -2q32 -2 50 -2l54 1q38 2 67 2q25 0 25 -13q0 -7 -7 -11.5t-22 -7.5q-38 -8 -52.5 -24t-14.5 -46v-54h357v54q0 30 -14.5 46t-51.5 24q-15 3 -22 7.5t-7 11.5q0 13 25 13q27 0 69 -2l58 -1q17 0 45 2q34 2 62 2q12 0 19 -4t7 -10q0 -7 -7 -11.5t-22 -7.5
q-35 -7 -45 -22t-10 -47v-55h60q7 0 11.5 -4t4.5 -10q0 -9 -11 -19.5t-23 -10.5h-42v-354q0 -37 10.5 -51t46.5 -21q16 -3 22 -7zM583 362v91h-357v-93q0 -11 14 -11h334q9 0 9 13z" />
    <glyph glyph-name="Hcircumflex" unicode="&#x124;" horiz-adv-x="807" 
d="M38 -0.5q-7 3.5 -7 9.5q0 7 6 11t22 7q36 7 48.5 21.5t12.5 49.5v453q0 35 -10 49t-45 21q-15 3 -22 7.5t-7 11.5q0 6 6.5 10t18.5 4q29 0 65 -2q32 -2 50 -2l54 1q38 2 67 2q25 0 25 -13q0 -7 -7 -11.5t-22 -7.5q-38 -8 -52.5 -24t-14.5 -46v-191q0 -11 14 -11h334
q9 0 9 13v189q0 30 -14.5 46t-51.5 24q-15 3 -22 7.5t-7 11.5q0 13 25 13q27 0 69 -2l58 -1q17 0 45 2q34 2 62 2q12 0 19 -4t7 -10q0 -7 -7 -11.5t-22 -7.5q-35 -7 -45 -22t-10 -47v-453q0 -37 10.5 -51t46.5 -21q16 -3 22 -7t6 -11q0 -6 -7.5 -9.5t-18.5 -3.5q-35 0 -64 3
q-32 2 -51 2q-18 0 -54 -2q-30 -3 -67 -3q-11 0 -18 3.5t-7 9.5q0 8 6 11.5t22 6.5q35 8 51.5 24t16.5 46v193q0 15 -8 15h-341q-5 0 -6.5 -2.5t-1.5 -9.5v-189q0 -30 19.5 -49.5t55.5 -27.5q16 -3 22.5 -6.5t6.5 -11.5q0 -6 -7.5 -9.5t-18.5 -3.5q-36 0 -68 3q-40 2 -60 2
q-19 0 -55 -2q-28 -3 -65 -3q-11 0 -18 3.5zM252 706q0 7 7 13l101 87q17 15 25 19.5t19 4.5t19 -4.5t25 -19.5l101 -87q6 -5 6 -13q0 -12 -15 -12q-10 0 -56 20.5t-69 33.5q-5 4 -11 4t-11 -4q-23 -13 -69 -33t-56 -20q-16 0 -16 11z" />
    <glyph glyph-name="I" unicode="I" horiz-adv-x="348" 
d="M18 8q0 7 7 11.5t22 7.5q39 7 56.5 22.5t17.5 48.5v452q0 34 -14 48.5t-52 22.5q-29 6 -29 20q0 13 25 13q27 0 69 -2q38 -2 58 -2l56 1q38 2 66 2q26 0 26 -12q0 -14 -29 -20q-40 -8 -55 -23t-15 -48v-452q0 -32 17.5 -47t57.5 -24q15 -3 22 -7.5t7 -11.5q0 -12 -25 -12
q-36 0 -68 3q-40 2 -60 2q-22 0 -64 -2q-33 -3 -70 -3q-26 0 -26 12z" />
    <glyph glyph-name="IJ" unicode="&#x132;" horiz-adv-x="698" 
d="M18 8q0 7 7 11.5t22 7.5q39 7 56.5 22.5t17.5 48.5v452q0 34 -14 48.5t-52 22.5q-29 6 -29 20q0 13 25 13q27 0 69 -2q38 -2 58 -2l56 1q38 2 66 2q26 0 26 -12q0 -14 -29 -20q-40 -8 -55 -23t-15 -48v-452q0 -32 17.5 -47t57.5 -24q15 -3 22 -7.5t7 -11.5q0 -12 -25 -12
q-36 0 -68 3q-40 2 -60 2q-22 0 -64 -2q-33 -3 -70 -3q-26 0 -26 12zM303.5 -186.5q-29.5 13.5 -29.5 38.5q0 18 15 34.5t29 16.5q24 0 45 -24q17 -22 26.5 -30t21.5 -8q65 0 65 161v549q0 33 -14.5 47.5t-51.5 22.5q-29 6 -29 20q0 13 26 13q28 0 68 -2q38 -2 58 -2l47 1
q36 2 65 2q25 0 25 -12q0 -14 -29 -20q-37 -8 -48 -22t-11 -48v-490q0 -51 -23.5 -101.5t-56.5 -91.5q-54 -68 -112 -68q-57 0 -86.5 13.5z" />
    <glyph glyph-name="Iacute" unicode="&#xcd;" horiz-adv-x="348" 
d="M18 8q0 7 7 11.5t22 7.5q39 7 56.5 22.5t17.5 48.5v452q0 34 -14 48.5t-52 22.5q-29 6 -29 20q0 13 25 13q27 0 69 -2q38 -2 58 -2l56 1q38 2 66 2q26 0 26 -12q0 -14 -29 -20q-40 -8 -55 -23t-15 -48v-452q0 -32 17.5 -47t57.5 -24q15 -3 22 -7.5t7 -11.5q0 -12 -25 -12
q-36 0 -68 3q-40 2 -60 2q-22 0 -64 -2q-33 -3 -70 -3q-26 0 -26 12zM128 691q0 7 7 17q51 75 88 121q9 13 29 13q15 -1 39.5 -10t23.5 -18q-1 -6 -4 -10t-11 -10q-31 -24 -91 -65q-36 -24 -52 -36q-13 -9 -21 -9t-8 7z" />
    <glyph glyph-name="Ibreve" unicode="&#x12c;" horiz-adv-x="348" 
d="M18 8q0 7 7 11.5t22 7.5q39 7 56.5 22.5t17.5 48.5v452q0 34 -14 48.5t-52 22.5q-29 6 -29 20q0 13 25 13q27 0 69 -2q38 -2 58 -2l56 1q38 2 66 2q26 0 26 -12q0 -14 -29 -20q-40 -8 -55 -23t-15 -48v-452q0 -32 17.5 -47t57.5 -24q15 -3 22 -7.5t7 -11.5q0 -12 -25 -12
q-36 0 -68 3q-40 2 -60 2q-22 0 -64 -2q-33 -3 -70 -3q-26 0 -26 12zM101 708q-32 18 -49 44.5t-17 48.5q0 11 3 18t8 7q6 0 11.5 -4.5t9 -9t5.5 -7.5q21 -25 45.5 -36t57.5 -11t57.5 11t45.5 36q2 3 7 9t9.5 9t9.5 3q7 0 9 -6t2 -19q0 -22 -17 -48.5t-49 -44.5t-74 -18
t-74 18z" />
    <glyph glyph-name="Icircumflex" unicode="&#xce;" horiz-adv-x="348" 
d="M18 8q0 7 7 11.5t22 7.5q39 7 56.5 22.5t17.5 48.5v452q0 34 -14 48.5t-52 22.5q-29 6 -29 20q0 13 25 13q27 0 69 -2q38 -2 58 -2l56 1q38 2 66 2q26 0 26 -12q0 -14 -29 -20q-40 -8 -55 -23t-15 -48v-452q0 -32 17.5 -47t57.5 -24q15 -3 22 -7.5t7 -11.5q0 -12 -25 -12
q-36 0 -68 3q-40 2 -60 2q-22 0 -64 -2q-33 -3 -70 -3q-26 0 -26 12zM23 706q0 7 7 13l101 87q17 15 25 19.5t19 4.5t19 -4.5t25 -19.5l101 -87q6 -5 6 -13q0 -12 -15 -12q-10 0 -56 20.5t-69 33.5q-5 4 -11 4t-11 -4q-23 -13 -69 -33t-56 -20q-16 0 -16 11z" />
    <glyph glyph-name="Idieresis" unicode="&#xcf;" horiz-adv-x="348" 
d="M18 8q0 7 7 11.5t22 7.5q39 7 56.5 22.5t17.5 48.5v452q0 34 -14 48.5t-52 22.5q-29 6 -29 20q0 13 25 13q27 0 69 -2q38 -2 58 -2l56 1q38 2 66 2q26 0 26 -12q0 -14 -29 -20q-40 -8 -55 -23t-15 -48v-452q0 -32 17.5 -47t57.5 -24q15 -3 22 -7.5t7 -11.5q0 -12 -25 -12
q-36 0 -68 3q-40 2 -60 2q-22 0 -64 -2q-33 -3 -70 -3q-26 0 -26 12zM36 709q-17 17 -17 41q0 25 17 41.5t41 16.5q25 0 42 -16.5t17 -41.5q0 -24 -17 -41t-42 -17q-24 0 -41 17zM232 709q-17 17 -17 41q0 25 17 41.5t41 16.5q25 0 41.5 -16.5t16.5 -41.5q0 -24 -16.5 -41
t-41.5 -17q-24 0 -41 17z" />
    <glyph glyph-name="Idotaccent" unicode="&#x130;" horiz-adv-x="348" 
d="M18 8q0 7 7 11.5t22 7.5q39 7 56.5 22.5t17.5 48.5v452q0 34 -14 48.5t-52 22.5q-29 6 -29 20q0 13 25 13q27 0 69 -2q38 -2 58 -2l56 1q38 2 66 2q26 0 26 -12q0 -14 -29 -20q-40 -8 -55 -23t-15 -48v-452q0 -32 17.5 -47t57.5 -24q15 -3 22 -7.5t7 -11.5q0 -12 -25 -12
q-36 0 -68 3q-40 2 -60 2q-22 0 -64 -2q-33 -3 -70 -3q-26 0 -26 12zM130 712.5q-19 18.5 -19 43.5q0 26 19 44.5t45 18.5q28 0 47 -18.5t19 -44.5t-19 -44t-47 -18q-26 0 -45 18.5z" />
    <glyph glyph-name="Igrave" unicode="&#xcc;" horiz-adv-x="348" 
d="M18 8q0 7 7 11.5t22 7.5q39 7 56.5 22.5t17.5 48.5v452q0 34 -14 48.5t-52 22.5q-29 6 -29 20q0 13 25 13q27 0 69 -2q38 -2 58 -2l56 1q38 2 66 2q26 0 26 -12q0 -14 -29 -20q-40 -8 -55 -23t-15 -48v-452q0 -32 17.5 -47t57.5 -24q15 -3 22 -7.5t7 -11.5q0 -12 -25 -12
q-36 0 -68 3q-40 2 -60 2q-22 0 -64 -2q-33 -3 -70 -3q-26 0 -26 12zM185 693q-16 12 -52 36q-60 41 -91 65q-8 6 -11 10t-4 10q-1 9 23.5 18t39.5 10q20 0 29 -13q37 -46 88 -121q7 -10 7 -17t-8 -7t-21 9z" />
    <glyph glyph-name="Imacron" unicode="&#x12a;" horiz-adv-x="348" 
d="M18 8q0 7 7 11.5t22 7.5q39 7 56.5 22.5t17.5 48.5v452q0 34 -14 48.5t-52 22.5q-29 6 -29 20q0 13 25 13q27 0 69 -2q38 -2 58 -2l56 1q38 2 66 2q26 0 26 -12q0 -14 -29 -20q-40 -8 -55 -23t-15 -48v-452q0 -32 17.5 -47t57.5 -24q15 -3 22 -7.5t7 -11.5q0 -12 -25 -12
q-36 0 -68 3q-40 2 -60 2q-22 0 -64 -2q-33 -3 -70 -3q-26 0 -26 12zM28.5 725.5q-4.5 4.5 -4.5 9.5q0 16 7.5 32.5t20.5 16.5h265q6 0 10.5 -4.5t4.5 -9.5q0 -18 -10.5 -33.5t-23.5 -15.5h-258q-7 0 -11.5 4.5z" />
    <glyph glyph-name="Iogonek" unicode="&#x12e;" horiz-adv-x="348" 
d="M18 8q0 7 7 11.5t22 7.5q39 7 56.5 22.5t17.5 48.5v452q0 34 -14 48.5t-52 22.5q-29 6 -29 20q0 13 25 13q27 0 69 -2q38 -2 58 -2l56 1q38 2 66 2q26 0 26 -12q0 -14 -29 -20q-40 -8 -55 -23t-15 -48v-452q0 -32 17.5 -47t57.5 -24q15 -3 22 -7.5t7 -11.5q0 -12 -25 -12
q-36 0 -68 3q-40 2 -60 2q-22 0 -64 -2q-33 -3 -70 -3q-26 0 -26 12zM107 -255q-33 32 -33 81q0 61 59.5 112.5t111.5 79.5h31q-3 -3 -31.5 -27t-52.5 -63.5t-24 -79.5q0 -25 18 -42t44 -17q30 0 52.5 17.5t24.5 19.5q4 2 7 2q9 0 9 -11q0 -22 -20.5 -46.5t-52 -41
t-60.5 -16.5q-50 0 -83 32z" />
    <glyph glyph-name="Itilde" unicode="&#x128;" horiz-adv-x="348" 
d="M18 8q0 7 7 11.5t22 7.5q39 7 56.5 22.5t17.5 48.5v452q0 34 -14 48.5t-52 22.5q-29 6 -29 20q0 13 25 13q27 0 69 -2q38 -2 58 -2l56 1q38 2 66 2q26 0 26 -12q0 -14 -29 -20q-40 -8 -55 -23t-15 -48v-452q0 -32 17.5 -47t57.5 -24q15 -3 22 -7.5t7 -11.5q0 -12 -25 -12
q-36 0 -68 3q-40 2 -60 2q-22 0 -64 -2q-33 -3 -70 -3q-26 0 -26 12zM43 697.5q-6 5.5 -6 10.5q0 6 16 29t34.5 42t29.5 19q28 0 74 -4l21 -1q32 -2 50 -2q20 0 37 19q6 6 12 13t8 7q7 0 14 -5.5t7 -11.5q0 -4 -7 -12t-9 -10q-13 -15 -44 -57q-5 -7 -14.5 -10.5t-15.5 -3.5
t-56 4q-82 5 -88 5q-7 0 -16.5 -4.5t-15.5 -10.5q-7 -7 -12.5 -14.5t-7.5 -7.5q-5 0 -11 5.5z" />
    <glyph glyph-name="J" unicode="J" horiz-adv-x="350" 
d="M-44.5 -186.5q-29.5 13.5 -29.5 38.5q0 18 15 34.5t29 16.5q24 0 45 -24q17 -22 26.5 -30t21.5 -8q65 0 65 161v549q0 33 -14.5 47.5t-51.5 22.5q-29 6 -29 20q0 13 26 13q28 0 68 -2q38 -2 58 -2l47 1q36 2 65 2q25 0 25 -12q0 -14 -29 -20q-37 -8 -48 -22t-11 -48v-490
q0 -51 -23.5 -101.5t-56.5 -91.5q-54 -68 -112 -68q-57 0 -86.5 13.5z" />
    <glyph glyph-name="Jcircumflex" unicode="&#x134;" horiz-adv-x="350" 
d="M-44.5 -186.5q-29.5 13.5 -29.5 38.5q0 18 15 34.5t29 16.5q24 0 45 -24q17 -22 26.5 -30t21.5 -8q65 0 65 161v549q0 33 -14.5 47.5t-51.5 22.5q-29 6 -29 20q0 13 26 13q28 0 68 -2q38 -2 58 -2l47 1q36 2 65 2q25 0 25 -12q0 -14 -29 -20q-37 -8 -48 -22t-11 -48v-490
q0 -51 -23.5 -101.5t-56.5 -91.5q-54 -68 -112 -68q-57 0 -86.5 13.5zM24 706q0 7 7 13l101 87q17 15 25 19.5t19 4.5t19 -4.5t25 -19.5l101 -87q6 -5 6 -13q0 -12 -15 -12q-10 0 -56 20.5t-69 33.5q-5 4 -11 4t-11 -4q-23 -13 -69 -33t-56 -20q-16 0 -16 11z" />
    <glyph glyph-name="K" unicode="K" horiz-adv-x="710" 
d="M34.5 -1.5q-8.5 3.5 -8.5 9.5q0 7 7.5 11.5t23.5 7.5q38 7 51.5 22t13.5 51v451q0 33 -14 47.5t-53 22.5q-29 6 -29 20q0 6 7.5 9.5t18.5 3.5q27 0 67 -2l56 -1q32 0 48 1l66 1q25 0 25 -12q0 -14 -29 -20q-36 -8 -46.5 -23t-10.5 -47v-193q0 -6 2 -12t5 -6q9 0 26 17
l197 205q17 17 17 31q0 19 -27 25q-15 4 -21.5 9t-6.5 12q0 6 7.5 9t18.5 3h59q42 0 112 2l63 2q10 0 16.5 -3.5t6.5 -8.5q0 -15 -32 -21q-94 -15 -152 -64q-47 -39 -88 -79t-98 -100q-3 -3 -3 -8q0 -7 7 -14l241 -261q31 -34 49.5 -47t57.5 -22q18 -4 25.5 -8t7.5 -11
q0 -13 -33 -13q-21 0 -43.5 1.5t-33.5 1.5q-36 3 -76 3l-39 -1q-30 -2 -57 -2q-26 0 -26 13q0 12 25 18q32 7 32 23q0 10 -15 27l-195 219q-16 16 -23 16q-6 0 -6 -19q0 -89 4 -188q2 -35 14.5 -53.5t47.5 -26.5q16 -3 23.5 -7.5t7.5 -11.5q0 -6 -8 -9.5t-21 -3.5
q-39 0 -67 5q-7 0 -19.5 1.5t-24.5 1.5q-21 0 -57 -4q-42 -4 -73 -4q-12 0 -20.5 3.5z" />
    <glyph glyph-name="L" unicode="L" horiz-adv-x="585" 
d="M31.5 -1q-6.5 4 -6.5 9q0 11 21 18q40 9 57.5 24t17.5 46v461q0 24 -5 35.5t-17 17.5t-40 11q-29 6 -29 20q0 13 26 13q27 0 67 -2q36 -2 56 -2l64 1q44 2 70 2q25 0 25 -12q0 -14 -29 -20q-45 -10 -63.5 -21t-18.5 -38v-463q0 -31 14.5 -44.5t54.5 -13.5h116
q24 0 43.5 7.5t32.5 18.5q18 17 29 32.5t23 41.5q8 16 13 23.5t11 7.5t9.5 -6t3.5 -13q0 -3 -1 -5.5t-1 -5.5q-14 -50 -19.5 -74.5t-8.5 -54.5q-2 -18 -15 -18q-52 0 -172 2q-88 3 -172 3q-47 0 -107 -4l-31 -1q-12 0 -18.5 4z" />
    <glyph glyph-name="Lacute" unicode="&#x139;" horiz-adv-x="585" 
d="M31.5 -1q-6.5 4 -6.5 9q0 11 21 18q40 9 57.5 24t17.5 46v461q0 24 -5 35.5t-17 17.5t-40 11q-29 6 -29 20q0 13 26 13q27 0 67 -2q36 -2 56 -2l64 1q44 2 70 2q25 0 25 -12q0 -14 -29 -20q-45 -10 -63.5 -21t-18.5 -38v-463q0 -31 14.5 -44.5t54.5 -13.5h116
q24 0 43.5 7.5t32.5 18.5q18 17 29 32.5t23 41.5q8 16 13 23.5t11 7.5t9.5 -6t3.5 -13q0 -3 -1 -5.5t-1 -5.5q-14 -50 -19.5 -74.5t-8.5 -54.5q-2 -18 -15 -18q-52 0 -172 2q-88 3 -172 3q-47 0 -107 -4l-31 -1q-12 0 -18.5 4zM140 691q0 7 7 17q51 75 88 121q9 13 29 13
q15 -1 39.5 -10t23.5 -18q-1 -6 -4 -10t-11 -10q-31 -24 -91 -65q-36 -24 -52 -36q-13 -9 -21 -9t-8 7z" />
    <glyph glyph-name="Lcaron" unicode="&#x13d;" horiz-adv-x="585" 
d="M31.5 -1q-6.5 4 -6.5 9q0 11 21 18q40 9 57.5 24t17.5 46v461q0 24 -5 35.5t-17 17.5t-40 11q-29 6 -29 20q0 13 26 13q27 0 67 -2q36 -2 56 -2l64 1q44 2 70 2q25 0 25 -12q0 -14 -29 -20q-45 -10 -63.5 -21t-18.5 -38v-463q0 -31 14.5 -44.5t54.5 -13.5h116
q24 0 43.5 7.5t32.5 18.5q18 17 29 32.5t23 41.5q8 16 13 23.5t11 7.5t9.5 -6t3.5 -13q0 -3 -1 -5.5t-1 -5.5q-14 -50 -19.5 -74.5t-8.5 -54.5q-2 -18 -15 -18q-52 0 -172 2q-88 3 -172 3q-47 0 -107 -4l-31 -1q-12 0 -18.5 4zM410.5 468q-2.5 7 -2.5 17q0 6 2 26.5t2 30.5
q0 26 -4 54q-2 18 -2 24q0 16 20.5 33.5t39.5 17.5q10 0 13 -8t3 -24q0 -30 -12 -75.5t-28 -75.5q-14 -27 -25 -27q-4 0 -6.5 7z" />
    <glyph glyph-name="Ldot" unicode="&#x13f;" horiz-adv-x="585" 
d="M31.5 -1q-6.5 4 -6.5 9q0 11 21 18q40 9 57.5 24t17.5 46v461q0 24 -5 35.5t-17 17.5t-40 11q-29 6 -29 20q0 13 26 13q27 0 67 -2q36 -2 56 -2l64 1q44 2 70 2q25 0 25 -12q0 -14 -29 -20q-45 -10 -63.5 -21t-18.5 -38v-463q0 -31 14.5 -44.5t54.5 -13.5h116
q24 0 43.5 7.5t32.5 18.5q18 17 29 32.5t23 41.5q8 16 13 23.5t11 7.5t9.5 -6t3.5 -13q0 -3 -1 -5.5t-1 -5.5q-14 -50 -19.5 -74.5t-8.5 -54.5q-2 -18 -15 -18q-52 0 -172 2q-88 3 -172 3q-47 0 -107 -4l-31 -1q-12 0 -18.5 4zM418.5 317.5q-17.5 17.5 -17.5 42.5
q0 26 17.5 43.5t42.5 17.5q26 0 44 -17.5t18 -43.5q0 -25 -18 -42.5t-44 -17.5q-25 0 -42.5 17.5z" />
    <glyph glyph-name="Lslash" unicode="&#x141;" horiz-adv-x="585" 
d="M573.5 166q3.5 -6 3.5 -13q0 -3 -1 -5.5t-1 -5.5q-14 -50 -19.5 -74.5t-8.5 -54.5q-2 -18 -15 -18q-52 0 -172 2q-88 3 -172 3q-47 0 -107 -4l-31 -1q-12 0 -18.5 4t-6.5 9q0 11 21 18q40 9 57.5 24t17.5 46v181l-61 -22q-3 -1 -10 -1q-14 0 -14 9q0 14 4.5 24.5
t12.5 13.5l68 25v231q0 24 -5 35.5t-17 17.5t-40 11q-29 6 -29 20q0 13 26 13q27 0 67 -2q36 -2 56 -2l64 1q44 2 70 2q25 0 25 -12q0 -14 -29 -20q-45 -10 -63.5 -21t-18.5 -38v-204l147 53q6 2 8 2q5 0 9 -3t4 -8q0 -16 -6 -26.5t-17 -14.5l-145 -52v-210
q0 -31 14.5 -44.5t54.5 -13.5h116q24 0 43.5 7.5t32.5 18.5q18 17 29 32.5t23 41.5q8 16 13 23.5t11 7.5t9.5 -6z" />
    <glyph glyph-name="M" unicode="M" horiz-adv-x="907" 
d="M19 8q0 7 7 10.5t25 7.5q25 5 41 25t21 53q34 270 40 421q0 21 -1 33q0 24 -18 37q-14 12 -29 17.5t-39 10.5q-11 2 -17.5 7.5t-6.5 12.5q0 8 8 10.5t24 2.5q15 0 34 -1t39 -2q68 -4 91 -4q7 0 13 -5t8 -12q7 -22 8 -29q13 -42 15 -47l154 -383q3 -8 11 -8q5 0 8 6
l178 383l19 81q3 13 12 13h38q18 0 81 5q40 4 49 4q23 0 23 -12q0 -7 -5.5 -11t-19.5 -10q-16 -5 -48 -19q-17 -8 -25 -18.5t-8 -27.5q0 -95 3.5 -170.5t11.5 -176.5l8 -116q1 -29 19.5 -45.5t54.5 -23.5q15 -3 22 -7.5t7 -11.5q0 -12 -26 -12q-37 0 -69 3q-40 2 -61 2
q-18 0 -52 -2q-28 -3 -66 -3q-26 0 -26 12q0 14 29 19q32 5 44 20t12 49q-2 156 -12 345l-1 21q0 9 -4 9q-3 0 -10 -10l-216 -464q-3 -8 -10 -8q-8 0 -11 8q-51 137 -148 368l-42 100q-2 5 -8 5t-7 -8q-23 -193 -23 -359q0 -28 18 -48.5t50 -27.5q16 -3 24 -7.5t8 -11.5
q0 -12 -28 -12q-31 0 -57 2q-24 2 -40 2q-19 0 -49 -2q-28 -2 -47 -2q-28 0 -28 12z" />
    <glyph glyph-name="N" unicode="N" horiz-adv-x="798" 
d="M631 -1q-27 17 -50 49l-108 124q-246 283 -267 306q-11 15 -18 15q-4 0 -6 -6.5t-2 -14.5q-2 -192 -2 -365q0 -66 70 -80q31 -7 31 -19t-28 -12q-30 0 -60 2q-24 2 -40 2q-20 0 -46 -2t-45 -2q-28 0 -28 12q0 7 7 11t24 9q50 14 55 81q7 68 13 177t6 221q0 49 -24 73
t-72 40q-9 3 -19.5 9t-10.5 14t7.5 11.5t16.5 3.5q42 0 75 -3q54 -2 94 -2q7 0 11.5 -3.5t10.5 -11.5l117 -140q64 -76 140 -166.5t129 -152.5q15 -18 22 -18q9 0 10 19v226v155q-1 21 -20 36.5t-44 21.5q-16 3 -27 8t-11 12q0 6 11 9t24 3h71l49 1q32 2 64 2q27 0 27 -13
q0 -14 -31 -20q-36 -7 -49 -18.5t-14 -37.5q-5 -270 -5 -441q0 -28 5 -83l2 -27q0 -32 -24 -32q-14 0 -41 17z" />
    <glyph glyph-name="Nacute" unicode="&#x143;" horiz-adv-x="798" 
d="M631 -1q-27 17 -50 49l-108 124q-246 283 -267 306q-11 15 -18 15q-4 0 -6 -6.5t-2 -14.5q-2 -192 -2 -365q0 -66 70 -80q31 -7 31 -19t-28 -12q-30 0 -60 2q-24 2 -40 2q-20 0 -46 -2t-45 -2q-28 0 -28 12q0 7 7 11t24 9q50 14 55 81q7 68 13 177t6 221q0 49 -24 73
t-72 40q-9 3 -19.5 9t-10.5 14t7.5 11.5t16.5 3.5q42 0 75 -3q54 -2 94 -2q7 0 11.5 -3.5t10.5 -11.5l117 -140q64 -76 140 -166.5t129 -152.5q15 -18 22 -18q9 0 10 19v226v155q-1 21 -20 36.5t-44 21.5q-16 3 -27 8t-11 12q0 6 11 9t24 3h71l49 1q32 2 64 2q27 0 27 -13
q0 -14 -31 -20q-36 -7 -49 -18.5t-14 -37.5q-5 -270 -5 -441q0 -28 5 -83l2 -27q0 -32 -24 -32q-14 0 -41 17zM366 691q0 7 7 17q51 75 88 121q9 13 29 13q15 -1 39.5 -10t23.5 -18q-1 -6 -4 -10t-11 -10q-31 -24 -91 -65q-36 -24 -52 -36q-13 -9 -21 -9t-8 7z" />
    <glyph glyph-name="Ncaron" unicode="&#x147;" horiz-adv-x="798" 
d="M631 -1q-27 17 -50 49l-108 124q-246 283 -267 306q-11 15 -18 15q-4 0 -6 -6.5t-2 -14.5q-2 -192 -2 -365q0 -66 70 -80q31 -7 31 -19t-28 -12q-30 0 -60 2q-24 2 -40 2q-20 0 -46 -2t-45 -2q-28 0 -28 12q0 7 7 11t24 9q50 14 55 81q7 68 13 177t6 221q0 49 -24 73
t-72 40q-9 3 -19.5 9t-10.5 14t7.5 11.5t16.5 3.5q42 0 75 -3q54 -2 94 -2q7 0 11.5 -3.5t10.5 -11.5l117 -140q64 -76 140 -166.5t129 -152.5q15 -18 22 -18q9 0 10 19v226v155q-1 21 -20 36.5t-44 21.5q-16 3 -27 8t-11 12q0 6 11 9t24 3h71l49 1q32 2 64 2q27 0 27 -13
q0 -14 -31 -20q-36 -7 -49 -18.5t-14 -37.5q-5 -270 -5 -441q0 -28 5 -83l2 -27q0 -32 -24 -32q-14 0 -41 17zM334 811q46 -20 69 -33q8 -4 11 -4t11 4q23 13 69 33.5t56 20.5q15 0 15 -12q0 -8 -6 -13l-101 -83q-19 -16 -26 -20.5t-18 -4.5t-18 4.5t-26 20.5l-101 83
q-7 6 -7 13q0 11 16 11q10 0 56 -20z" />
    <glyph glyph-name="Eng" unicode="&#x14a;" horiz-adv-x="777" 
d="M481.5 -239q-21.5 22 -21.5 56q0 14 5.5 19.5t23.5 6.5q55 5 84.5 16.5t40.5 31.5t11 52q0 34 -22 63l-387 467q-12 14 -19 14q-4 0 -6 -6.5t-2 -13.5q-5 -242 -5 -360q0 -66 70 -80q16 -3 23.5 -7.5t7.5 -11.5q0 -12 -27 -12q-32 0 -60 2q-24 2 -41 2q-20 0 -46 -2
q-28 -2 -48 -2q-27 0 -27 12q0 7 7.5 11.5t22.5 7.5q24 5 39 32.5t17 49.5q7 63 12 173.5t5 225.5q0 49 -23 72.5t-71 39.5q-9 2 -19.5 8.5t-10.5 14.5t7.5 11.5t16.5 3.5q30 0 74 -2q42 -3 96 -3q7 0 12 -4t11 -11q309 -389 367 -458q1 -1 8.5 -9t13.5 -8q9 0 9 19
q2 68 2 377q0 21 -18.5 37.5t-43.5 22.5q-30 5 -30 20q0 6 7.5 9t19.5 3h71l49 1q32 2 63 2q28 0 28 -13q0 -14 -31 -20q-37 -7 -50.5 -18.5t-13.5 -37.5l-1 -545q0 -72 -18.5 -137t-52 -104.5t-74.5 -39.5q-34 0 -55.5 22z" />
    <glyph glyph-name="Ntilde" unicode="&#xd1;" horiz-adv-x="798" 
d="M631 -1q-27 17 -50 49l-108 124q-246 283 -267 306q-11 15 -18 15q-4 0 -6 -6.5t-2 -14.5q-2 -192 -2 -365q0 -66 70 -80q31 -7 31 -19t-28 -12q-30 0 -60 2q-24 2 -40 2q-20 0 -46 -2t-45 -2q-28 0 -28 12q0 7 7 11t24 9q50 14 55 81q7 68 13 177t6 221q0 49 -24 73
t-72 40q-9 3 -19.5 9t-10.5 14t7.5 11.5t16.5 3.5q42 0 75 -3q54 -2 94 -2q7 0 11.5 -3.5t10.5 -11.5l117 -140q64 -76 140 -166.5t129 -152.5q15 -18 22 -18q9 0 10 19v226v155q-1 21 -20 36.5t-44 21.5q-16 3 -27 8t-11 12q0 6 11 9t24 3h71l49 1q32 2 64 2q27 0 27 -13
q0 -14 -31 -20q-36 -7 -49 -18.5t-14 -37.5q-5 -270 -5 -441q0 -28 5 -83l2 -27q0 -32 -24 -32q-14 0 -41 17zM281 697.5q-6 5.5 -6 10.5q0 6 16 29t34.5 42t29.5 19q28 0 74 -4l21 -1q32 -2 50 -2q20 0 37 19q6 6 12 13t8 7q7 0 14 -5.5t7 -11.5q0 -4 -7 -12t-9 -10
q-13 -15 -44 -57q-5 -7 -14.5 -10.5t-15.5 -3.5t-56 4q-82 5 -88 5q-7 0 -16.5 -4.5t-15.5 -10.5q-7 -7 -12.5 -14.5t-7.5 -7.5q-5 0 -11 5.5z" />
    <glyph glyph-name="O" unicode="O" horiz-adv-x="762" 
d="M209.5 27.5q-77.5 41.5 -124 116.5t-46.5 171q0 92 40.5 172t119 128.5t186.5 48.5q90 0 167.5 -41.5t124 -116.5t46.5 -171q0 -92 -40.5 -172t-119 -128.5t-187.5 -48.5q-89 0 -166.5 41.5zM548 97q54 69 54 188q0 92 -26.5 168t-79 121.5t-128.5 45.5
q-101 0 -154.5 -68.5t-53.5 -185.5q0 -92 26 -169t78.5 -123t127.5 -46q102 0 156 69z" />
    <glyph glyph-name="Oacute" unicode="&#xd3;" horiz-adv-x="762" 
d="M209.5 27.5q-77.5 41.5 -124 116.5t-46.5 171q0 92 40.5 172t119 128.5t186.5 48.5q90 0 167.5 -41.5t124 -116.5t46.5 -171q0 -92 -40.5 -172t-119 -128.5t-187.5 -48.5q-89 0 -166.5 41.5zM548 97q54 69 54 188q0 92 -26.5 168t-79 121.5t-128.5 45.5
q-101 0 -154.5 -68.5t-53.5 -185.5q0 -92 26 -169t78.5 -123t127.5 -46q102 0 156 69zM344 691q0 7 7 17q51 75 88 121q9 13 29 13q15 -1 39.5 -10t23.5 -18q-1 -6 -4 -10t-11 -10q-31 -24 -91 -65q-36 -24 -52 -36q-13 -9 -21 -9t-8 7z" />
    <glyph glyph-name="Obreve" unicode="&#x14e;" horiz-adv-x="762" 
d="M209.5 27.5q-77.5 41.5 -124 116.5t-46.5 171q0 92 40.5 172t119 128.5t186.5 48.5q90 0 167.5 -41.5t124 -116.5t46.5 -171q0 -92 -40.5 -172t-119 -128.5t-187.5 -48.5q-89 0 -166.5 41.5zM548 97q54 69 54 188q0 92 -26.5 168t-79 121.5t-128.5 45.5
q-101 0 -154.5 -68.5t-53.5 -185.5q0 -92 26 -169t78.5 -123t127.5 -46q102 0 156 69zM317 708q-32 18 -49 44.5t-17 48.5q0 11 3 18t8 7q6 0 11.5 -4.5t9 -9t5.5 -7.5q21 -25 45.5 -36t57.5 -11t57.5 11t45.5 36q2 3 7 9t9.5 9t9.5 3q7 0 9 -6t2 -19q0 -22 -17 -48.5
t-49 -44.5t-74 -18t-74 18z" />
    <glyph glyph-name="Ocircumflex" unicode="&#xd4;" horiz-adv-x="762" 
d="M209.5 27.5q-77.5 41.5 -124 116.5t-46.5 171q0 92 40.5 172t119 128.5t186.5 48.5q90 0 167.5 -41.5t124 -116.5t46.5 -171q0 -92 -40.5 -172t-119 -128.5t-187.5 -48.5q-89 0 -166.5 41.5zM548 97q54 69 54 188q0 92 -26.5 168t-79 121.5t-128.5 45.5
q-101 0 -154.5 -68.5t-53.5 -185.5q0 -92 26 -169t78.5 -123t127.5 -46q102 0 156 69zM239 706q0 7 7 13l101 87q17 15 25 19.5t19 4.5t19 -4.5t25 -19.5l101 -87q6 -5 6 -13q0 -12 -15 -12q-10 0 -56 20.5t-69 33.5q-5 4 -11 4t-11 -4q-23 -13 -69 -33t-56 -20
q-16 0 -16 11z" />
    <glyph glyph-name="Odieresis" unicode="&#xd6;" horiz-adv-x="762" 
d="M209.5 27.5q-77.5 41.5 -124 116.5t-46.5 171q0 92 40.5 172t119 128.5t186.5 48.5q90 0 167.5 -41.5t124 -116.5t46.5 -171q0 -92 -40.5 -172t-119 -128.5t-187.5 -48.5q-89 0 -166.5 41.5zM548 97q54 69 54 188q0 92 -26.5 168t-79 121.5t-128.5 45.5
q-101 0 -154.5 -68.5t-53.5 -185.5q0 -92 26 -169t78.5 -123t127.5 -46q102 0 156 69zM252 709q-17 17 -17 41q0 25 17 41.5t41 16.5q25 0 42 -16.5t17 -41.5q0 -24 -17 -41t-42 -17q-24 0 -41 17zM448 709q-17 17 -17 41q0 25 17 41.5t41 16.5q25 0 41.5 -16.5t16.5 -41.5
q0 -24 -16.5 -41t-41.5 -17q-24 0 -41 17z" />
    <glyph glyph-name="Ograve" unicode="&#xd2;" horiz-adv-x="762" 
d="M209.5 27.5q-77.5 41.5 -124 116.5t-46.5 171q0 92 40.5 172t119 128.5t186.5 48.5q90 0 167.5 -41.5t124 -116.5t46.5 -171q0 -92 -40.5 -172t-119 -128.5t-187.5 -48.5q-89 0 -166.5 41.5zM548 97q54 69 54 188q0 92 -26.5 168t-79 121.5t-128.5 45.5
q-101 0 -154.5 -68.5t-53.5 -185.5q0 -92 26 -169t78.5 -123t127.5 -46q102 0 156 69zM401 693q-16 12 -52 36q-60 41 -91 65q-8 6 -11 10t-4 10q-1 9 23.5 18t39.5 10q20 0 29 -13q37 -46 88 -121q7 -10 7 -17t-8 -7t-21 9z" />
    <glyph glyph-name="Ohorn" unicode="&#x1a0;" horiz-adv-x="762" 
d="M211.5 29.5q-78.5 43.5 -125.5 120t-47 169.5q0 92 40.5 171t118.5 126.5t185 47.5q62 0 105.5 -12t89.5 -34q7 -3 27.5 -13.5t37.5 -16t32 -5.5q17 0 28 8.5t11 19.5q0 17 -21 27q-12 5 -18 10.5t-6 16.5q0 19 25 40t45 21q15 0 29 -23t14 -45q0 -46 -32 -80.5
t-78 -38.5q-9 0 -12 -4.5t0 -8.5q32 -46 47.5 -90t15.5 -101q0 -92 -40 -172t-118 -128.5t-185 -48.5q-90 0 -168.5 43.5zM548 100.5q53 72.5 53 198.5q0 92 -26 165t-77.5 115t-125.5 42q-66 0 -113.5 -36t-72.5 -97t-25 -133q0 -85 29 -160t82 -121t122 -46
q101 0 154 72.5z" />
    <glyph glyph-name="Ohungarumlaut" unicode="&#x150;" horiz-adv-x="762" 
d="M209.5 27.5q-77.5 41.5 -124 116.5t-46.5 171q0 92 40.5 172t119 128.5t186.5 48.5q90 0 167.5 -41.5t124 -116.5t46.5 -171q0 -92 -40.5 -172t-119 -128.5t-187.5 -48.5q-89 0 -166.5 41.5zM548 97q54 69 54 188q0 92 -26.5 168t-79 121.5t-128.5 45.5
q-101 0 -154.5 -68.5t-53.5 -185.5q0 -92 26 -169t78.5 -123t127.5 -46q102 0 156 69zM412 691q0 7 7 17q51 75 88 121q9 13 29 13q15 -1 39.5 -10t23.5 -18q-1 -6 -4 -10t-11 -10q-31 -24 -91 -65q-36 -24 -52 -36q-13 -9 -21 -9t-8 7zM269 691q0 7 7 17q51 75 88 121
q9 13 29 13q15 -1 39.5 -10t23.5 -18q-1 -6 -4 -10t-11 -10q-31 -24 -91 -65q-36 -24 -52 -36q-13 -9 -21 -9t-8 7z" />
    <glyph glyph-name="Omacron" unicode="&#x14c;" horiz-adv-x="762" 
d="M209.5 27.5q-77.5 41.5 -124 116.5t-46.5 171q0 92 40.5 172t119 128.5t186.5 48.5q90 0 167.5 -41.5t124 -116.5t46.5 -171q0 -92 -40.5 -172t-119 -128.5t-187.5 -48.5q-89 0 -166.5 41.5zM548 97q54 69 54 188q0 92 -26.5 168t-79 121.5t-128.5 45.5
q-101 0 -154.5 -68.5t-53.5 -185.5q0 -92 26 -169t78.5 -123t127.5 -46q102 0 156 69zM244.5 725.5q-4.5 4.5 -4.5 9.5q0 16 7.5 32.5t20.5 16.5h265q6 0 10.5 -4.5t4.5 -9.5q0 -18 -10.5 -33.5t-23.5 -15.5h-258q-7 0 -11.5 4.5z" />
    <glyph glyph-name="Oslash" unicode="&#xd8;" horiz-adv-x="769" 
d="M648 545q36 -42 55.5 -95.5t19.5 -114.5q0 -92 -40.5 -172t-119 -128.5t-187.5 -48.5q-60 0 -117 20t-102 56l-73 -72q-6 -4 -12 -4q-13 0 -23.5 8t-10.5 17q0 13 12 25l67 65q-37 43 -57.5 97.5t-20.5 116.5q0 92 40.5 172t119 128.5t186.5 48.5q63 0 122 -21.5
t106 -61.5l78 76q5 6 13 6q5 0 10 -3t6 -7q4 -12 4 -19q0 -15 -9 -23zM194 176l352 340q-30 49 -75 76.5t-103 27.5q-101 0 -154.5 -68.5t-53.5 -185.5q0 -109 34 -190zM570 468l-349 -343q30 -46 73 -71.5t98 -25.5q102 0 156 69t54 188q0 102 -32 183z" />
    <glyph glyph-name="Oslashacute" unicode="&#x1fe;" horiz-adv-x="769" 
d="M648 545q36 -42 55.5 -95.5t19.5 -114.5q0 -92 -40.5 -172t-119 -128.5t-187.5 -48.5q-60 0 -117 20t-102 56l-73 -72q-6 -4 -12 -4q-13 0 -23.5 8t-10.5 17q0 13 12 25l67 65q-37 43 -57.5 97.5t-20.5 116.5q0 92 40.5 172t119 128.5t186.5 48.5q63 0 122 -21.5
t106 -61.5l78 76q5 6 13 6q5 0 10 -3t6 -7q4 -12 4 -19q0 -15 -9 -23zM194 176l352 340q-30 49 -75 76.5t-103 27.5q-101 0 -154.5 -68.5t-53.5 -185.5q0 -109 34 -190zM570 468l-349 -343q30 -46 73 -71.5t98 -25.5q102 0 156 69t54 188q0 102 -32 183zM344 691q0 7 7 17
q51 75 88 121q9 13 29 13q15 -1 39.5 -10t23.5 -18q-1 -6 -4 -10t-11 -10q-31 -24 -91 -65q-36 -24 -52 -36q-13 -9 -21 -9t-8 7z" />
    <glyph glyph-name="Otilde" unicode="&#xd5;" horiz-adv-x="762" 
d="M209.5 27.5q-77.5 41.5 -124 116.5t-46.5 171q0 92 40.5 172t119 128.5t186.5 48.5q90 0 167.5 -41.5t124 -116.5t46.5 -171q0 -92 -40.5 -172t-119 -128.5t-187.5 -48.5q-89 0 -166.5 41.5zM548 97q54 69 54 188q0 92 -26.5 168t-79 121.5t-128.5 45.5
q-101 0 -154.5 -68.5t-53.5 -185.5q0 -92 26 -169t78.5 -123t127.5 -46q102 0 156 69zM259 697.5q-6 5.5 -6 10.5q0 6 16 29t34.5 42t29.5 19q28 0 74 -4l21 -1q32 -2 50 -2q20 0 37 19q6 6 12 13t8 7q7 0 14 -5.5t7 -11.5q0 -4 -7 -12t-9 -10q-13 -15 -44 -57
q-5 -7 -14.5 -10.5t-15.5 -3.5t-56 4q-82 5 -88 5q-7 0 -16.5 -4.5t-15.5 -10.5q-7 -7 -12.5 -14.5t-7.5 -7.5q-5 0 -11 5.5z" />
    <glyph glyph-name="OE" unicode="&#x152;" horiz-adv-x="961" 
d="M939 131q0 -16 -10 -52.5t-21 -67.5q-7 -16 -17 -16q-70 0 -150 3q-27 1 -69.5 2t-98.5 1q-29 0 -58 -3q-7 0 -22.5 -1.5t-29.5 -1.5q-40 -9 -87 -9q-89 0 -166.5 41.5t-124 116.5t-46.5 171q0 92 40.5 172t119 128.5t186.5 48.5q46 0 85 -10q25 0 65 -2q56 -2 87 -2
q67 0 165 2q33 0 56.5 1.5t26.5 1.5q7 0 13 -3t7 -9l5 -30q11 -57 11 -82q0 -9 -4.5 -13t-9.5 -4q-10 0 -14 12q-1 4 -6.5 19.5t-10.5 25.5t-10 16q-27 28 -68 28h-112q-14 0 -28 -10.5t-14 -25.5v-204q0 -10 6 -16t15 -6h94q27 0 38.5 12t19.5 41q7 20 19 20q5 0 9 -5
t4 -13q-4 -56 -4 -73q0 -37 3 -79v-4q0 -16 -9 -16q-16 0 -24 29q-7 27 -17.5 39.5t-29.5 12.5h-93q-17 0 -24 -5.5t-7 -20.5v-191q0 -34 14.5 -48t46.5 -14h79q58 0 85 19q16 11 29 29t28 49q8 13 17 12q11 0 11 -16zM221.5 116.5q59.5 -85.5 168.5 -85.5q63 0 95 12.5
t38 49.5v5v428q-6 53 -47 72.5t-106 19.5q-101 0 -154.5 -73t-53.5 -200q0 -143 59.5 -228.5z" />
    <glyph glyph-name="P" unicode="P" horiz-adv-x="571" 
d="M21 8q0 7 7 11.5t22 7.5q39 7 55 22.5t16 49.5v431q0 43 -12.5 63.5t-47.5 27.5q-30 6 -30 20q0 6 7.5 9.5t18.5 3.5q29 0 63 -2l49 -1q21 0 61 4q38 4 59 4q118 0 187.5 -49t69.5 -135q0 -64 -25.5 -115.5t-77 -82t-127.5 -30.5q-22 0 -35 6.5t-13 14.5q0 5 6 10t11 5
t17 -1.5t27 -1.5q53 0 81 48t28 134q0 81 -40 122t-109 41q-61 0 -61 -45l-1 -473q0 -35 16.5 -54t54.5 -26q15 -3 22 -7.5t7 -11.5q0 -12 -26 -12q-10 0 -67 3q-25 3 -51 3q-34 0 -66 -3q-10 0 -31 -1.5t-39 -1.5q-26 0 -26 12z" />
    <glyph glyph-name="Thorn" unicode="&#xde;" horiz-adv-x="570" 
d="M20 8q0 7 7 11.5t22 7.5q40 7 57.5 22.5t17.5 48.5v452q0 32 -11.5 48t-47.5 23q-29 6 -29 20q0 13 25 13q30 0 66 -2q34 -2 52 -2l60 1q42 2 69 2q25 0 25 -12q0 -14 -29 -20q-40 -9 -56.5 -23t-17.5 -46v-14q0 -6 1 -11t5 -5l12.5 2.5t10.5 2.5q29 7 74 7
q57 0 103 -22.5t73 -66t27 -104.5q0 -70 -35.5 -117.5t-95 -71t-131.5 -23.5q-8 0 -18.5 1.5t-17.5 1.5q-8 0 -8 -9v-26q0 -30 18 -45.5t57 -24.5q15 -3 22 -7.5t7 -11.5q0 -12 -25 -12q-37 0 -69 3q-38 2 -59 2q-23 0 -65 -2q-33 -3 -70 -3q-26 0 -26 12zM387.5 207.5
q38.5 46.5 38.5 127.5q0 73 -30.5 119.5t-88.5 46.5q-46 0 -61.5 -15t-15.5 -61v-203q0 -32 13.5 -46.5t33.5 -14.5q72 0 110.5 46.5z" />
    <glyph glyph-name="Q" unicode="Q" horiz-adv-x="762" 
d="M618.5 -228.5q-55.5 19.5 -106.5 56.5l-17 12q-81 57 -133 101q-50 42 -114 69q-91 40 -150 113.5t-59 191.5q0 92 40.5 172t119 128.5t186.5 48.5q90 0 167.5 -41.5t124 -116.5t46.5 -171q0 -75 -26.5 -142t-79 -117t-126.5 -73q-9 -3 -9 -8q0 -4 5 -9q50 -53 120 -106
q49 -36 92 -51t96 -15q34 0 49 5q9 3 20 3q17 0 17 -12q0 -9 -4 -14.5t-15 -12.5q-52 -31 -123 -31q-65 0 -120.5 19.5zM548.5 97q53.5 68 53.5 188q0 93 -26.5 168.5t-79 120.5t-128.5 45q-101 0 -154.5 -67.5t-53.5 -185.5q0 -93 26 -169.5t78.5 -122t127.5 -45.5
q103 0 156.5 68z" />
    <glyph glyph-name="R" unicode="R" horiz-adv-x="730" 
d="M548.5 -5q-37.5 16 -64.5 51q-41 51 -71 94t-72 114q-13 24 -37 37q-25 12 -63 17q-14 0 -14 -20v-181q0 -33 16.5 -53t54.5 -27q15 -3 22 -7.5t7 -11.5q0 -12 -26 -12q-10 0 -67 3q-25 3 -51 3q-34 0 -66 -3q-10 0 -31 -1.5t-39 -1.5q-26 0 -26 12q0 7 7 11.5t22 7.5
q39 7 55 22.5t16 49.5v434q0 36 -4 52.5t-16 24t-40 11.5q-15 1 -22.5 7t-7.5 13q0 6 7.5 9.5t18.5 3.5q32 0 64 -2l48 -1q17 0 47 2q38 4 76 4q113 0 172 -41t59 -122q0 -61 -35 -100.5t-86 -62.5q-3 -1 -3 -5l2 -8q60 -91 99.5 -142.5t95.5 -102.5q26 -24 53 -30t71 -6
q15 0 15 -14q0 -23 -29 -33.5t-66 -10.5q-54 0 -91.5 16zM374.5 375q37.5 41 37.5 101q0 71 -29 108.5t-105 37.5q-28 0 -37.5 -19t-11.5 -74q-2 -64 -2 -159q0 -22 11.5 -29t36.5 -7q62 0 99.5 41z" />
    <glyph glyph-name="Racute" unicode="&#x154;" horiz-adv-x="730" 
d="M548.5 -5q-37.5 16 -64.5 51q-41 51 -71 94t-72 114q-13 24 -37 37q-25 12 -63 17q-14 0 -14 -20v-181q0 -33 16.5 -53t54.5 -27q15 -3 22 -7.5t7 -11.5q0 -12 -26 -12q-10 0 -67 3q-25 3 -51 3q-34 0 -66 -3q-10 0 -31 -1.5t-39 -1.5q-26 0 -26 12q0 7 7 11.5t22 7.5
q39 7 55 22.5t16 49.5v434q0 36 -4 52.5t-16 24t-40 11.5q-15 1 -22.5 7t-7.5 13q0 6 7.5 9.5t18.5 3.5q32 0 64 -2l48 -1q17 0 47 2q38 4 76 4q113 0 172 -41t59 -122q0 -61 -35 -100.5t-86 -62.5q-3 -1 -3 -5l2 -8q60 -91 99.5 -142.5t95.5 -102.5q26 -24 53 -30t71 -6
q15 0 15 -14q0 -23 -29 -33.5t-66 -10.5q-54 0 -91.5 16zM374.5 375q37.5 41 37.5 101q0 71 -29 108.5t-105 37.5q-28 0 -37.5 -19t-11.5 -74q-2 -64 -2 -159q0 -22 11.5 -29t36.5 -7q62 0 99.5 41zM247 691q0 7 7 17q51 75 88 121q9 13 29 13q15 -1 39.5 -10t23.5 -18
q-1 -6 -4 -10t-11 -10q-31 -24 -91 -65q-36 -24 -52 -36q-13 -9 -21 -9t-8 7z" />
    <glyph glyph-name="Rcaron" unicode="&#x158;" horiz-adv-x="730" 
d="M548.5 -5q-37.5 16 -64.5 51q-41 51 -71 94t-72 114q-13 24 -37 37q-25 12 -63 17q-14 0 -14 -20v-181q0 -33 16.5 -53t54.5 -27q15 -3 22 -7.5t7 -11.5q0 -12 -26 -12q-10 0 -67 3q-25 3 -51 3q-34 0 -66 -3q-10 0 -31 -1.5t-39 -1.5q-26 0 -26 12q0 7 7 11.5t22 7.5
q39 7 55 22.5t16 49.5v434q0 36 -4 52.5t-16 24t-40 11.5q-15 1 -22.5 7t-7.5 13q0 6 7.5 9.5t18.5 3.5q32 0 64 -2l48 -1q17 0 47 2q38 4 76 4q113 0 172 -41t59 -122q0 -61 -35 -100.5t-86 -62.5q-3 -1 -3 -5l2 -8q60 -91 99.5 -142.5t95.5 -102.5q26 -24 53 -30t71 -6
q15 0 15 -14q0 -23 -29 -33.5t-66 -10.5q-54 0 -91.5 16zM374.5 375q37.5 41 37.5 101q0 71 -29 108.5t-105 37.5q-28 0 -37.5 -19t-11.5 -74q-2 -64 -2 -159q0 -22 11.5 -29t36.5 -7q62 0 99.5 41zM215 811q46 -20 69 -33q8 -4 11 -4t11 4q23 13 69 33.5t56 20.5
q15 0 15 -12q0 -8 -6 -13l-101 -83q-19 -16 -26 -20.5t-18 -4.5t-18 4.5t-26 20.5l-101 83q-7 6 -7 13q0 11 16 11q10 0 56 -20z" />
    <glyph glyph-name="S" unicode="S" horiz-adv-x="475" 
d="M62 31q-13 11 -15 21q-11 32 -13 119q0 7 5.5 10.5t14.5 3.5q14 0 18 -12q20 -73 60.5 -112t90.5 -39t80.5 32t30.5 81q0 36 -12.5 60.5t-34.5 42t-66 43.5q-60 36 -90.5 58t-53.5 56.5t-23 82.5q0 53 26 95.5t75.5 66.5t116.5 24q58 0 113 -23q17 -7 23 -27
q17 -68 17 -106q0 -5 -4.5 -8t-11.5 -3q-9 0 -17 4t-10 10q-20 57 -50.5 85.5t-73.5 28.5q-49 0 -78.5 -26t-29.5 -80q0 -37 33 -66.5t106 -73.5q73 -45 109 -87.5t36 -108.5q0 -93 -61 -145.5t-164 -52.5q-86 0 -147 46z" />
    <glyph glyph-name="Sacute" unicode="&#x15a;" horiz-adv-x="475" 
d="M62 31q-13 11 -15 21q-11 32 -13 119q0 7 5.5 10.5t14.5 3.5q14 0 18 -12q20 -73 60.5 -112t90.5 -39t80.5 32t30.5 81q0 36 -12.5 60.5t-34.5 42t-66 43.5q-60 36 -90.5 58t-53.5 56.5t-23 82.5q0 53 26 95.5t75.5 66.5t116.5 24q58 0 113 -23q17 -7 23 -27
q17 -68 17 -106q0 -5 -4.5 -8t-11.5 -3q-9 0 -17 4t-10 10q-20 57 -50.5 85.5t-73.5 28.5q-49 0 -78.5 -26t-29.5 -80q0 -37 33 -66.5t106 -73.5q73 -45 109 -87.5t36 -108.5q0 -93 -61 -145.5t-164 -52.5q-86 0 -147 46zM223 691q0 7 7 17q51 75 88 121q9 13 29 13
q15 -1 39.5 -10t23.5 -18q-1 -6 -4 -10t-11 -10q-31 -24 -91 -65q-36 -24 -52 -36q-13 -9 -21 -9t-8 7z" />
    <glyph glyph-name="Scaron" unicode="&#x160;" horiz-adv-x="475" 
d="M62 31q-13 11 -15 21q-11 32 -13 119q0 7 5.5 10.5t14.5 3.5q14 0 18 -12q20 -73 60.5 -112t90.5 -39t80.5 32t30.5 81q0 36 -12.5 60.5t-34.5 42t-66 43.5q-60 36 -90.5 58t-53.5 56.5t-23 82.5q0 53 26 95.5t75.5 66.5t116.5 24q58 0 113 -23q17 -7 23 -27
q17 -68 17 -106q0 -5 -4.5 -8t-11.5 -3q-9 0 -17 4t-10 10q-20 57 -50.5 85.5t-73.5 28.5q-49 0 -78.5 -26t-29.5 -80q0 -37 33 -66.5t106 -73.5q73 -45 109 -87.5t36 -108.5q0 -93 -61 -145.5t-164 -52.5q-86 0 -147 46zM191 811q46 -20 69 -33q8 -4 11 -4t11 4
q23 13 69 33.5t56 20.5q15 0 15 -12q0 -8 -6 -13l-101 -83q-19 -16 -26 -20.5t-18 -4.5t-18 4.5t-26 20.5l-101 83q-7 6 -7 13q0 11 16 11q10 0 56 -20z" />
    <glyph glyph-name="Scedilla" unicode="&#x15e;" horiz-adv-x="472" 
d="M62 31q-13 11 -15 21q-11 32 -13 119q0 7 5.5 10.5t14.5 3.5q14 0 18 -12q20 -73 60.5 -112t90.5 -39t80.5 32t30.5 81q0 36 -12.5 60.5t-34.5 42t-66 43.5q-60 36 -90.5 58t-53.5 56.5t-23 82.5q0 53 26 95.5t75.5 66.5t116.5 24q58 0 113 -23q17 -7 23 -27
q17 -68 17 -106q0 -5 -4.5 -8t-11.5 -3q-9 0 -17 4t-10 10q-20 57 -50.5 85.5t-73.5 28.5q-49 0 -78.5 -26t-29.5 -80q0 -37 33 -66.5t106 -73.5q73 -45 109 -87.5t36 -108.5q0 -93 -61 -145.5t-164 -52.5q-86 0 -147 46zM145 -266.5q-12 8.5 -12 27.5q0 15 5.5 24t12.5 9
q2 0 16 -6.5t46 -6.5q20 0 31.5 10.5t11.5 28.5q0 24 -12.5 36.5t-35.5 12.5q-6 0 -13.5 -2t-11.5 -2q-12 0 -19.5 6.5t-7.5 12.5q0 8 6 16l84 108h37l-37 -53q-4 -5 -4 -10q0 -7 10 -12q26 -9 45.5 -32t19.5 -54q0 -32 -22.5 -60.5t-55 -45t-58.5 -16.5q-24 0 -36 8.5z" />
    <glyph glyph-name="Scircumflex" unicode="&#x15c;" horiz-adv-x="475" 
d="M62 31q-13 11 -15 21q-11 32 -13 119q0 7 5.5 10.5t14.5 3.5q14 0 18 -12q20 -73 60.5 -112t90.5 -39t80.5 32t30.5 81q0 36 -12.5 60.5t-34.5 42t-66 43.5q-60 36 -90.5 58t-53.5 56.5t-23 82.5q0 53 26 95.5t75.5 66.5t116.5 24q58 0 113 -23q17 -7 23 -27
q17 -68 17 -106q0 -5 -4.5 -8t-11.5 -3q-9 0 -17 4t-10 10q-20 57 -50.5 85.5t-73.5 28.5q-49 0 -78.5 -26t-29.5 -80q0 -37 33 -66.5t106 -73.5q73 -45 109 -87.5t36 -108.5q0 -93 -61 -145.5t-164 -52.5q-86 0 -147 46zM118 706q0 7 7 13l101 87q17 15 25 19.5t19 4.5
t19 -4.5t25 -19.5l101 -87q6 -5 6 -13q0 -12 -15 -12q-10 0 -56 20.5t-69 33.5q-5 4 -11 4t-11 -4q-23 -13 -69 -33t-56 -20q-16 0 -16 11z" />
    <glyph glyph-name="uni1E9E" unicode="&#x1e9e;" horiz-adv-x="724" 
d="M340 1q-10 3 -14 12q-9 18 -19.5 64.5t-11.5 73.5q0 7 6.5 12t14.5 5q4 0 14 -22q2 -4 19 -39t44 -59t57 -24q52 0 83.5 46.5t31.5 111.5q0 81 -55.5 115t-156.5 34q-23 0 -17 10l160 244q2 4 2 5q0 7 -16 14q-42 19 -85 19q-93 -1 -139.5 -75.5t-46.5 -189.5
q0 -161 2 -257q0 -28 13 -45.5t31 -23.5q15 -5 22 -9.5t7 -11.5q0 -12 -25 -12l-52 2l-50 2l-52 -2q-34 -3 -55 -3q-11 0 -18.5 3t-7.5 9q0 15 29 22q25 6 38.5 22t13.5 48v265q0 87 39.5 154t111.5 104.5t166 37.5q83 0 192 -38q8 -3 12 -10.5t0 -13.5l-37 -50l-41 -58
q-76 -112 -77 -114q-1 -1 -1 -5q0 -6 5 -7q54 -4 101 -27t75.5 -61.5t28.5 -87.5q0 -95 -68 -150t-183 -55q-40 0 -91 15z" />
    <glyph glyph-name="uni018F" unicode="&#x18f;" horiz-adv-x="668" 
d="M462.5 624q73.5 -39 119.5 -114.5t46 -179.5q0 -93 -43.5 -172t-120.5 -126t-171 -47q-74 0 -135 32t-96.5 86t-35.5 118q0 20 14 31t35 11h433q1 10 1 30q0 93 -25.5 166.5t-76 116t-121.5 42.5q-74 0 -122.5 -40.5t-77.5 -94.5q-5 -10 -11 -15.5t-16 -5.5q-11 0 -11 16
q0 5 2 17q3 23 14 57t22 52q3 5 13.5 9t14.5 6q17 6 20 7q89 37 175 37q80 0 153.5 -39zM441.5 83q48.5 57 62.5 143l-336 -1q-17 0 -27 -11.5t-10 -29.5q0 -47 24 -83t64.5 -55.5t88.5 -19.5q85 0 133.5 57z" />
    <glyph glyph-name="T" unicode="T" horiz-adv-x="679" 
d="M184 8q0 7 7 11.5t23 7.5q40 7 58 24t18 50v396q0 63 -4 84t-15 24q-16 4 -62 4h-39q-27 0 -52.5 -12t-37.5 -32q-28 -42 -46 -42q-10 0 -10 14q0 8 6 22q16 31 23 55.5t11 57.5q3 24 20 24q5 0 14.5 -14t12.5 -19q7 -9 28.5 -14t42.5 -5l361 1q57 0 85 14q12 8 16 12
q2 1 9.5 6.5t17.5 5.5q4 0 6 -6.5t2 -14.5q0 -7 -3 -25l-7 -30q-3 -11 -5 -21.5t-2 -23.5v-14q0 -13 -4.5 -23.5t-11.5 -10.5q-8 0 -12.5 9.5t-10.5 31.5q-6 27 -27.5 40.5t-66.5 13.5h-84q-22 0 -32 -6.5t-13.5 -29.5t-3.5 -76v-396q0 -32 18.5 -48.5t58.5 -25.5
q15 -3 22 -7.5t7 -11.5q0 -12 -26 -12q-37 0 -69 3q-40 2 -60 2q-23 0 -65 -2q-33 -3 -71 -3q-27 0 -27 12z" />
    <glyph glyph-name="Tbar" unicode="&#x166;" horiz-adv-x="679" 
d="M677 676.5q2 -6.5 2 -14.5q0 -7 -3 -25l-7 -30q-3 -11 -5 -21.5t-2 -23.5v-14q0 -13 -4.5 -23.5t-11.5 -10.5q-8 0 -12.5 9.5t-10.5 31.5q-6 27 -27.5 40.5t-66.5 13.5h-84q-22 0 -32 -6.5t-13.5 -29.5t-3.5 -76v-123h120q7 0 12 -4.5t4 -10.5q-4 -12 -13.5 -20t-21.5 -8
h-101v-230q0 -32 18.5 -48.5t58.5 -25.5q15 -3 22 -7.5t7 -11.5q0 -12 -26 -12q-37 0 -69 3q-40 2 -60 2q-23 0 -65 -2q-33 -3 -71 -3q-27 0 -27 12q0 7 7 11.5t23 7.5q40 7 58 24t18 50v230h-115q-8 0 -12.5 6.5t-4.5 14.5q0 9 7.5 15.5t17.5 6.5h107v123q0 63 -4 84
t-15 24q-16 4 -62 4h-39q-27 0 -52.5 -12t-37.5 -32q-28 -42 -46 -42q-10 0 -10 14q0 8 6 22q16 31 23 55.5t11 57.5q3 24 20 24q5 0 14.5 -14t12.5 -19q7 -9 28.5 -14t42.5 -5l361 1q57 0 85 14q12 8 16 12q2 1 9.5 6.5t17.5 5.5q4 0 6 -6.5z" />
    <glyph glyph-name="Tcaron" unicode="&#x164;" horiz-adv-x="679" 
d="M184 8q0 7 7 11.5t23 7.5q40 7 58 24t18 50v396q0 63 -4 84t-15 24q-16 4 -62 4h-39q-27 0 -52.5 -12t-37.5 -32q-28 -42 -46 -42q-10 0 -10 14q0 8 6 22q16 31 23 55.5t11 57.5q3 24 20 24q5 0 14.5 -14t12.5 -19q7 -9 28.5 -14t42.5 -5l361 1q57 0 85 14q12 8 16 12
q2 1 9.5 6.5t17.5 5.5q4 0 6 -6.5t2 -14.5q0 -7 -3 -25l-7 -30q-3 -11 -5 -21.5t-2 -23.5v-14q0 -13 -4.5 -23.5t-11.5 -10.5q-8 0 -12.5 9.5t-10.5 31.5q-6 27 -27.5 40.5t-66.5 13.5h-84q-22 0 -32 -6.5t-13.5 -29.5t-3.5 -76v-396q0 -32 18.5 -48.5t58.5 -25.5
q15 -3 22 -7.5t7 -11.5q0 -12 -26 -12q-37 0 -69 3q-40 2 -60 2q-23 0 -65 -2q-33 -3 -71 -3q-27 0 -27 12zM267 811q46 -20 69 -33q8 -4 11 -4t11 4q23 13 69 33.5t56 20.5q15 0 15 -12q0 -8 -6 -13l-101 -83q-19 -16 -26 -20.5t-18 -4.5t-18 4.5t-26 20.5l-101 83
q-7 6 -7 13q0 11 16 11q10 0 56 -20z" />
    <glyph glyph-name="U" unicode="U" horiz-adv-x="740" 
d="M168.5 55.5q-70.5 69.5 -70.5 189.5v299q0 31 -13 50t-34 25q-32 9 -32 22t28 13q18 0 52 -2q38 -2 56 -2t56 2l44 1q28 0 28 -13q0 -6 -6.5 -10t-17 -7.5t-14.5 -5.5q-15 -5 -27.5 -25t-12.5 -49v-274q0 -109 53 -164.5t140 -55.5q96 0 144 64t48 182q0 135 -2 206
q-2 50 -12.5 79t-33.5 38q-2 1 -12.5 4.5t-16.5 8t-6 9.5q0 12 29 12l46 -1q12 -1 37 -1q18 0 46 2q26 2 38 2q28 0 28 -13t-31 -20q-28 -6 -40 -26t-14 -54q-6 -116 -8 -242l-1 -45q-1 -78 -36.5 -139t-95.5 -95t-133 -34q-133 0 -203.5 69.5z" />
    <glyph glyph-name="Uacute" unicode="&#xda;" horiz-adv-x="740" 
d="M168.5 55.5q-70.5 69.5 -70.5 189.5v299q0 31 -13 50t-34 25q-32 9 -32 22t28 13q18 0 52 -2q38 -2 56 -2t56 2l44 1q28 0 28 -13q0 -6 -6.5 -10t-17 -7.5t-14.5 -5.5q-15 -5 -27.5 -25t-12.5 -49v-274q0 -109 53 -164.5t140 -55.5q96 0 144 64t48 182q0 135 -2 206
q-2 50 -12.5 79t-33.5 38q-2 1 -12.5 4.5t-16.5 8t-6 9.5q0 12 29 12l46 -1q12 -1 37 -1q18 0 46 2q26 2 38 2q28 0 28 -13t-31 -20q-28 -6 -40 -26t-14 -54q-6 -116 -8 -242l-1 -45q-1 -78 -36.5 -139t-95.5 -95t-133 -34q-133 0 -203.5 69.5zM349 691q0 7 7 17
q51 75 88 121q9 13 29 13q15 -1 39.5 -10t23.5 -18q-1 -6 -4 -10t-11 -10q-31 -24 -91 -65q-36 -24 -52 -36q-13 -9 -21 -9t-8 7z" />
    <glyph glyph-name="Ubreve" unicode="&#x16c;" horiz-adv-x="740" 
d="M168.5 55.5q-70.5 69.5 -70.5 189.5v299q0 31 -13 50t-34 25q-32 9 -32 22t28 13q18 0 52 -2q38 -2 56 -2t56 2l44 1q28 0 28 -13q0 -6 -6.5 -10t-17 -7.5t-14.5 -5.5q-15 -5 -27.5 -25t-12.5 -49v-274q0 -109 53 -164.5t140 -55.5q96 0 144 64t48 182q0 135 -2 206
q-2 50 -12.5 79t-33.5 38q-2 1 -12.5 4.5t-16.5 8t-6 9.5q0 12 29 12l46 -1q12 -1 37 -1q18 0 46 2q26 2 38 2q28 0 28 -13t-31 -20q-28 -6 -40 -26t-14 -54q-6 -116 -8 -242l-1 -45q-1 -78 -36.5 -139t-95.5 -95t-133 -34q-133 0 -203.5 69.5zM322 708q-32 18 -49 44.5
t-17 48.5q0 11 3 18t8 7q6 0 11.5 -4.5t9 -9t5.5 -7.5q21 -25 45.5 -36t57.5 -11t57.5 11t45.5 36q2 3 7 9t9.5 9t9.5 3q7 0 9 -6t2 -19q0 -22 -17 -48.5t-49 -44.5t-74 -18t-74 18z" />
    <glyph glyph-name="Ucircumflex" unicode="&#xdb;" horiz-adv-x="740" 
d="M168.5 55.5q-70.5 69.5 -70.5 189.5v299q0 31 -13 50t-34 25q-32 9 -32 22t28 13q18 0 52 -2q38 -2 56 -2t56 2l44 1q28 0 28 -13q0 -6 -6.5 -10t-17 -7.5t-14.5 -5.5q-15 -5 -27.5 -25t-12.5 -49v-274q0 -109 53 -164.5t140 -55.5q96 0 144 64t48 182q0 135 -2 206
q-2 50 -12.5 79t-33.5 38q-2 1 -12.5 4.5t-16.5 8t-6 9.5q0 12 29 12l46 -1q12 -1 37 -1q18 0 46 2q26 2 38 2q28 0 28 -13t-31 -20q-28 -6 -40 -26t-14 -54q-6 -116 -8 -242l-1 -45q-1 -78 -36.5 -139t-95.5 -95t-133 -34q-133 0 -203.5 69.5zM244 706q0 7 7 13l101 87
q17 15 25 19.5t19 4.5t19 -4.5t25 -19.5l101 -87q6 -5 6 -13q0 -12 -15 -12q-10 0 -56 20.5t-69 33.5q-5 4 -11 4t-11 -4q-23 -13 -69 -33t-56 -20q-16 0 -16 11z" />
    <glyph glyph-name="Udieresis" unicode="&#xdc;" horiz-adv-x="740" 
d="M168.5 55.5q-70.5 69.5 -70.5 189.5v299q0 31 -13 50t-34 25q-32 9 -32 22t28 13q18 0 52 -2q38 -2 56 -2t56 2l44 1q28 0 28 -13q0 -6 -6.5 -10t-17 -7.5t-14.5 -5.5q-15 -5 -27.5 -25t-12.5 -49v-274q0 -109 53 -164.5t140 -55.5q96 0 144 64t48 182q0 135 -2 206
q-2 50 -12.5 79t-33.5 38q-2 1 -12.5 4.5t-16.5 8t-6 9.5q0 12 29 12l46 -1q12 -1 37 -1q18 0 46 2q26 2 38 2q28 0 28 -13t-31 -20q-28 -6 -40 -26t-14 -54q-6 -116 -8 -242l-1 -45q-1 -78 -36.5 -139t-95.5 -95t-133 -34q-133 0 -203.5 69.5zM257 709q-17 17 -17 41
q0 25 17 41.5t41 16.5q25 0 42 -16.5t17 -41.5q0 -24 -17 -41t-42 -17q-24 0 -41 17zM453 709q-17 17 -17 41q0 25 17 41.5t41 16.5q25 0 41.5 -16.5t16.5 -41.5q0 -24 -16.5 -41t-41.5 -17q-24 0 -41 17z" />
    <glyph glyph-name="Ugrave" unicode="&#xd9;" horiz-adv-x="740" 
d="M168.5 55.5q-70.5 69.5 -70.5 189.5v299q0 31 -13 50t-34 25q-32 9 -32 22t28 13q18 0 52 -2q38 -2 56 -2t56 2l44 1q28 0 28 -13q0 -6 -6.5 -10t-17 -7.5t-14.5 -5.5q-15 -5 -27.5 -25t-12.5 -49v-274q0 -109 53 -164.5t140 -55.5q96 0 144 64t48 182q0 135 -2 206
q-2 50 -12.5 79t-33.5 38q-2 1 -12.5 4.5t-16.5 8t-6 9.5q0 12 29 12l46 -1q12 -1 37 -1q18 0 46 2q26 2 38 2q28 0 28 -13t-31 -20q-28 -6 -40 -26t-14 -54q-6 -116 -8 -242l-1 -45q-1 -78 -36.5 -139t-95.5 -95t-133 -34q-133 0 -203.5 69.5zM406 693q-16 12 -52 36
q-60 41 -91 65q-8 6 -11 10t-4 10q-1 9 23.5 18t39.5 10q20 0 29 -13q37 -46 88 -121q7 -10 7 -17t-8 -7t-21 9z" />
    <glyph glyph-name="Uhorn" unicode="&#x1af;" horiz-adv-x="740" 
d="M169 72q-71 86 -71 231v241q0 31 -13 50t-34 25q-32 9 -32 22t28 13q18 0 52 -2q38 -2 56 -2t56 2l44 1q28 0 28 -13q0 -6 -6.5 -10t-17 -7.5t-14.5 -5.5q-15 -5 -27.5 -25t-12.5 -49v-255q0 -66 25.5 -120.5t71.5 -86.5t103 -32q91 0 137 66t46 184q0 94 -3 202
q-2 51 -12 79.5t-33 37.5q-2 1 -12.5 4.5t-16.5 8t-6 9.5q0 12 29 12l41 -1q11 -1 32 -1h83q17 0 27 11.5t10 21.5q0 7 -6 11t-18 9q-13 7 -19 12.5t-6 14.5q0 10 11 24t27.5 23.5t30.5 9.5q16 0 29.5 -24.5t13.5 -46.5q0 -41 -29.5 -67t-76.5 -40q-21 -7 -28.5 -21
t-8.5 -44q-6 -116 -8 -242l-1 -45q-1 -78 -35.5 -139.5t-93.5 -96.5t-131 -35q-138 0 -209 86z" />
    <glyph glyph-name="Uhungarumlaut" unicode="&#x170;" horiz-adv-x="740" 
d="M168.5 55.5q-70.5 69.5 -70.5 189.5v299q0 31 -13 50t-34 25q-32 9 -32 22t28 13q18 0 52 -2q38 -2 56 -2t56 2l44 1q28 0 28 -13q0 -6 -6.5 -10t-17 -7.5t-14.5 -5.5q-15 -5 -27.5 -25t-12.5 -49v-274q0 -109 53 -164.5t140 -55.5q96 0 144 64t48 182q0 135 -2 206
q-2 50 -12.5 79t-33.5 38q-2 1 -12.5 4.5t-16.5 8t-6 9.5q0 12 29 12l46 -1q12 -1 37 -1q18 0 46 2q26 2 38 2q28 0 28 -13t-31 -20q-28 -6 -40 -26t-14 -54q-6 -116 -8 -242l-1 -45q-1 -78 -36.5 -139t-95.5 -95t-133 -34q-133 0 -203.5 69.5zM417 691q0 7 7 17
q51 75 88 121q9 13 29 13q15 -1 39.5 -10t23.5 -18q-1 -6 -4 -10t-11 -10q-31 -24 -91 -65q-36 -24 -52 -36q-13 -9 -21 -9t-8 7zM274 691q0 7 7 17q51 75 88 121q9 13 29 13q15 -1 39.5 -10t23.5 -18q-1 -6 -4 -10t-11 -10q-31 -24 -91 -65q-36 -24 -52 -36q-13 -9 -21 -9
t-8 7z" />
    <glyph glyph-name="Umacron" unicode="&#x16a;" horiz-adv-x="740" 
d="M168.5 55.5q-70.5 69.5 -70.5 189.5v299q0 31 -13 50t-34 25q-32 9 -32 22t28 13q18 0 52 -2q38 -2 56 -2t56 2l44 1q28 0 28 -13q0 -6 -6.5 -10t-17 -7.5t-14.5 -5.5q-15 -5 -27.5 -25t-12.5 -49v-274q0 -109 53 -164.5t140 -55.5q96 0 144 64t48 182q0 135 -2 206
q-2 50 -12.5 79t-33.5 38q-2 1 -12.5 4.5t-16.5 8t-6 9.5q0 12 29 12l46 -1q12 -1 37 -1q18 0 46 2q26 2 38 2q28 0 28 -13t-31 -20q-28 -6 -40 -26t-14 -54q-6 -116 -8 -242l-1 -45q-1 -78 -36.5 -139t-95.5 -95t-133 -34q-133 0 -203.5 69.5zM249.5 725.5
q-4.5 4.5 -4.5 9.5q0 16 7.5 32.5t20.5 16.5h265q6 0 10.5 -4.5t4.5 -9.5q0 -18 -10.5 -33.5t-23.5 -15.5h-258q-7 0 -11.5 4.5z" />
    <glyph glyph-name="Uogonek" unicode="&#x172;" horiz-adv-x="740" 
d="M168.5 55.5q-70.5 69.5 -70.5 189.5v299q0 31 -13 50t-34 25q-32 9 -32 22t28 13q18 0 52 -2q38 -2 56 -2t56 2l44 1q28 0 28 -13q0 -6 -6.5 -10t-17 -7.5t-14.5 -5.5q-15 -5 -27.5 -25t-12.5 -49v-274q0 -109 53 -164.5t140 -55.5q96 0 144 64t48 182q0 135 -2 206
q-2 50 -12.5 79t-33.5 38q-2 1 -12.5 4.5t-16.5 8t-6 9.5q0 12 29 12l46 -1q12 -1 37 -1q18 0 46 2q26 2 38 2q28 0 28 -13t-31 -20q-28 -6 -40 -26t-14 -54q-6 -116 -8 -242l-1 -45q-1 -78 -36.5 -139t-95.5 -95t-133 -34q-133 0 -203.5 69.5zM333 -255q-33 32 -33 81
q0 61 59.5 112.5t111.5 79.5h31q-3 -3 -31.5 -27t-52.5 -63.5t-24 -79.5q0 -25 18 -42t44 -17q30 0 52.5 17.5t24.5 19.5q4 2 7 2q9 0 9 -11q0 -22 -20.5 -46.5t-52 -41t-60.5 -16.5q-50 0 -83 32z" />
    <glyph glyph-name="Uring" unicode="&#x16e;" horiz-adv-x="740" 
d="M168.5 55.5q-70.5 69.5 -70.5 189.5v299q0 31 -13 50t-34 25q-32 9 -32 22t28 13q18 0 52 -2q38 -2 56 -2t56 2l44 1q28 0 28 -13q0 -6 -6.5 -10t-17 -7.5t-14.5 -5.5q-15 -5 -27.5 -25t-12.5 -49v-274q0 -109 53 -164.5t140 -55.5q96 0 144 64t48 182q0 135 -2 206
q-2 50 -12.5 79t-33.5 38q-2 1 -12.5 4.5t-16.5 8t-6 9.5q0 12 29 12l46 -1q12 -1 37 -1q18 0 46 2q26 2 38 2q28 0 28 -13t-31 -20q-28 -6 -40 -26t-14 -54q-6 -116 -8 -242l-1 -45q-1 -78 -36.5 -139t-95.5 -95t-133 -34q-133 0 -203.5 69.5zM460.5 828.5
q26.5 -19.5 26.5 -51.5q0 -36 -29.5 -58.5t-69.5 -22.5q-38 0 -64.5 20t-26.5 53q0 35 30 57t70 22q37 0 63.5 -19.5zM360.5 736q14.5 -15 36.5 -15q19 0 30 15t11 36t-14 35.5t-35 14.5q-19 0 -31 -15t-12 -35q0 -21 14.5 -36z" />
    <glyph glyph-name="Utilde" unicode="&#x168;" horiz-adv-x="740" 
d="M168.5 55.5q-70.5 69.5 -70.5 189.5v299q0 31 -13 50t-34 25q-32 9 -32 22t28 13q18 0 52 -2q38 -2 56 -2t56 2l44 1q28 0 28 -13q0 -6 -6.5 -10t-17 -7.5t-14.5 -5.5q-15 -5 -27.5 -25t-12.5 -49v-274q0 -109 53 -164.5t140 -55.5q96 0 144 64t48 182q0 135 -2 206
q-2 50 -12.5 79t-33.5 38q-2 1 -12.5 4.5t-16.5 8t-6 9.5q0 12 29 12l46 -1q12 -1 37 -1q18 0 46 2q26 2 38 2q28 0 28 -13t-31 -20q-28 -6 -40 -26t-14 -54q-6 -116 -8 -242l-1 -45q-1 -78 -36.5 -139t-95.5 -95t-133 -34q-133 0 -203.5 69.5zM264 697.5q-6 5.5 -6 10.5
q0 6 16 29t34.5 42t29.5 19q28 0 74 -4l21 -1q32 -2 50 -2q20 0 37 19q6 6 12 13t8 7q7 0 14 -5.5t7 -11.5q0 -4 -7 -12t-9 -10q-13 -15 -44 -57q-5 -7 -14.5 -10.5t-15.5 -3.5t-56 4q-82 5 -88 5q-7 0 -16.5 -4.5t-15.5 -10.5q-7 -7 -12.5 -14.5t-7.5 -7.5q-5 0 -11 5.5z
" />
    <glyph glyph-name="V" unicode="V" horiz-adv-x="684" 
d="M314 -4q-11 26 -26 70l-187 482q-23 58 -71 71q-16 6 -23 10.5t-7 11.5q0 12 26 12l57 -1q50 -2 74 -2t72 2l49 1q12 0 20 -3t8 -9q0 -8 -8.5 -14t-22.5 -7q-63 -8 -63 -39q0 -16 4 -28t5 -14l139 -373q2 -6 5 -6t6 7l129 341q11 28 11 51q0 26 -15.5 41.5t-42.5 18.5
q-14 2 -23 8t-9 13q0 6 8 9t21 3q29 0 43 -1l55 -1q23 0 63 2q36 2 49 2q30 0 30 -13q0 -7 -7.5 -11.5t-23.5 -8.5q-64 -15 -95 -90l-175 -424l-21 -51q-22 -53 -25 -60q-5 -10 -14 -10q-11 0 -15 10z" />
    <glyph glyph-name="uni0194" unicode="&#x194;" horiz-adv-x="684" 
d="M251.5 -253q-24.5 33 -24.5 86q0 61 64 200q5 12 5 17q0 7 -5 17l-189 482q-23 56 -72 70q-16 6 -23 10.5t-7 11.5q0 12 26 12l57 -1q50 -2 74 -2t72 2l49 1q12 0 20 -3t8 -9q0 -14 -31 -21q-27 -6 -44 -16.5t-17 -24.5q0 -19 7 -40l127 -348q4 -12 8.5 -19.5t7.5 -7.5
t6.5 6t7.5 15l131 346q4 9 6.5 23t2.5 23q0 30 -66 42q-13 3 -23 8.5t-10 12.5q0 6 8 9t21 3q30 0 45 -1l55 -1q23 0 63 2q36 2 49 2q30 0 30 -13q0 -7 -7.5 -11.5t-23.5 -8.5q-33 -8 -56.5 -31t-35.5 -51l-168 -414q-8 -21 -8 -32t6 -28l38 -107q12 -34 16.5 -56t4.5 -51
q0 -59 -38 -98t-96 -39q-46 0 -70.5 33zM356.5 -217q10.5 16 10.5 45q0 19 -10 59.5t-24 78.5q-1 6 -6 6q-4 0 -7 -6q-37 -74 -37 -125q0 -34 12 -54t31 -20q20 0 30.5 16z" />
    <glyph glyph-name="W" unicode="W" horiz-adv-x="953" 
d="M331 11l-229 543q-12 26 -28.5 42t-41.5 23q-17 6 -24.5 10.5t-7.5 11.5q0 12 28 12l51 -1q36 -2 54 -2q21 0 59 2l44 1q29 0 29 -12q0 -8 -7 -12t-25 -9q-13 -3 -17 -10.5t-4 -21.5q0 -11 2.5 -22.5t4.5 -15.5q67 -169 161 -384q6 -11 9 -11q4 0 7 10l70 161q6 14 6 22
q0 6 -7 25l-73 170q-11 28 -36 48t-54 28q-16 6 -23 10.5t-7 11.5q0 12 26 12l54 -1q38 -2 57 -2q17 0 51 2l41 1q14 0 22.5 -3t8.5 -9q0 -5 -5 -9t-14 -9q-2 -1 -10 -6t-11 -12q-7 -3 -7 -10q0 -2 2 -8q34 -90 46 -117q6 -12 9 -12t9 12q13 29 32 85l10 28l2 12
q0 9 -5.5 14.5t-17.5 11.5q-2 1 -7.5 4.5t-8 7t-2.5 7.5q0 12 27 12q17 0 30 -1t24 -1t27 2q22 2 37 2q13 0 21 -3.5t8 -9.5q0 -7 -7.5 -11.5t-23.5 -8.5q-29 -7 -41.5 -18t-27.5 -35q-18 -33 -58 -129q-6 -16 -6 -28q0 -8 3 -14l93 -234q3 -5 5 -5q3 0 7 9q49 122 129 373
q8 23 8 41q-2 31 -30 38q-32 10 -32 21q0 6 8 9t21 3l41 -1q10 -1 30 -1q11 0 35 2q34 2 51 2q31 0 31 -13q0 -7 -8 -11.5t-24 -8.5q-31 -7 -49.5 -29t-30.5 -52l-196 -531q-8 -22 -18 -22q-9 0 -19 19q-24 53 -73 171l-47 115q-3 6 -5 6q-3 0 -7 -10q-74 -167 -118 -276
q-10 -28 -22 -28q-6 0 -16 27z" />
    <glyph glyph-name="Wacute" unicode="&#x1e82;" horiz-adv-x="953" 
d="M331 11l-229 543q-12 26 -28.5 42t-41.5 23q-17 6 -24.5 10.5t-7.5 11.5q0 12 28 12l51 -1q36 -2 54 -2q21 0 59 2l44 1q29 0 29 -12q0 -8 -7 -12t-25 -9q-13 -3 -17 -10.5t-4 -21.5q0 -11 2.5 -22.5t4.5 -15.5q67 -169 161 -384q6 -11 9 -11q4 0 7 10l70 161q6 14 6 22
q0 6 -7 25l-73 170q-11 28 -36 48t-54 28q-16 6 -23 10.5t-7 11.5q0 12 26 12l54 -1q38 -2 57 -2q17 0 51 2l41 1q14 0 22.5 -3t8.5 -9q0 -5 -5 -9t-14 -9q-2 -1 -10 -6t-11 -12q-7 -3 -7 -10q0 -2 2 -8q34 -90 46 -117q6 -12 9 -12t9 12q13 29 32 85l10 28l2 12
q0 9 -5.5 14.5t-17.5 11.5q-2 1 -7.5 4.5t-8 7t-2.5 7.5q0 12 27 12q17 0 30 -1t24 -1t27 2q22 2 37 2q13 0 21 -3.5t8 -9.5q0 -7 -7.5 -11.5t-23.5 -8.5q-29 -7 -41.5 -18t-27.5 -35q-18 -33 -58 -129q-6 -16 -6 -28q0 -8 3 -14l93 -234q3 -5 5 -5q3 0 7 9q49 122 129 373
q8 23 8 41q-2 31 -30 38q-32 10 -32 21q0 6 8 9t21 3l41 -1q10 -1 30 -1q11 0 35 2q34 2 51 2q31 0 31 -13q0 -7 -8 -11.5t-24 -8.5q-31 -7 -49.5 -29t-30.5 -52l-196 -531q-8 -22 -18 -22q-9 0 -19 19q-24 53 -73 171l-47 115q-3 6 -5 6q-3 0 -7 -10q-74 -167 -118 -276
q-10 -28 -22 -28q-6 0 -16 27zM489 691q0 7 7 17q51 75 88 121q9 13 29 13q15 -1 39.5 -10t23.5 -18q-1 -6 -4 -10t-11 -10q-31 -24 -91 -65q-36 -24 -52 -36q-13 -9 -21 -9t-8 7z" />
    <glyph glyph-name="Wcircumflex" unicode="&#x174;" horiz-adv-x="953" 
d="M331 11l-229 543q-12 26 -28.5 42t-41.5 23q-17 6 -24.5 10.5t-7.5 11.5q0 12 28 12l51 -1q36 -2 54 -2q21 0 59 2l44 1q29 0 29 -12q0 -8 -7 -12t-25 -9q-13 -3 -17 -10.5t-4 -21.5q0 -11 2.5 -22.5t4.5 -15.5q67 -169 161 -384q6 -11 9 -11q4 0 7 10l70 161q6 14 6 22
q0 6 -7 25l-73 170q-11 28 -36 48t-54 28q-16 6 -23 10.5t-7 11.5q0 12 26 12l54 -1q38 -2 57 -2q17 0 51 2l41 1q14 0 22.5 -3t8.5 -9q0 -5 -5 -9t-14 -9q-2 -1 -10 -6t-11 -12q-7 -3 -7 -10q0 -2 2 -8q34 -90 46 -117q6 -12 9 -12t9 12q13 29 32 85l10 28l2 12
q0 9 -5.5 14.5t-17.5 11.5q-2 1 -7.5 4.5t-8 7t-2.5 7.5q0 12 27 12q17 0 30 -1t24 -1t27 2q22 2 37 2q13 0 21 -3.5t8 -9.5q0 -7 -7.5 -11.5t-23.5 -8.5q-29 -7 -41.5 -18t-27.5 -35q-18 -33 -58 -129q-6 -16 -6 -28q0 -8 3 -14l93 -234q3 -5 5 -5q3 0 7 9q49 122 129 373
q8 23 8 41q-2 31 -30 38q-32 10 -32 21q0 6 8 9t21 3l41 -1q10 -1 30 -1q11 0 35 2q34 2 51 2q31 0 31 -13q0 -7 -8 -11.5t-24 -8.5q-31 -7 -49.5 -29t-30.5 -52l-196 -531q-8 -22 -18 -22q-9 0 -19 19q-24 53 -73 171l-47 115q-3 6 -5 6q-3 0 -7 -10q-74 -167 -118 -276
q-10 -28 -22 -28q-6 0 -16 27zM384 706q0 7 7 13l101 87q17 15 25 19.5t19 4.5t19 -4.5t25 -19.5l101 -87q6 -5 6 -13q0 -12 -15 -12q-10 0 -56 20.5t-69 33.5q-5 4 -11 4t-11 -4q-23 -13 -69 -33t-56 -20q-16 0 -16 11z" />
    <glyph glyph-name="Wdieresis" unicode="&#x1e84;" horiz-adv-x="953" 
d="M331 11l-229 543q-12 26 -28.5 42t-41.5 23q-17 6 -24.5 10.5t-7.5 11.5q0 12 28 12l51 -1q36 -2 54 -2q21 0 59 2l44 1q29 0 29 -12q0 -8 -7 -12t-25 -9q-13 -3 -17 -10.5t-4 -21.5q0 -11 2.5 -22.5t4.5 -15.5q67 -169 161 -384q6 -11 9 -11q4 0 7 10l70 161q6 14 6 22
q0 6 -7 25l-73 170q-11 28 -36 48t-54 28q-16 6 -23 10.5t-7 11.5q0 12 26 12l54 -1q38 -2 57 -2q17 0 51 2l41 1q14 0 22.5 -3t8.5 -9q0 -5 -5 -9t-14 -9q-2 -1 -10 -6t-11 -12q-7 -3 -7 -10q0 -2 2 -8q34 -90 46 -117q6 -12 9 -12t9 12q13 29 32 85l10 28l2 12
q0 9 -5.5 14.5t-17.5 11.5q-2 1 -7.5 4.5t-8 7t-2.5 7.5q0 12 27 12q17 0 30 -1t24 -1t27 2q22 2 37 2q13 0 21 -3.5t8 -9.5q0 -7 -7.5 -11.5t-23.5 -8.5q-29 -7 -41.5 -18t-27.5 -35q-18 -33 -58 -129q-6 -16 -6 -28q0 -8 3 -14l93 -234q3 -5 5 -5q3 0 7 9q49 122 129 373
q8 23 8 41q-2 31 -30 38q-32 10 -32 21q0 6 8 9t21 3l41 -1q10 -1 30 -1q11 0 35 2q34 2 51 2q31 0 31 -13q0 -7 -8 -11.5t-24 -8.5q-31 -7 -49.5 -29t-30.5 -52l-196 -531q-8 -22 -18 -22q-9 0 -19 19q-24 53 -73 171l-47 115q-3 6 -5 6q-3 0 -7 -10q-74 -167 -118 -276
q-10 -28 -22 -28q-6 0 -16 27zM397 709q-17 17 -17 41q0 25 17 41.5t41 16.5q25 0 42 -16.5t17 -41.5q0 -24 -17 -41t-42 -17q-24 0 -41 17zM593 709q-17 17 -17 41q0 25 17 41.5t41 16.5q25 0 41.5 -16.5t16.5 -41.5q0 -24 -16.5 -41t-41.5 -17q-24 0 -41 17z" />
    <glyph glyph-name="Wgrave" unicode="&#x1e80;" horiz-adv-x="953" 
d="M331 11l-229 543q-12 26 -28.5 42t-41.5 23q-17 6 -24.5 10.5t-7.5 11.5q0 12 28 12l51 -1q36 -2 54 -2q21 0 59 2l44 1q29 0 29 -12q0 -8 -7 -12t-25 -9q-13 -3 -17 -10.5t-4 -21.5q0 -11 2.5 -22.5t4.5 -15.5q67 -169 161 -384q6 -11 9 -11q4 0 7 10l70 161q6 14 6 22
q0 6 -7 25l-73 170q-11 28 -36 48t-54 28q-16 6 -23 10.5t-7 11.5q0 12 26 12l54 -1q38 -2 57 -2q17 0 51 2l41 1q14 0 22.5 -3t8.5 -9q0 -5 -5 -9t-14 -9q-2 -1 -10 -6t-11 -12q-7 -3 -7 -10q0 -2 2 -8q34 -90 46 -117q6 -12 9 -12t9 12q13 29 32 85l10 28l2 12
q0 9 -5.5 14.5t-17.5 11.5q-2 1 -7.5 4.5t-8 7t-2.5 7.5q0 12 27 12q17 0 30 -1t24 -1t27 2q22 2 37 2q13 0 21 -3.5t8 -9.5q0 -7 -7.5 -11.5t-23.5 -8.5q-29 -7 -41.5 -18t-27.5 -35q-18 -33 -58 -129q-6 -16 -6 -28q0 -8 3 -14l93 -234q3 -5 5 -5q3 0 7 9q49 122 129 373
q8 23 8 41q-2 31 -30 38q-32 10 -32 21q0 6 8 9t21 3l41 -1q10 -1 30 -1q11 0 35 2q34 2 51 2q31 0 31 -13q0 -7 -8 -11.5t-24 -8.5q-31 -7 -49.5 -29t-30.5 -52l-196 -531q-8 -22 -18 -22q-9 0 -19 19q-24 53 -73 171l-47 115q-3 6 -5 6q-3 0 -7 -10q-74 -167 -118 -276
q-10 -28 -22 -28q-6 0 -16 27zM546 693q-16 12 -52 36q-60 41 -91 65q-8 6 -11 10t-4 10q-1 9 23.5 18t39.5 10q20 0 29 -13q37 -46 88 -121q7 -10 7 -17t-8 -7t-21 9z" />
    <glyph glyph-name="X" unicode="X" horiz-adv-x="722" 
d="M3 -2.5q-8 3.5 -8 9.5q0 7 7 11.5t24 10.5q31 9 69 33.5t67 61.5l124 156q15 18 15 34q0 14 -12 30l-137 192q-29 41 -52 59t-52 26q-16 5 -23 9.5t-7 12.5q0 6 7 9t19 3q32 0 71 -3q14 -1 36.5 -2t51.5 -1q26 0 66 2q34 2 43 2q13 0 21 -3t8 -9q0 -7 -7.5 -11.5
t-24.5 -9.5q-30 -9 -42 -15.5t-12 -18.5q0 -15 28 -52l92 -129q11 -15 17 -15t15 12l98 132q25 33 25 52q0 12 -10 20t-34 13q-33 9 -33 21q0 6 8.5 9t21.5 3q27 0 40 -1l45 -1q14 0 32.5 1t28.5 2q26 3 48 3q31 0 31 -12q0 -8 -7.5 -12t-24.5 -8q-44 -13 -116 -98
l-123 -148q-16 -17 -16 -28q0 -6 6 -17l160 -228q19 -29 44 -49t50 -27q34 -8 34 -22q0 -12 -28 -12q-33 0 -74 3q-15 1 -37 2t-50 1l-64 -1q-16 -1 -45 -1q-12 0 -20 3.5t-8 9.5q0 10 31 20q20 5 34.5 16.5t14.5 28.5q0 14 -11 29l-106 152q-11 14 -17 14t-13 -10
l-120 -160q-12 -17 -12 -33q1 -14 13 -24t32 -14q32 -8 32 -21q0 -12 -29 -12q-26 0 -42 1l-51 1q-15 0 -35.5 -1.5t-30.5 -1.5q-28 -3 -55 -3q-13 0 -21 3.5z" />
    <glyph glyph-name="Y" unicode="Y" horiz-adv-x="605" 
d="M157 7q0 14 32 20q74 13 74 82v144q0 36 -27 84l-121 194q-21 33 -41.5 57.5t-43.5 30.5q-16 6 -23 10.5t-7 11.5q0 12 26 12q17 0 59 -2q46 -2 74 -2q19 0 53 2q30 2 43 2q12 0 20 -3t8 -9q0 -13 -31 -21q-21 -5 -30 -11t-9 -18q0 -13 12 -36l96 -173q16 -30 25 -30
q5 0 10.5 6t16.5 24q31 51 86 153q16 28 16 47q0 18 -13.5 26.5t-32.5 10.5q-11 2 -21.5 8t-10.5 13q0 6 8 9t21 3l43 -1q13 -1 41 -1q23 0 61 2q30 2 42 2q30 0 30 -13q0 -7 -10.5 -11.5t-34.5 -11.5q-26 -7 -44.5 -25.5t-43.5 -57.5l-22 -34l-93 -150q-16 -28 -20.5 -45
t-4.5 -47v-150q0 -35 18 -54.5t57 -27.5q16 -3 24 -7.5t8 -11.5q0 -13 -29 -13q-18 0 -38 1.5t-30 1.5q-30 3 -60 3q-32 0 -64 -3q-10 0 -31 -1.5t-39 -1.5q-29 0 -29 12z" />
    <glyph glyph-name="Yacute" unicode="&#xdd;" horiz-adv-x="605" 
d="M157 7q0 14 32 20q74 13 74 82v144q0 36 -27 84l-121 194q-21 33 -41.5 57.5t-43.5 30.5q-16 6 -23 10.5t-7 11.5q0 12 26 12q17 0 59 -2q46 -2 74 -2q19 0 53 2q30 2 43 2q12 0 20 -3t8 -9q0 -13 -31 -21q-21 -5 -30 -11t-9 -18q0 -13 12 -36l96 -173q16 -30 25 -30
q5 0 10.5 6t16.5 24q31 51 86 153q16 28 16 47q0 18 -13.5 26.5t-32.5 10.5q-11 2 -21.5 8t-10.5 13q0 6 8 9t21 3l43 -1q13 -1 41 -1q23 0 61 2q30 2 42 2q30 0 30 -13q0 -7 -10.5 -11.5t-34.5 -11.5q-26 -7 -44.5 -25.5t-43.5 -57.5l-22 -34l-93 -150q-16 -28 -20.5 -45
t-4.5 -47v-150q0 -35 18 -54.5t57 -27.5q16 -3 24 -7.5t8 -11.5q0 -13 -29 -13q-18 0 -38 1.5t-30 1.5q-30 3 -60 3q-32 0 -64 -3q-10 0 -31 -1.5t-39 -1.5q-29 0 -29 12zM292 691q0 7 7 17q51 75 88 121q9 13 29 13q15 -1 39.5 -10t23.5 -18q-1 -6 -4 -10t-11 -10
q-31 -24 -91 -65q-36 -24 -52 -36q-13 -9 -21 -9t-8 7z" />
    <glyph glyph-name="Ycircumflex" unicode="&#x176;" horiz-adv-x="605" 
d="M157 7q0 14 32 20q74 13 74 82v144q0 36 -27 84l-121 194q-21 33 -41.5 57.5t-43.5 30.5q-16 6 -23 10.5t-7 11.5q0 12 26 12q17 0 59 -2q46 -2 74 -2q19 0 53 2q30 2 43 2q12 0 20 -3t8 -9q0 -13 -31 -21q-21 -5 -30 -11t-9 -18q0 -13 12 -36l96 -173q16 -30 25 -30
q5 0 10.5 6t16.5 24q31 51 86 153q16 28 16 47q0 18 -13.5 26.5t-32.5 10.5q-11 2 -21.5 8t-10.5 13q0 6 8 9t21 3l43 -1q13 -1 41 -1q23 0 61 2q30 2 42 2q30 0 30 -13q0 -7 -10.5 -11.5t-34.5 -11.5q-26 -7 -44.5 -25.5t-43.5 -57.5l-22 -34l-93 -150q-16 -28 -20.5 -45
t-4.5 -47v-150q0 -35 18 -54.5t57 -27.5q16 -3 24 -7.5t8 -11.5q0 -13 -29 -13q-18 0 -38 1.5t-30 1.5q-30 3 -60 3q-32 0 -64 -3q-10 0 -31 -1.5t-39 -1.5q-29 0 -29 12zM187 706q0 7 7 13l101 87q17 15 25 19.5t19 4.5t19 -4.5t25 -19.5l101 -87q6 -5 6 -13q0 -12 -15 -12
q-10 0 -56 20.5t-69 33.5q-5 4 -11 4t-11 -4q-23 -13 -69 -33t-56 -20q-16 0 -16 11z" />
    <glyph glyph-name="Ydieresis" unicode="&#x178;" horiz-adv-x="605" 
d="M157 7q0 14 32 20q74 13 74 82v144q0 36 -27 84l-121 194q-21 33 -41.5 57.5t-43.5 30.5q-16 6 -23 10.5t-7 11.5q0 12 26 12q17 0 59 -2q46 -2 74 -2q19 0 53 2q30 2 43 2q12 0 20 -3t8 -9q0 -13 -31 -21q-21 -5 -30 -11t-9 -18q0 -13 12 -36l96 -173q16 -30 25 -30
q5 0 10.5 6t16.5 24q31 51 86 153q16 28 16 47q0 18 -13.5 26.5t-32.5 10.5q-11 2 -21.5 8t-10.5 13q0 6 8 9t21 3l43 -1q13 -1 41 -1q23 0 61 2q30 2 42 2q30 0 30 -13q0 -7 -10.5 -11.5t-34.5 -11.5q-26 -7 -44.5 -25.5t-43.5 -57.5l-22 -34l-93 -150q-16 -28 -20.5 -45
t-4.5 -47v-150q0 -35 18 -54.5t57 -27.5q16 -3 24 -7.5t8 -11.5q0 -13 -29 -13q-18 0 -38 1.5t-30 1.5q-30 3 -60 3q-32 0 -64 -3q-10 0 -31 -1.5t-39 -1.5q-29 0 -29 12zM200 709q-17 17 -17 41q0 25 17 41.5t41 16.5q25 0 42 -16.5t17 -41.5q0 -24 -17 -41t-42 -17
q-24 0 -41 17zM396 709q-17 17 -17 41q0 25 17 41.5t41 16.5q25 0 41.5 -16.5t16.5 -41.5q0 -24 -16.5 -41t-41.5 -17q-24 0 -41 17z" />
    <glyph glyph-name="Ygrave" unicode="&#x1ef2;" horiz-adv-x="605" 
d="M157 7q0 14 32 20q74 13 74 82v144q0 36 -27 84l-121 194q-21 33 -41.5 57.5t-43.5 30.5q-16 6 -23 10.5t-7 11.5q0 12 26 12q17 0 59 -2q46 -2 74 -2q19 0 53 2q30 2 43 2q12 0 20 -3t8 -9q0 -13 -31 -21q-21 -5 -30 -11t-9 -18q0 -13 12 -36l96 -173q16 -30 25 -30
q5 0 10.5 6t16.5 24q31 51 86 153q16 28 16 47q0 18 -13.5 26.5t-32.5 10.5q-11 2 -21.5 8t-10.5 13q0 6 8 9t21 3l43 -1q13 -1 41 -1q23 0 61 2q30 2 42 2q30 0 30 -13q0 -7 -10.5 -11.5t-34.5 -11.5q-26 -7 -44.5 -25.5t-43.5 -57.5l-22 -34l-93 -150q-16 -28 -20.5 -45
t-4.5 -47v-150q0 -35 18 -54.5t57 -27.5q16 -3 24 -7.5t8 -11.5q0 -13 -29 -13q-18 0 -38 1.5t-30 1.5q-30 3 -60 3q-32 0 -64 -3q-10 0 -31 -1.5t-39 -1.5q-29 0 -29 12zM349 693q-16 12 -52 36q-60 41 -91 65q-8 6 -11 10t-4 10q-1 9 23.5 18t39.5 10q20 0 29 -13
q37 -46 88 -121q7 -10 7 -17t-8 -7t-21 9z" />
    <glyph glyph-name="Z" unicode="Z" horiz-adv-x="601" 
d="M363 -3q-82 2 -122 2q-86 -2 -129 -2l-77 -1q-5 0 -7.5 8.5t-1.5 11.5q4 11 22 39.5t36 53.5q20 29 46 66.5t57 81.5q166 242 224 330q4 8 4 11q0 9 -18 9q-62 2 -122 2q-66 0 -91 -2q-32 -2 -62 -22t-46 -56q-8 -16 -15 -24t-18 -8t-11 13q0 8 7 27q22 56 28 122
q1 20 17 20q5 0 18 -7t20 -11q14 -6 37.5 -10t48.5 -4h123q100 0 230 4q5 0 10.5 -8t2.5 -12l-64 -91q-84 -119 -151.5 -219t-159.5 -244q-6 -10 -6 -17q0 -6 4 -10.5t11 -5.5q50 -4 100 -4q83 0 137 9q37 6 63.5 31.5t45.5 73.5q2 7 8.5 12.5t12.5 5.5q11 0 11 -13
t-13.5 -67t-22.5 -79q-7 -18 -21 -18q-48 0 -166 2z" />
    <glyph glyph-name="Zacute" unicode="&#x179;" horiz-adv-x="601" 
d="M363 -3q-82 2 -122 2q-86 -2 -129 -2l-77 -1q-5 0 -7.5 8.5t-1.5 11.5q4 11 22 39.5t36 53.5q20 29 46 66.5t57 81.5q166 242 224 330q4 8 4 11q0 9 -18 9q-62 2 -122 2q-66 0 -91 -2q-32 -2 -62 -22t-46 -56q-8 -16 -15 -24t-18 -8t-11 13q0 8 7 27q22 56 28 122
q1 20 17 20q5 0 18 -7t20 -11q14 -6 37.5 -10t48.5 -4h123q100 0 230 4q5 0 10.5 -8t2.5 -12l-64 -91q-84 -119 -151.5 -219t-159.5 -244q-6 -10 -6 -17q0 -6 4 -10.5t11 -5.5q50 -4 100 -4q83 0 137 9q37 6 63.5 31.5t45.5 73.5q2 7 8.5 12.5t12.5 5.5q11 0 11 -13
t-13.5 -67t-22.5 -79q-7 -18 -21 -18q-48 0 -166 2zM271 691q0 7 7 17q51 75 88 121q9 13 29 13q15 -1 39.5 -10t23.5 -18q-1 -6 -4 -10t-11 -10q-31 -24 -91 -65q-36 -24 -52 -36q-13 -9 -21 -9t-8 7z" />
    <glyph glyph-name="Zcaron" unicode="&#x17d;" horiz-adv-x="601" 
d="M363 -3q-82 2 -122 2q-86 -2 -129 -2l-77 -1q-5 0 -7.5 8.5t-1.5 11.5q4 11 22 39.5t36 53.5q20 29 46 66.5t57 81.5q166 242 224 330q4 8 4 11q0 9 -18 9q-62 2 -122 2q-66 0 -91 -2q-32 -2 -62 -22t-46 -56q-8 -16 -15 -24t-18 -8t-11 13q0 8 7 27q22 56 28 122
q1 20 17 20q5 0 18 -7t20 -11q14 -6 37.5 -10t48.5 -4h123q100 0 230 4q5 0 10.5 -8t2.5 -12l-64 -91q-84 -119 -151.5 -219t-159.5 -244q-6 -10 -6 -17q0 -6 4 -10.5t11 -5.5q50 -4 100 -4q83 0 137 9q37 6 63.5 31.5t45.5 73.5q2 7 8.5 12.5t12.5 5.5q11 0 11 -13
t-13.5 -67t-22.5 -79q-7 -18 -21 -18q-48 0 -166 2zM239 811q46 -20 69 -33q8 -4 11 -4t11 4q23 13 69 33.5t56 20.5q15 0 15 -12q0 -8 -6 -13l-101 -83q-19 -16 -26 -20.5t-18 -4.5t-18 4.5t-26 20.5l-101 83q-7 6 -7 13q0 11 16 11q10 0 56 -20z" />
    <glyph glyph-name="Zdotaccent" unicode="&#x17b;" horiz-adv-x="601" 
d="M363 -3q-82 2 -122 2q-86 -2 -129 -2l-77 -1q-5 0 -7.5 8.5t-1.5 11.5q4 11 22 39.5t36 53.5q20 29 46 66.5t57 81.5q166 242 224 330q4 8 4 11q0 9 -18 9q-62 2 -122 2q-66 0 -91 -2q-32 -2 -62 -22t-46 -56q-8 -16 -15 -24t-18 -8t-11 13q0 8 7 27q22 56 28 122
q1 20 17 20q5 0 18 -7t20 -11q14 -6 37.5 -10t48.5 -4h123q100 0 230 4q5 0 10.5 -8t2.5 -12l-64 -91q-84 -119 -151.5 -219t-159.5 -244q-6 -10 -6 -17q0 -6 4 -10.5t11 -5.5q50 -4 100 -4q83 0 137 9q37 6 63.5 31.5t45.5 73.5q2 7 8.5 12.5t12.5 5.5q11 0 11 -13
t-13.5 -67t-22.5 -79q-7 -18 -21 -18q-48 0 -166 2zM273 712.5q-19 18.5 -19 43.5q0 26 19 44.5t45 18.5q28 0 47 -18.5t19 -44.5t-19 -44t-47 -18q-26 0 -45 18.5z" />
    <glyph glyph-name="uni0122" unicode="&#x122;" horiz-adv-x="726" 
d="M214 28.5q-80 42.5 -127.5 117t-47.5 166.5q0 95 49 175.5t134.5 128t188.5 47.5q37 0 106.5 -11.5t93.5 -22.5q6 -2 8.5 -5.5t4.5 -10.5q10 -84 10 -110q0 -8 -4.5 -14t-10.5 -6q-10 0 -15 6t-10 19q-15 36 -37 61q-17 19 -54 35t-93 16q-73 0 -129.5 -40t-87 -106.5
t-30.5 -143.5q0 -91 32 -159.5t86.5 -105t120.5 -36.5q68 0 103 32q12 11 20 30.5t8 42.5q0 20 1 33l1 34q0 25 -11 32q-12 11 -39.5 18.5t-46.5 8.5q-7 1 -14.5 6.5t-7.5 12.5q0 6 7.5 11t13.5 5q24 0 66 -2q44 -2 70 -2q17 0 49 2t52 2q6 0 12.5 -4t6.5 -12q0 -7 -6.5 -12
t-13.5 -7q-23 -7 -33 -17.5t-13 -31.5q-5 -36 -5 -75v-29q0 -6 3.5 -10.5t4.5 -6.5q2 -3 7 -9t5 -10q0 -17 -16 -19q-9 -2 -28 -12q-48 -23 -98 -38.5t-113 -15.5q-93 0 -173 42.5zM340 -270q0 9 15 14q25 9 39.5 28t14.5 41q0 20 -10 29t-34 15q-19 5 -28.5 15.5t-9.5 30.5
q0 18 14 30t37 12q39 0 65 -28t26 -73q0 -37 -20 -65t-47 -43.5t-46 -15.5q-16 0 -16 10z" />
    <glyph glyph-name="uni0136" unicode="&#x136;" horiz-adv-x="710" 
d="M34.5 -1.5q-8.5 3.5 -8.5 9.5q0 7 7.5 11.5t23.5 7.5q38 7 51.5 22t13.5 51v451q0 33 -14 47.5t-53 22.5q-29 6 -29 20q0 6 7.5 9.5t18.5 3.5q27 0 67 -2l56 -1q32 0 48 1l66 1q25 0 25 -12q0 -14 -29 -20q-36 -8 -46.5 -23t-10.5 -47v-193q0 -6 2 -12t5 -6q9 0 26 17
l197 205q17 17 17 31q0 19 -27 25q-15 4 -21.5 9t-6.5 12q0 6 7.5 9t18.5 3h59q42 0 112 2l63 2q10 0 16.5 -3.5t6.5 -8.5q0 -15 -32 -21q-94 -15 -152 -64q-47 -39 -88 -79t-98 -100q-3 -3 -3 -8q0 -7 7 -14l241 -261q31 -34 49.5 -47t57.5 -22q18 -4 25.5 -8t7.5 -11
q0 -13 -33 -13q-21 0 -43.5 1.5t-33.5 1.5q-36 3 -76 3l-39 -1q-30 -2 -57 -2q-26 0 -26 13q0 12 25 18q32 7 32 23q0 10 -15 27l-195 219q-16 16 -23 16q-6 0 -6 -19q0 -89 4 -188q2 -35 14.5 -53.5t47.5 -26.5q16 -3 23.5 -7.5t7.5 -11.5q0 -6 -8 -9.5t-21 -3.5
q-39 0 -67 5q-7 0 -19.5 1.5t-24.5 1.5q-21 0 -57 -4q-42 -4 -73 -4q-12 0 -20.5 3.5zM304 -270q0 9 15 14q25 9 39.5 28t14.5 41q0 20 -10 29t-34 15q-19 5 -28.5 15.5t-9.5 30.5q0 18 14 30t37 12q39 0 65 -28t26 -73q0 -37 -20 -65t-47 -43.5t-46 -15.5q-16 0 -16 10z
" />
    <glyph glyph-name="uni013B" unicode="&#x13b;" horiz-adv-x="585" 
d="M31.5 -1q-6.5 4 -6.5 9q0 11 21 18q40 9 57.5 24t17.5 46v461q0 24 -5 35.5t-17 17.5t-40 11q-29 6 -29 20q0 13 26 13q27 0 67 -2q36 -2 56 -2l64 1q44 2 70 2q25 0 25 -12q0 -14 -29 -20q-45 -10 -63.5 -21t-18.5 -38v-463q0 -31 14.5 -44.5t54.5 -13.5h116
q24 0 43.5 7.5t32.5 18.5q18 17 29 32.5t23 41.5q8 16 13 23.5t11 7.5t9.5 -6t3.5 -13q0 -3 -1 -5.5t-1 -5.5q-14 -50 -19.5 -74.5t-8.5 -54.5q-2 -18 -15 -18q-52 0 -172 2q-88 3 -172 3q-47 0 -107 -4l-31 -1q-12 0 -18.5 4zM250 -270q0 9 15 14q25 9 39.5 28t14.5 41
q0 20 -10 29t-34 15q-19 5 -28.5 15.5t-9.5 30.5q0 18 14 30t37 12q39 0 65 -28t26 -73q0 -37 -20 -65t-47 -43.5t-46 -15.5q-16 0 -16 10z" />
    <glyph glyph-name="uni0145" unicode="&#x145;" horiz-adv-x="777" 
d="M631 -1q-27 17 -50 49l-108 124q-246 283 -267 306q-11 15 -18 15q-4 0 -6 -6.5t-2 -14.5q-2 -192 -2 -365q0 -66 70 -80q31 -7 31 -19t-28 -12q-30 0 -60 2q-24 2 -40 2q-20 0 -46 -2t-45 -2q-28 0 -28 12q0 7 7 11t24 9q50 14 55 81q7 68 13 177t6 221q0 49 -24 73
t-72 40q-9 3 -19.5 9t-10.5 14t7.5 11.5t16.5 3.5q42 0 75 -3q54 -2 94 -2q7 0 11.5 -3.5t10.5 -11.5l117 -140q64 -76 140 -166.5t129 -152.5q15 -18 22 -18q9 0 10 19v226v155q-1 21 -20 36.5t-44 21.5q-16 3 -27 8t-11 12q0 6 11 9t24 3h71l49 1q32 2 64 2q27 0 27 -13
q0 -14 -31 -20q-36 -7 -49 -18.5t-14 -37.5q-5 -270 -5 -441q0 -28 5 -83l2 -27q0 -32 -24 -32q-14 0 -41 17zM346 -270q0 9 15 14q25 9 39.5 28t14.5 41q0 20 -10 29t-34 15q-19 5 -28.5 15.5t-9.5 30.5q0 18 14 30t37 12q39 0 65 -28t26 -73q0 -37 -20 -65t-47 -43.5
t-46 -15.5q-16 0 -16 10z" />
    <glyph glyph-name="uni0156" unicode="&#x156;" horiz-adv-x="730" 
d="M548.5 -5q-37.5 16 -64.5 51q-41 51 -71 94t-72 114q-13 24 -37 37q-25 12 -63 17q-14 0 -14 -20v-181q0 -33 16.5 -53t54.5 -27q15 -3 22 -7.5t7 -11.5q0 -12 -26 -12q-10 0 -67 3q-25 3 -51 3q-34 0 -66 -3q-10 0 -31 -1.5t-39 -1.5q-26 0 -26 12q0 7 7 11.5t22 7.5
q39 7 55 22.5t16 49.5v434q0 36 -4 52.5t-16 24t-40 11.5q-15 1 -22.5 7t-7.5 13q0 6 7.5 9.5t18.5 3.5q32 0 64 -2l48 -1q17 0 47 2q38 4 76 4q113 0 172 -41t59 -122q0 -61 -35 -100.5t-86 -62.5q-3 -1 -3 -5l2 -8q60 -91 99.5 -142.5t95.5 -102.5q26 -24 53 -30t71 -6
q15 0 15 -14q0 -23 -29 -33.5t-66 -10.5q-54 0 -91.5 16zM374.5 375q37.5 41 37.5 101q0 71 -29 108.5t-105 37.5q-28 0 -37.5 -19t-11.5 -74q-2 -64 -2 -159q0 -22 11.5 -29t36.5 -7q62 0 99.5 41zM316 -270q0 9 15 14q25 9 39.5 28t14.5 41q0 20 -10 29t-34 15
q-19 5 -28.5 15.5t-9.5 30.5q0 18 14 30t37 12q39 0 65 -28t26 -73q0 -37 -20 -65t-47 -43.5t-46 -15.5q-16 0 -16 10z" />
    <glyph glyph-name="uni0162" unicode="&#x162;" horiz-adv-x="679" 
d="M184 8q0 7 7 11.5t23 7.5q40 7 58 24t18 50v396q0 63 -4 84t-15 24q-16 4 -62 4h-39q-27 0 -52.5 -12t-37.5 -32q-28 -42 -46 -42q-10 0 -10 14q0 8 6 22q16 31 23 55.5t11 57.5q3 24 20 24q5 0 14.5 -14t12.5 -19q7 -9 28.5 -14t42.5 -5l361 1q57 0 85 14q12 8 16 12
q2 1 9.5 6.5t17.5 5.5q4 0 6 -6.5t2 -14.5q0 -7 -3 -25l-7 -30q-3 -11 -5 -21.5t-2 -23.5v-14q0 -13 -4.5 -23.5t-11.5 -10.5q-8 0 -12.5 9.5t-10.5 31.5q-6 27 -27.5 40.5t-66.5 13.5h-84q-22 0 -32 -6.5t-13.5 -29.5t-3.5 -76v-396q0 -32 18.5 -48.5t58.5 -25.5
q15 -3 22 -7.5t7 -11.5q0 -12 -26 -12q-37 0 -69 3q-40 2 -60 2q-23 0 -65 -2q-33 -3 -71 -3q-27 0 -27 12zM245 -266.5q-12 8.5 -12 27.5q0 15 5.5 24t12.5 9q2 0 16 -6.5t46 -6.5q20 0 31.5 10.5t11.5 28.5q0 24 -12.5 36.5t-35.5 12.5q-6 0 -13.5 -2t-11.5 -2
q-12 0 -19.5 6.5t-7.5 12.5q0 8 6 16l84 108h37l-37 -53q-4 -5 -4 -10q0 -7 10 -12q26 -9 45.5 -32t19.5 -54q0 -32 -22.5 -60.5t-55 -45t-58.5 -16.5q-24 0 -36 8.5z" />
    <glyph glyph-name="uni0181" unicode="&#x181;" horiz-adv-x="679" 
d="M110 -2q-7 3 -7 9q0 13 29 19q39 8 56 23.5t17 48.5v474q0 23 -7.5 33.5t-28.5 10.5q-45 0 -73 -15t-28 -45q0 -12 7 -21t20 -20q2 -2 9 -8t10.5 -11.5t3.5 -11.5q0 -15 -20 -31.5t-32 -16.5q-20 0 -38.5 27t-18.5 53q0 67 53 101.5t168 34.5q27 0 53 1.5t37 1.5
q35 3 70 3q98 0 155.5 -36t57.5 -114q0 -31 -11.5 -57t-28.5 -42q-16 -15 -31 -24t-38 -17q-4 -2 -4 -5.5t4 -4.5q65 -18 106.5 -52.5t41.5 -111.5q0 -51 -16 -84t-37.5 -49.5t-50.5 -31.5q-68 -33 -165 -33q-10 0 -42 2q-40 2 -68 2q-22 0 -64 -2q-31 -3 -70 -3
q-12 0 -19 3zM455 399q14 9 27 33t13 62q0 56 -30.5 91.5t-99.5 35.5q-35 0 -45 -9.5t-10 -33.5v-171q0 -21 13.5 -29t30.5 -8q59 0 101 29zM450.5 61.5q32.5 19.5 52.5 53t20 73.5q0 82 -65 124q-15 10 -39.5 17t-55.5 7q-25 0 -39 -11t-14 -24v-191q0 -37 18 -52.5
t54 -15.5t68.5 19.5z" />
    <glyph glyph-name="uni0182" unicode="&#x182;" horiz-adv-x="603" 
d="M39 -2q-7 3 -7 9q0 13 29 19q39 8 56 23.5t17 47.5v453q0 34 -14 48.5t-53 22.5q-29 6 -29 20q0 6 7.5 9.5t18.5 3.5q26 0 68 -2q38 -2 59 -2h259l20 2.5t21 2.5q7 0 11 -4.5t4 -9.5q0 -24 4 -60q1 -10 2 -23.5t1 -29.5q0 -10 -4.5 -15.5t-9.5 -5.5t-13 8.5t-10 16.5
q-6 26 -13 42.5t-23.5 28.5t-45.5 12h-117q-17 0 -27 -12.5t-10 -34.5v-160q0 -24 4 -35t14 -11q4 0 7 1q51 14 100 14q93 0 147 -48t54 -134q0 -51 -16 -83.5t-35.5 -48.5t-49.5 -33q-58 -34 -160 -34l-28 2q-60 5 -103 5q-18 0 -52 -4q-36 -4 -64 -4q-12 0 -19 3z
M376.5 62.5q32.5 19.5 52.5 53.5t20 75q0 50 -20.5 80.5t-46.5 44.5q-38 24 -93 24q-49 0 -49 -35v-194q0 -32 18 -50t51 -18q35 0 67.5 19.5z" />
    <glyph glyph-name="uni0184" unicode="&#x184;" horiz-adv-x="580" 
d="M11 7q0 13 29 19q38 8 55.5 23.5t17.5 47.5v376q0 34 -16 57.5t-49 39.5q-15 8 -21.5 14t-6.5 12q0 15 23 19q61 8 131 39q28 11 31 11q13 0 16 -5t3 -18q0 -16 -3 -40l-2 -35v-158q0 -23 4 -34t14 -11q4 0 7 1q51 14 99 14q92 0 146.5 -48.5t54.5 -134.5
q0 -98 -71.5 -149t-188.5 -51l-28 2q-60 5 -103 5q-19 0 -53 -4q-36 -4 -63 -4q-26 0 -26 12zM355 62q32 19 52 53t20 75q0 47 -19.5 77t-46.5 47q-41 23 -93 23q-49 0 -49 -34v-193q0 -32 18 -49.5t51 -17.5q35 0 67 19z" />
    <glyph glyph-name="uni0186" unicode="&#x186;" horiz-adv-x="710" 
d="M485 622.5q84 -42.5 134.5 -119t50.5 -174.5q0 -94 -52 -172.5t-142 -124t-198 -45.5q-51 0 -89 7t-91 22q-13 4 -19.5 11.5t-7.5 20.5q-6 58 -9 116q0 7 5.5 11.5t11.5 4.5q15 0 19 -15q10 -38 22.5 -62t33.5 -40q49 -38 138 -38q73 0 130.5 39t90 103t32.5 137
q0 85 -31.5 159t-90 118.5t-136.5 44.5q-71 0 -118 -31t-80 -95q-8 -14 -21 -14q-6 0 -10 4t-4 12q0 14 7.5 45t17.5 58q6 13 11 18t19 10q37 15 88.5 23.5t106.5 8.5q97 0 181 -42.5z" />
    <glyph glyph-name="uni0187" unicode="&#x187;" horiz-adv-x="691" 
d="M207.5 30q-77.5 45 -122.5 122t-45 169q0 94 49.5 172.5t135.5 124t191 45.5q36 0 61 -4t54 -12q27 -6 36 -7h4q8 0 9 8q12 38 42 57.5t66 19.5q51 0 73.5 -15t22.5 -38q0 -17 -14 -31.5t-29 -14.5q-11 0 -20 6.5t-21 19.5q-13 16 -21 22.5t-20 6.5q-25 0 -35.5 -20.5
t-10.5 -60.5q0 -8 2 -34q4 -46 4 -81q0 -7 -5.5 -11t-13.5 -4q-6 0 -10.5 3t-5.5 8q-6 32 -17 57.5t-23 36.5q-17 18 -52 34t-91 16q-70 0 -124 -39t-83.5 -103t-29.5 -137q0 -85 29 -159t84 -118.5t129 -44.5q73 0 116 34.5t70 91.5q6 13 21 13q6 0 10 -3t4 -9
q0 -18 -10 -57.5t-20 -59.5q-2 -5 -10 -9.5t-16.5 -7.5t-15.5 -6q-27 -13 -74.5 -19.5t-102.5 -6.5q-93 0 -170.5 45z" />
    <glyph glyph-name="uni0189" unicode="&#x189;" horiz-adv-x="758" 
d="M558.5 617.5q83.5 -41.5 125.5 -113.5t42 -164q0 -93 -45.5 -172.5t-126 -127t-179.5 -47.5q-28 0 -78 3q-86 4 -128 4q-18 0 -52 -2q-38 -2 -66 -2q-26 0 -26 13q0 8 6.5 11.5t22.5 6.5q38 7 52.5 22t14.5 49v215h-62q-8 0 -12.5 7.5t-4.5 14.5q0 9 7.5 15.5t18.5 6.5
h53v193q0 34 -14 48.5t-53 22.5q-16 3 -22.5 7t-6.5 12q0 7 7 10.5t19 3.5q25 0 63 -2l59 -1q23 0 99 4q68 4 84 4q119 0 202.5 -41.5zM490.5 70q55.5 36 85.5 100.5t30 148.5q0 91 -35 159.5t-94 105t-128 36.5q-48 0 -71.5 -2.5t-37 -14t-13.5 -36.5v-210h146q6 0 11 -4
t5 -10l-1 -3q-12 -27 -34 -27h-127v-188q0 -52 36 -71.5t99 -19.5q73 0 128.5 36z" />
    <glyph glyph-name="uni018A" unicode="&#x18a;" horiz-adv-x="820" 
d="M379 -6q-25 1 -37 2q-56 4 -89 4q-18 0 -52 -2q-38 -2 -66 -2q-26 0 -26 12q0 7 7 11.5t22 7.5q38 7 52 22t14 49v460q0 33 -6.5 45.5t-28.5 12.5q-45 0 -73 -15t-28 -45q0 -12 7 -21t20 -20q2 -2 9 -8t10.5 -11.5t3.5 -11.5q0 -15 -20 -31.5t-32 -16.5q-20 0 -38.5 27
t-18.5 53q0 67 53 101.5t168 34.5q29 0 57.5 1t50.5 2q51 3 82 3q118 0 200.5 -39.5t125 -113t42.5 -174.5q0 -98 -48 -175t-131.5 -120t-185.5 -43q-19 0 -44 1zM556.5 71q52.5 37 82 101.5t29.5 145.5q0 86 -31 154t-91.5 106.5t-146.5 38.5q-37 0 -55.5 -6t-25.5 -21
t-7 -44v-421q0 -54 30 -72.5t97 -18.5q66 0 118.5 37z" />
    <glyph glyph-name="uni018B" unicode="&#x18b;" horiz-adv-x="587" 
d="M478 -1q-34 4 -53 4q-26 0 -51 -1t-45 -2q-45 -3 -73 -3q-104 0 -162 49t-58 133q0 57 31 102.5t83.5 71.5t114.5 26q52 0 79 -16q3 -2 10 -2q5 0 6 11t1 39v162q0 13 -11 25t-24 12h-100q-43 0 -64 -18.5t-36 -59.5q-4 -11 -11 -21t-14 -10q-5 0 -10.5 6t-5.5 16
q0 22 7 62q6 40 7 61q0 6 3.5 11t9.5 5q4 0 29 -8.5t63 -8.5h213q25 0 67 4q38 4 53 4q26 0 26 -12q0 -14 -29 -20q-39 -8 -53 -22.5t-14 -48.5v-452q0 -32 17.5 -47.5t56.5 -23.5q15 -3 22 -7.5t7 -11.5q0 -13 -25 -13q-27 0 -67 4zM341 52.5q20 21.5 20 54.5v153
q0 80 -102 80q-22 0 -40.5 -7t-28.5 -17q-19 -19 -28.5 -42.5t-9.5 -74.5q0 -76 37 -122t100 -46q32 0 52 21.5z" />
    <glyph glyph-name="uni018E" unicode="&#x18e;" horiz-adv-x="568" 
d="M537 7q0 13 -29 19q-38 8 -54 23.5t-16 48.5v452q0 34 14 48.5t51 22.5q29 6 29 20q0 6 -7 9.5t-19 3.5q-35 0 -87 -2q-50 -2 -80 -2q-67 0 -165 2q-33 0 -56.5 1.5t-26.5 1.5q-7 0 -13 -3t-7 -9l-5 -30q-11 -57 -11 -82q0 -9 4.5 -13t9.5 -4q9 0 14 12q1 4 6.5 19.5
t10.5 25.5t10 16q27 28 68 28h112q14 0 28 -10.5t14 -25.5v-204q0 -10 -6 -16t-15 -6h-94q-27 0 -38.5 12t-19.5 41q-7 20 -19 20q-5 0 -9 -5t-4 -13q4 -56 4 -73q0 -37 -3 -79v-4q0 -16 9 -16q16 0 24 29q7 27 17.5 39.5t29.5 12.5h93q17 0 24 -5.5t7 -20.5v-191
q0 -34 -14.5 -48t-46.5 -14h-79q-58 0 -85 19q-16 11 -29 29t-28 49q-8 13 -17 12q-11 0 -11 -16t10 -52.5t21 -67.5q7 -16 17 -16q70 0 150 3q27 1 69.5 2t98.5 1q28 0 57 -3q57 -3 66 -3q26 0 26 12z" />
    <glyph glyph-name="uni0190" unicode="&#x190;" horiz-adv-x="526" 
d="M153 8.5q-53 22.5 -86.5 65t-33.5 98.5q0 78 41.5 123.5t97.5 63.5q4 1 4 4.5t-4 5.5q-98 40 -98 126q0 52 32.5 90.5t84.5 58.5t107 20q40 0 67 -5.5t71 -18.5q12 -4 15 -22q9 -57 9 -101q0 -8 -4 -15.5t-9 -7.5q-6 0 -14.5 7t-10.5 16q-14 58 -45 85t-84 27
q-36 0 -62.5 -18.5t-40.5 -47t-14 -59.5q0 -51 23 -90t59 -39q21 0 41 4q15 3 41 3q13 0 27.5 -8t14.5 -21q0 -24 -45 -24q-27 0 -43 3q-7 1 -16.5 3t-16.5 2q-53 0 -81 -39.5t-28 -96.5q0 -47 18.5 -87.5t52.5 -64.5t78 -24q48 0 81.5 23.5t53.5 74.5q18 47 25 47
q8 0 15 -4.5t7 -11.5q0 -26 -10 -78l-4 -22q-2 -13 -12 -23t-23 -15q-66 -30 -171 -30q-57 0 -110 22.5z" />
    <glyph glyph-name="uni0191" unicode="&#x191;" horiz-adv-x="529" 
d="M-44.5 -186.5q-29.5 13.5 -29.5 38.5q0 18 15 34.5t29 16.5q24 0 45 -24q17 -22 26.5 -30t21.5 -8q63 0 63 161v528q0 43 -12.5 63.5t-48.5 27.5q-29 6 -29 20q0 6 7 9.5t19 3.5q33 0 85 -2q50 -2 79 -2h143q31 0 71 6q30 4 39 4q7 0 13 -3t7 -9q2 -21 3.5 -58t1.5 -59
q0 -10 -2.5 -15.5t-7.5 -5.5t-10 3.5t-7 9.5q-12 44 -27 59q-24 27 -69 27h-108q-22 0 -31 -13t-10 -36q-1 -24 -1 -90t1 -92q0 -23 15 -23l64 1q18 1 45 1q41 0 60 44q2 6 8.5 11.5t10.5 5.5t9 -5t4 -13q-4 -33 -4 -63q0 -27 3 -71v-5q0 -15 -9 -15q-8 0 -14.5 7.5
t-8.5 15.5q-14 43 -48 43l-49 1l-63 -1q-24 -2 -24 -25l3 -175q0 -75 -20 -142t-56 -110q-47 -60 -116 -60q-57 0 -86.5 13.5z" />
    <glyph glyph-name="uni0193" unicode="&#x193;" horiz-adv-x="765" 
d="M215 30.5q-81 44.5 -128.5 122t-47.5 172.5q0 93 49.5 170.5t135 122.5t187.5 45q41 0 101.5 -11.5t65.5 -12.5q5 0 8.5 1.5t5.5 8.5q13 37 42.5 56.5t65.5 19.5q50 0 72.5 -15t22.5 -38q0 -17 -14 -31.5t-29 -14.5q-11 0 -20 6.5t-21 19.5q-13 16 -21 22.5t-20 6.5
q-45 0 -45 -79q0 -10 4 -46q5 -32 5 -53q0 -8 -4.5 -14t-10.5 -6q-10 0 -15 6t-10 19q-15 36 -37 61q-17 19 -54 35t-93 16q-72 0 -128 -36.5t-87.5 -99.5t-31.5 -139q0 -84 27.5 -156.5t80.5 -116t126 -43.5q63 0 113 32q23 17 23 73q0 20 1 33l1 34q0 25 -11 32
q-12 11 -39.5 18.5t-46.5 8.5q-7 1 -14.5 6.5t-7.5 12.5q0 6 7.5 11t13.5 5q24 0 66 -2q44 -2 70 -2q17 0 49 2t52 2q6 0 12.5 -4t6.5 -12q0 -7 -6.5 -12t-13.5 -7q-23 -7 -33 -17.5t-13 -31.5q-5 -36 -5 -75v-29q0 -6 3.5 -10.5t4.5 -6.5q2 -3 7 -9t5 -10q0 -5 -4.5 -11
t-11.5 -8q-23 -7 -58 -22q-54 -22 -92 -33t-84 -11q-96 0 -177 44.5z" />
    <glyph glyph-name="uni0196" unicode="&#x196;" horiz-adv-x="376" 
d="M144 31q-33 42 -33 121v398q0 34 -13.5 48.5t-52.5 22.5q-29 6 -29 20q0 13 26 13q28 0 68 -2q38 -2 58 -2l55 1q40 2 68 2q25 0 25 -12q0 -14 -29 -20q-40 -8 -54.5 -23t-14.5 -48v-380q0 -66 16 -92t48 -26q31 0 71 35q10 8 16 8q7 0 13.5 -6t6.5 -14q0 -13 -13 -28
q-18 -22 -53 -40t-81 -18q-65 0 -98 42z" />
    <glyph glyph-name="uni0197" unicode="&#x197;" horiz-adv-x="350" 
d="M328 19.5q7 -4.5 7 -11.5q0 -12 -25 -12q-36 0 -68 3q-40 2 -60 2q-22 0 -64 -2q-33 -3 -70 -3q-26 0 -26 12q0 7 7 11.5t22 7.5q39 7 56.5 22.5t17.5 48.5v215h-64q-8 0 -12.5 7t-4.5 14q0 9 7.5 15.5t18.5 6.5h55v194q0 34 -14 48.5t-52 22.5q-29 6 -29 20q0 13 25 13
q27 0 69 -2q38 -2 58 -2l56 1q38 2 66 2q26 0 26 -12q0 -14 -29 -20q-40 -8 -55 -23t-15 -48v-194h73q6 0 11.5 -4t5.5 -9l-1 -4q-11 -26 -34 -26h-55v-215q0 -32 17.5 -47t57.5 -24q15 -3 22 -7.5z" />
    <glyph glyph-name="uni0198" unicode="&#x198;" horiz-adv-x="719" 
d="M34.5 -1.5q-8.5 3.5 -8.5 9.5q0 7 7.5 11.5t23.5 7.5q38 7 51.5 22t13.5 51v451q0 33 -14 47.5t-53 22.5q-29 6 -29 20q0 6 7.5 9.5t18.5 3.5q27 0 67 -2l56 -1q32 0 48 1l66 1q25 0 25 -12q0 -14 -29 -20q-36 -8 -46.5 -23t-10.5 -47v-193q0 -6 2 -12t5 -6q7 0 26 17
l203 222q42 44 78 64.5t80 20.5q52 0 78 -23t26 -60q0 -26 -13.5 -44.5t-36.5 -18.5q-24 0 -38 9.5t-25 28.5q-12 18 -20.5 26.5t-21.5 8.5t-25 -5.5t-29 -20.5q-103 -92 -182 -186q-4 -4 -4 -9q0 -7 7 -14l244 -260q30 -34 48.5 -47t58.5 -22q17 -4 24.5 -8t7.5 -11
q0 -13 -32 -13q-21 0 -44 1.5t-34 1.5q-34 3 -75 3l-39 -1q-32 -2 -58 -2q-11 0 -18.5 3.5t-7.5 9.5q0 12 25 18q33 7 33 23q0 9 -16 27l-198 219q-5 6 -12 11t-11 5q-6 0 -6 -19q0 -89 4 -188q2 -35 14.5 -53.5t47.5 -26.5q16 -3 23.5 -7.5t7.5 -11.5q0 -6 -8 -9.5
t-21 -3.5q-39 0 -67 5q-7 0 -19.5 1.5t-24.5 1.5q-21 0 -57 -4q-42 -4 -73 -4q-12 0 -20.5 3.5z" />
    <glyph glyph-name="uni019C" unicode="&#x19c;" horiz-adv-x="1060" 
d="M144.5 50.5q-50.5 63.5 -50.5 207.5v290q0 58 -56 71q-29 9 -29 22q0 6 7.5 9.5t18.5 3.5q15 0 53 -2q40 -2 63 -2q24 0 68 2l48 1q25 0 25 -13q0 -7 -6.5 -11t-22.5 -9q-25 -7 -44 -25.5t-19 -45.5v-275q0 -91 29 -157t97 -66q74 0 105.5 67t31.5 162v268q0 32 -15 48
t-42 23q-15 5 -22 10t-7 12q0 12 25 12l55 -1q42 -2 64 -2q24 0 66 2l47 1q11 0 18.5 -3t7.5 -9q0 -7 -7 -11.5t-22 -9.5q-23 -6 -42.5 -24.5t-19.5 -45.5v-287q0 -86 30.5 -149t95.5 -63q74 0 106 70t32 168v261q-1 33 -17 47t-49 23q-29 9 -29 20q0 13 26 13q31 0 48 -1
l52 -1q27 0 75 2t76 2q12 0 19 -3t7 -9q0 -15 -29 -19q-39 -8 -56 -23.5t-17 -48.5v-453q0 -33 14 -47t53 -22q29 -6 29 -21q0 -6 -7 -9t-19 -3q-28 0 -62 2q-28 2 -38 2q-16 0 -44 -4q-15 -3 -25 -3q-11 0 -11 13q0 6 2.5 17t3.5 20v20q0 16 -10 16q-4 0 -7.5 -3t-6.5 -8
q-59 -82 -144 -82q-76 0 -116.5 32.5t-66.5 77.5q-2 3 -4 5t-4 2q-6 0 -10 -8q-34 -54 -72.5 -81.5t-96.5 -27.5q-102 0 -152.5 63.5z" />
    <glyph glyph-name="uni019D" unicode="&#x19d;" horiz-adv-x="777" 
d="M-57.5 -202q-33.5 14 -33.5 36q0 20 10.5 38t24.5 18q20 0 31.5 -6t21.5 -21q22 -32 56 -32q88 0 88 359v42q-1 122 -11 275q-3 50 -26 73.5t-70 39.5q-9 2 -19.5 8.5t-10.5 14.5t7.5 11.5t16.5 3.5q42 0 75 -3q54 -2 93 -2q8 0 12.5 -3.5t10.5 -11.5l79 -97
q235 -291 294 -362q4 -6 10.5 -12t10.5 -6q9 0 10 19l1 226q0 104 -1 155q-1 21 -19.5 36.5t-43.5 21.5q-31 5 -31 20q0 6 7.5 9t19.5 3h71l49 1q32 2 64 2q27 0 27 -13q0 -7 -8.5 -14t-23.5 -9q-34 -7 -48 -19.5t-14 -38.5q-5 -264 -6 -421q0 -21 3 -96q1 -13 1 -29
q0 -32 -23 -32q-13 0 -38.5 17t-49.5 49q-30 38 -160 192.5t-201 237.5q-11 15 -18 15q-4 0 -6 -6.5t-2 -14.5l4 -118q6 -136 6 -198q0 -177 -33.5 -274.5t-124.5 -97.5q-49 0 -82.5 14z" />
    <glyph glyph-name="uni019F" unicode="&#x19f;" horiz-adv-x="762" 
d="M552.5 622.5q77.5 -41.5 124 -116.5t46.5 -171q0 -92 -40.5 -172t-119 -128.5t-187.5 -48.5q-89 0 -166.5 41.5t-124 116.5t-46.5 171q0 92 40.5 172t119 128.5t186.5 48.5q90 0 167.5 -41.5zM213.5 551.5q-53.5 -68.5 -53.5 -185.5v-10h438q-14 117 -73 190.5t-157 73.5
q-101 0 -154.5 -68.5zM548 97q54 69 54 188q0 18 -1 27h-439q11 -124 70.5 -204t159.5 -80q102 0 156 69z" />
    <glyph glyph-name="uni01A2" unicode="&#x1a2;" horiz-adv-x="934" 
d="M917 -258.5q7 -4.5 7 -11.5q0 -12 -25 -12q-27 0 -69 2q-38 2 -59 2q-23 0 -65 -2q-33 -3 -70 -3q-11 0 -18.5 3t-7.5 9q0 14 29 20q40 8 57.5 23t17.5 47l1 633q1 82 -33 124.5t-99 42.5q-39 0 -70 -13q58 -43 90.5 -113.5t32.5 -158.5q0 -92 -35.5 -171.5t-103.5 -128
t-163 -48.5q-78 0 -146 41.5t-108.5 116.5t-40.5 171q0 92 35.5 171.5t104 128t162.5 48.5q74 0 134 -33q57 33 127 33q109 0 164 -57.5t55 -175.5l-1 -610q0 -32 17.5 -47t57.5 -24q15 -3 22 -7.5zM477 99q39 66 39 186q0 97 -22 171.5t-65.5 117t-104.5 42.5
q-83 0 -124 -65.5t-41 -185.5q0 -94 23 -169.5t67.5 -119t107.5 -43.5q81 0 120 66z" />
    <glyph glyph-name="uni01A4" unicode="&#x1a4;" horiz-adv-x="655" 
d="M105 8q0 7 7 11.5t22 7.5q39 7 55 22.5t16 49.5v458q0 34 -7 46.5t-29 12.5q-45 0 -73 -14.5t-28 -45.5q0 -12 7 -21t20 -20q2 -2 9 -8t10.5 -11.5t3.5 -11.5q0 -15 -20 -31.5t-32 -16.5q-20 0 -38.5 27t-18.5 53q0 68 54 102t172 34q19 0 35 1t28 2q44 4 65 4
q119 0 193 -50t74 -145q0 -104 -57 -160.5t-170 -56.5q-19 0 -35 4.5t-16 14.5q0 5 4.5 8.5t10.5 3.5q18 -2 28 -2q64 0 95 46t31 129q0 85 -42 128t-106 43q-61 0 -61 -44l-1 -471q0 -35 16 -54t54 -26q15 -3 22 -7.5t7 -11.5q0 -12 -25 -12q-10 0 -67 3q-25 3 -51 3
q-34 0 -66 -3q-10 0 -31 -1.5t-39 -1.5q-26 0 -26 12z" />
    <glyph glyph-name="uni01A6" unicode="&#x1a6;" horiz-adv-x="647" 
d="M539 -108.5q-33 15.5 -62 51.5q-22 28 -47 65.5t-50 76.5l-39 61q-14 23 -37 35q-31 15 -63 17h-1q-13 0 -13 -20v-80q0 -32 17.5 -47t57.5 -24q15 -3 22 -7.5t7 -11.5q0 -12 -25 -12q-36 0 -68 3q-40 2 -60 2q-22 0 -64 -2q-33 -3 -70 -3q-26 0 -26 12q0 7 7 11.5
t22 7.5q39 7 56.5 22.5t17.5 48.5v452q0 34 -14 48.5t-52 22.5q-29 6 -29 20q0 13 25 13q27 0 69 -2q38 -2 58 -2l56 1q38 2 66 2q26 0 26 -12q0 -14 -29 -20q-38 -8 -54 -24.5t-16 -44.5q0 -2 3 -2t17.5 2t44.5 2q113 0 172 -42.5t59 -124.5q0 -53 -34.5 -98t-83.5 -69
q-7 -3 0 -10q17 -21 38.5 -53t27.5 -41q34 -53 60 -88.5t51 -57.5q26 -24 53 -30.5t70 -6.5q15 0 15 -13q0 -24 -28.5 -34t-65.5 -10q-54 0 -87 15.5zM375 271.5q36 40.5 36 109.5q0 60 -27 99t-94 39q-35 0 -49 -13.5t-14 -38.5v-200q0 -22 11.5 -29t36.5 -7q64 0 100 40.5
z" />
    <glyph glyph-name="uni01A7" unicode="&#x1a7;" horiz-adv-x="475" 
d="M413 31q13 11 15 21q11 32 13 119q0 7 -5.5 10.5t-14.5 3.5q-14 0 -18 -12q-20 -73 -60.5 -112t-90.5 -39t-80.5 32t-30.5 81q0 36 12.5 60.5t34.5 42t66 43.5q60 36 90.5 58t53.5 56.5t23 82.5q0 53 -26 95.5t-75.5 66.5t-116.5 24q-58 0 -113 -23q-17 -7 -23 -27
q-17 -68 -17 -106q0 -5 4.5 -8t11.5 -3q9 0 17 4t10 10q20 57 50.5 85.5t73.5 28.5q49 0 78.5 -26t29.5 -80q0 -37 -33 -66.5t-106 -73.5q-73 -45 -109 -87.5t-36 -108.5q0 -93 61 -145.5t164 -52.5q86 0 147 46z" />
    <glyph glyph-name="uni01A9" unicode="&#x1a9;" horiz-adv-x="607" 
d="M31.5 -1q-7.5 5 -7.5 15q0 4 35.5 41t64 65t40.5 40q104 103 147 149q2 3 2 7q0 5 -4 9q-85 84 -184.5 189.5t-99.5 113.5q0 10 5.5 15.5t12.5 5.5l68 -1q106 -2 170 -2q101 0 156 1q42 0 68 17q20 13 32 13q16 0 17 -19l10 -74q6 -37 8 -57v-7q0 -6 -2 -14
q-3 -11 -14 -7q-10 7 -18.5 24.5t-12.5 22.5q-15 30 -33.5 42.5t-51.5 14.5q-50 4 -118 6.5t-116 2.5q-19 0 -19 -7q0 -3 4 -9q29 -36 97 -105.5t122 -113.5q7 -6 7 -12q0 -7 -8 -15q-81 -77 -240 -238q-4 -4 -4 -8q0 -7 12 -9q60 -5 271 -5q39 0 62.5 11t41.5 43
q11 17 18 25.5t16 8.5q5 0 8 -4t3 -8l-1 -6q-13 -36 -26.5 -80t-18.5 -67q-2 -9 -5 -13.5t-10 -4.5q-21 0 -41 3q-24 2 -38 2q-64 1 -183 1q-81 0 -117 -1q-18 0 -33.5 -1.5t-21.5 -1.5q-24 -3 -51 -3q-12 0 -19.5 5z" />
    <glyph glyph-name="uni01AC" unicode="&#x1ac;" horiz-adv-x="686" 
d="M189 8q0 7 7 11.5t23 7.5q39 7 57.5 24t18.5 50v455q0 20 -4 31.5t-14 14.5q-12 3 -28 4t-36 1l-44 1q-44 1 -72.5 -14.5t-28.5 -46.5q0 -12 7 -21t20 -20q2 -2 9 -8t10.5 -11.5t3.5 -11.5q0 -15 -20 -31.5t-32 -16.5q-20 0 -38.5 27t-18.5 53q0 69 49 103t161 35h342
q22 0 38.5 4t24.5 10q12 9 22 19q8 7 16 13t15 6q4 0 6.5 -7t2.5 -15l-1 -13q-18 -61 -18 -105v-15q0 -12 -4.5 -22.5t-11.5 -10.5q-8 0 -13 9.5t-10 30.5q-6 29 -28 44.5t-65 15.5q-83 0 -110 -3q-24 -1 -24 -44v-461q0 -32 18.5 -48.5t58.5 -25.5q15 -3 22 -7.5t7 -11.5
q0 -12 -26 -12q-37 0 -69 3q-40 2 -60 2q-23 0 -65 -2q-33 -3 -71 -3q-27 0 -27 12z" />
    <glyph glyph-name="uni01AE" unicode="&#x1ae;" horiz-adv-x="681" 
d="M385 -167.5q-45 32.5 -69.5 84t-24.5 106.5l-1 474q0 63 -4 84t-15 24q-16 4 -62 4h-39q-27 0 -52.5 -12t-37.5 -32q-28 -42 -46 -42q-10 0 -10 14q0 8 6 22q15 30 22 54.5t12 58.5q3 24 20 24q5 0 14.5 -14t12.5 -19q7 -9 28.5 -14t42.5 -5l381 1q40 0 60 14
q-1 -1 19 16q8 7 16 13t15 6q4 0 6 -6.5t2 -14.5l-1 -12q-9 -35 -13.5 -57t-4.5 -42v-14q0 -13 -4.5 -23.5t-11.5 -10.5q-8 0 -12.5 9.5t-10.5 31.5q-6 27 -27.5 40.5t-66.5 13.5h-84q-22 0 -32 -6.5t-13.5 -29.5t-3.5 -76l1 -495q0 -161 65 -161q16 0 28 9.5t32 35.5
q20 25 37 25t31.5 -16.5t14.5 -36.5q0 -13 -15 -26.5t-41.5 -22.5t-59.5 -9q-59 0 -104 32.5z" />
    <glyph glyph-name="uni01B1" unicode="&#x1b1;" horiz-adv-x="776" 
d="M758 638l18 -52q27 -71 27 -88q0 -11 -11 -11q-15 0 -27 25q-15 29 -42.5 38.5t-70.5 9.5l-75 -2q-7 0 -8.5 -3.5t1.5 -8.5q82 -41 127 -107t45 -152t-44.5 -155t-119.5 -108t-164 -39q-83 0 -156.5 37.5t-118 103.5t-44.5 147q0 88 45 157.5t126 112.5q5 3 7.5 9.5
t-1.5 7.5h-96q-77 0 -106 -55q-7 -13 -13.5 -19.5t-14.5 -6.5q-5 0 -8 3.5t-3 8.5q0 16 25 79q20 56 23 68q4 16 17 16q11 0 33 -2q28 -2 47 -2l81 -1q18 -1 31.5 -0.5t23.5 0.5h47q7 0 7 -11q0 -15 -8.5 -35.5t-20.5 -29.5q-48 -38 -83.5 -110t-35.5 -148q0 -74 25 -141.5
t71.5 -109.5t108.5 -42q60 0 104.5 37t68 96.5t23.5 127.5q0 92 -33 171t-91 123q-19 15 -25 61q0 11 8 11h73h31l76 1q20 0 50 2q24 2 33 2q12 0 17 -16z" />
    <glyph glyph-name="uni01B2" unicode="&#x1b2;" horiz-adv-x="737" 
d="M205.5 21q-53.5 35 -79.5 89t-26 112v326q0 33 -13.5 49t-38.5 22q-29 9 -29 22q0 6 7.5 9.5t18.5 3.5q15 0 53 -2t59 -2q18 0 54 2l45 1q25 0 25 -13q0 -7 -6.5 -11t-22.5 -9q-20 -6 -33 -24.5t-13 -46.5v-307q0 -102 41.5 -155.5t120.5 -53.5q61 0 108 39t74 119
t27 198q0 111 -27 177t-82 66q-12 0 -20.5 -9t-19.5 -27q-13 -20 -21 -29t-19 -9q-16 0 -27 11t-11 27q0 31 33 49t84 18q71 0 121 -35t75 -93t25 -127q0 -122 -44.5 -218t-124.5 -150t-181 -54q-79 0 -132.5 35z" />
    <glyph glyph-name="uni01B3" unicode="&#x1b3;" horiz-adv-x="661" 
d="M157 7q0 14 32 20q74 13 74 82v144q0 36 -27 84l-121 194q-21 33 -41.5 57.5t-43.5 30.5q-16 6 -23 10.5t-7 11.5q0 12 26 12q17 0 59 -2q46 -2 74 -2q19 0 53 2q30 2 43 2q12 0 20 -3t8 -9q0 -13 -31 -21q-21 -5 -30 -11t-9 -18q0 -13 12 -36l95 -168q18 -31 24 -31
q13 0 28 31l14 27q45 90 74 138t67 78t89 30q44 0 67.5 -22.5t23.5 -56.5q0 -24 -15.5 -41.5t-37.5 -17.5q-19 0 -31 8t-21 25q-11 19 -18.5 27t-21.5 8q-31 0 -67 -56t-100 -189q-15 -32 -20 -48.5t-5 -43.5v-144q0 -35 18 -54.5t57 -27.5q16 -3 24 -7.5t8 -11.5
q0 -13 -29 -13q-18 0 -38 1.5t-30 1.5q-30 3 -60 3q-32 0 -64 -3q-10 0 -31 -1.5t-39 -1.5q-29 0 -29 12z" />
    <glyph glyph-name="uni01B5" unicode="&#x1b5;" horiz-adv-x="601" 
d="M586 159q0 -13 -13.5 -67t-22.5 -79q-7 -18 -21 -18q-48 0 -166 2q-82 2 -122 2q-86 -2 -129 -2l-77 -1q-5 0 -7.5 8.5t-1.5 11.5q4 11 22 39.5t36 53.5l87 126l54 78h-100q-8 0 -12.5 7t-4.5 14q0 9 7.5 15.5t18.5 6.5h121q90 129 156 231q4 8 4 11q0 9 -18 9
q-62 2 -122 2q-66 0 -91 -2q-32 -2 -62 -22t-46 -56q-8 -16 -15 -24t-18 -8t-11 13q0 8 7 27q22 56 28 122q1 20 17 20q5 0 18 -7t20 -11q14 -6 37.5 -10t48.5 -4h123q100 0 230 4q5 0 10.5 -8t2.5 -12l-64 -91q-70 -97 -128 -184h103q6 0 11.5 -4t5.5 -9l-1 -4
q-11 -26 -34 -26h-114q-49 -73 -138 -211l-16 -25q-6 -10 -6 -17q0 -6 4 -10.5t11 -5.5q50 -4 100 -4q83 0 137 9q37 6 63.5 31.5t45.5 73.5q2 7 8.5 12.5t12.5 5.5q11 0 11 -13z" />
    <glyph glyph-name="uni01B7" unicode="&#x1b7;" horiz-adv-x="527" 
d="M83 20q-26 12 -31 35q-5 24 -9 56.5t-4 59.5q0 7 6.5 12t14.5 5q6 0 21 -34q23 -62 63 -96.5t84 -34.5q67 0 102.5 47.5t35.5 120.5q0 40 -17 74.5t-47 55.5t-69 21q-9 0 -14 -0.5t-12 -0.5q-13 0 -19.5 3.5t-6.5 13.5q0 9 2.5 14t15.5 23l145 186q1 2 5 7t4 12
q0 12 -28 12h-138q-29 0 -58 -19.5t-44 -54.5q-15 -33 -33 -33q-5 0 -8 4t-3 9q0 8 7 27q23 55 26 109q1 21 17 21q6 0 18.5 -8.5t15.5 -10.5q8 -4 25 -5t37 -1l228 1q11 0 27 1.5t25 1.5q5 0 7.5 -10t-1.5 -14l-182 -238q-3 -4 -3.5 -8t4.5 -5q82 -2 136 -48t54 -127
q0 -71 -37 -120t-96 -73.5t-126 -24.5q-79 0 -140 34z" />
    <glyph glyph-name="uni01B8" unicode="&#x1b8;" horiz-adv-x="499" 
d="M155 8.5q-54 22.5 -88 65t-34 98.5q0 73 38.5 121.5t94.5 67.5l20 6q11 3 20.5 6.5t9.5 7.5q0 2 -1.5 4t-2.5 4l-148 214q-2 3 -10.5 15.5t-8.5 17.5q0 7 8 14t14 7q13 0 73 -4l60 -3h132q65 0 77 6q5 3 17 11t17 8q15 0 17 -21l4 -30q7 -56 13 -87q1 -4 2 -10t1 -14
q0 -16 -11 -16q-10 0 -15.5 7.5t-8 15t-3.5 9.5q-28 85 -88 85h-144q-21 0 -21 -7q0 -8 19 -35l114 -156q5 -6 15.5 -20.5t12.5 -20t2 -13.5q0 -14 -14.5 -18.5t-38.5 -4.5l-26 1q-56 0 -86.5 -41t-30.5 -105q0 -44 18.5 -82t51.5 -61t75 -23q51 0 85.5 22.5t54.5 74.5
q19 48 26 48q8 0 15 -5t7 -11q0 -36 -11 -104q-2 -12 -12.5 -22t-23.5 -15q-64 -30 -175 -30q-58 0 -112 22.5z" />
    <glyph glyph-name="uni01BC" unicode="&#x1bc;" horiz-adv-x="560" 
d="M169 -6q-30 8 -60 21q-33 17 -37 39q-13 73 -13 110q0 6 7 10.5t15 4.5q9 0 27 -45q19 -50 52.5 -80t74.5 -30q71 0 99.5 50.5t28.5 124.5q0 68 -38.5 110.5t-106.5 42.5q-40 0 -98 -20l-22 -6q-9 0 -11.5 7.5t-2.5 22.5l22 194q1 6 1 15q0 25 -13.5 37t-46.5 19
q-31 6 -31 20q0 6 8 9.5t20 3.5q27 0 67 -2q38 -2 58 -2l217 -1q13 0 29.5 3.5t21.5 3.5t8 -5t3 -10q0 -20 2 -38.5t3 -24.5q4 -30 4 -47q0 -10 -5.5 -16.5t-10.5 -6.5q-8 0 -16 8.5t-10 22.5q-7 39 -23 57.5t-54 18.5h-76q-25 0 -36 -8.5t-13 -25.5l-20 -191q19 5 34.5 7
t40.5 2q61 0 109.5 -23t76 -64t27.5 -91q0 -72 -34.5 -125.5t-90 -81.5t-117.5 -28q-40 0 -70 8z" />
    <glyph glyph-name="uni01C4" unicode="&#x1c4;" horiz-adv-x="1359" 
d="M297 -4q-86 4 -128 4q-18 0 -52 -2q-38 -2 -66 -2q-26 0 -26 13q0 8 6.5 11.5t22.5 6.5q38 7 52.5 22t14.5 49v452q0 34 -14 48.5t-53 22.5q-16 3 -22.5 7t-6.5 12q0 7 7 10.5t19 3.5q25 0 63 -2l59 -1q23 0 99 4q68 4 84 4q119 0 202.5 -41.5t125.5 -113.5t42 -164
q0 -93 -45.5 -172.5t-126 -127t-179.5 -47.5q-28 0 -78 3zM490.5 70q55.5 36 85.5 100.5t30 148.5q0 91 -35 159.5t-94 105t-128 36.5q-48 0 -71.5 -2.5t-37 -14t-13.5 -36.5v-442q0 -52 36 -71.5t99 -19.5q73 0 128.5 36zM1121 -3q-82 2 -122 2q-86 -2 -129 -2l-77 -1
q-5 0 -7.5 8.5t-1.5 11.5q4 11 22 39.5t36 53.5q20 29 46 66.5t57 81.5q166 242 224 330q4 8 4 11q0 9 -18 9q-62 2 -122 2q-66 0 -91 -2q-32 -2 -62 -22t-46 -56q-8 -16 -15 -24t-18 -8t-11 13q0 8 7 27q22 56 28 122q1 20 17 20q5 0 18 -7t20 -11q14 -6 37.5 -10t48.5 -4
h123q100 0 230 4q5 0 10.5 -8t2.5 -12l-64 -91q-84 -119 -151.5 -219t-159.5 -244q-6 -10 -6 -17q0 -6 4 -10.5t11 -5.5q50 -4 100 -4q83 0 137 9q37 6 63.5 31.5t45.5 73.5q2 7 8.5 12.5t12.5 5.5q11 0 11 -13t-13.5 -67t-22.5 -79q-7 -18 -21 -18q-48 0 -166 2zM997 811
q46 -20 69 -33q8 -4 11 -4t11 4q23 13 69 33.5t56 20.5q15 0 15 -12q0 -8 -6 -13l-101 -83q-19 -16 -26 -20.5t-18 -4.5t-18 4.5t-26 20.5l-101 83q-7 6 -7 13q0 11 16 11q10 0 56 -20z" />
    <glyph glyph-name="uni01C5" unicode="&#x1c5;" horiz-adv-x="1156" 
d="M297 -4q-86 4 -128 4q-18 0 -52 -2q-38 -2 -66 -2q-26 0 -26 13q0 8 6.5 11.5t22.5 6.5q38 7 52.5 22t14.5 49v452q0 34 -14 48.5t-53 22.5q-16 3 -22.5 7t-6.5 12q0 7 7 10.5t19 3.5q25 0 63 -2l59 -1q23 0 99 4q68 4 84 4q119 0 202.5 -41.5t125.5 -113.5t42 -164
q0 -93 -45.5 -172.5t-126 -127t-179.5 -47.5q-28 0 -78 3zM490.5 70q55.5 36 85.5 100.5t30 148.5q0 91 -35 159.5t-94 105t-128 36.5q-48 0 -71.5 -2.5t-37 -14t-13.5 -36.5v-442q0 -52 36 -71.5t99 -19.5q73 0 128.5 36zM788 2.5q-6 7.5 -6 13.5q0 7 38 61
q108 160 184 282q2 4 2 5q0 5 -12 5l-83 3q-25 0 -44 -19q-7 -7 -36 -48l-15 -21q-3 -3 -10 -3t-12 3.5t-3 9.5q21 80 21 109q0 8 6 14t11 6q6 0 17 -9q7 -6 45 -6l39 1q99 0 194 3q7 0 11 -8t0 -13q-30 -39 -39 -52l-185 -285q-3 -4 -3 -7q0 -8 14 -8h98q25 0 47 23
q12 12 26 32t29 44q5 6 11 6t10.5 -3.5t4.5 -9.5q0 -8 -12 -54.5t-19 -66.5q-3 -15 -17 -15l-46 1q-80 4 -172 4q-18 0 -31.5 -1t-21.5 -2l-30 -2q-5 0 -11 7.5zM946 480q-20 32 -50 85.5t-35 68.5l-2 12q0 10 11 10q6 0 15.5 -8t18.5 -17l63 -79q3 -4 4.5 -4t4.5 4l30 37
q9 11 17.5 22t16.5 20q23 25 33 25q11 0 11 -12q0 -2 -2 -10q-8 -26 -85 -154q-14 -25 -26 -25q-11 0 -25 25z" />
    <glyph glyph-name="uni01C7" unicode="&#x1c7;" horiz-adv-x="928" 
d="M31.5 -1q-6.5 4 -6.5 9q0 11 21 18q40 9 57.5 24t17.5 46v461q0 24 -5 35.5t-17 17.5t-40 11q-29 6 -29 20q0 13 26 13q27 0 67 -2q36 -2 56 -2l64 1q44 2 70 2q25 0 25 -12q0 -14 -29 -20q-45 -10 -63.5 -21t-18.5 -38v-463q0 -31 14.5 -44.5t54.5 -13.5h116
q24 0 43.5 7.5t32.5 18.5q18 17 29 32.5t23 41.5q8 16 13 23.5t11 7.5t9.5 -6t3.5 -13q0 -3 -1 -5.5t-1 -5.5q-14 -50 -19.5 -74.5t-8.5 -54.5q-2 -18 -15 -18q-52 0 -172 2q-88 3 -172 3q-47 0 -107 -4l-31 -1q-12 0 -18.5 4zM532.5 -186.5q-29.5 13.5 -29.5 38.5
q0 18 15 34.5t29 16.5q24 0 45 -24q17 -22 26.5 -30t21.5 -8q65 0 65 161v549q0 33 -14.5 47.5t-51.5 22.5q-29 6 -29 20q0 13 26 13q28 0 68 -2q38 -2 58 -2l47 1q36 2 65 2q25 0 25 -12q0 -14 -29 -20q-37 -8 -48 -22t-11 -48v-490q0 -51 -23.5 -101.5t-56.5 -91.5
q-54 -68 -112 -68q-57 0 -86.5 13.5z" />
    <glyph glyph-name="uni01C8" unicode="&#x1c8;" horiz-adv-x="815" 
d="M31.5 -1q-6.5 4 -6.5 9q0 11 21 18q40 9 57.5 24t17.5 46v461q0 24 -5 35.5t-17 17.5t-40 11q-29 6 -29 20q0 13 26 13q27 0 67 -2q36 -2 56 -2l64 1q44 2 70 2q25 0 25 -12q0 -14 -29 -20q-45 -10 -63.5 -21t-18.5 -38v-463q0 -31 14.5 -44.5t54.5 -13.5h116
q24 0 43.5 7.5t32.5 18.5q18 17 29 32.5t23 41.5q8 16 13 23.5t11 7.5t9.5 -6t3.5 -13q0 -3 -1 -5.5t-1 -5.5q-14 -50 -19.5 -74.5t-8.5 -54.5q-2 -18 -15 -18q-52 0 -172 2q-88 3 -172 3q-47 0 -107 -4l-31 -1q-12 0 -18.5 4zM557.5 -284q-8.5 3 -8.5 9t4.5 11t9.5 7
q19 7 34.5 20.5t28.5 40.5q18 39 25 112.5t7 146.5v217q0 63 -46 71q-4 1 -6.5 5.5t-2.5 9.5t2.5 8.5t6.5 4.5q36 8 63 21.5t58 31.5l16 7q9 0 9 -8q-9 -90 -9 -152l1 -188q0 -67 -6.5 -128.5t-26.5 -114.5q-21 -52 -63.5 -93.5t-76.5 -41.5q-11 0 -19.5 3zM654.5 525.5
q-17.5 17.5 -17.5 42.5q0 26 17.5 43.5t42.5 17.5q26 0 44 -17.5t18 -43.5q0 -25 -18 -42.5t-44 -17.5q-25 0 -42.5 17.5z" />
    <glyph glyph-name="uni01CA" unicode="&#x1ca;" horiz-adv-x="1138" 
d="M631 -1q-27 17 -50 49l-108 124q-246 283 -267 306q-11 15 -18 15q-4 0 -6 -6.5t-2 -14.5q-2 -192 -2 -365q0 -66 70 -80q31 -7 31 -19t-28 -12q-30 0 -60 2q-24 2 -40 2q-20 0 -46 -2t-45 -2q-28 0 -28 12q0 7 7 11t24 9q50 14 55 81q7 68 13 177t6 221q0 49 -24 73
t-72 40q-9 3 -19.5 9t-10.5 14t7.5 11.5t16.5 3.5q42 0 75 -3q54 -2 94 -2q7 0 11.5 -3.5t10.5 -11.5l117 -140q64 -76 140 -166.5t129 -152.5q15 -18 22 -18q9 0 10 19v226v155q-1 21 -20 36.5t-44 21.5q-16 3 -27 8t-11 12q0 6 11 9t24 3h71l49 1q32 2 64 2q27 0 27 -13
q0 -14 -31 -20q-36 -7 -49 -18.5t-14 -37.5q-5 -270 -5 -441q0 -28 5 -83l2 -27q0 -32 -24 -32q-14 0 -41 17zM742.5 -186.5q-29.5 13.5 -29.5 38.5q0 18 15 34.5t29 16.5q24 0 45 -24q17 -22 26.5 -30t21.5 -8q65 0 65 161v549q0 33 -14.5 47.5t-51.5 22.5q-29 6 -29 20
q0 13 26 13q28 0 68 -2q38 -2 58 -2l47 1q36 2 65 2q25 0 25 -12q0 -14 -29 -20q-37 -8 -48 -22t-11 -48v-490q0 -51 -23.5 -101.5t-56.5 -91.5q-54 -68 -112 -68q-57 0 -86.5 13.5z" />
    <glyph glyph-name="uni01CB" unicode="&#x1cb;" horiz-adv-x="1029" 
d="M631 -1q-27 17 -50 49l-108 124q-246 283 -267 306q-11 15 -18 15q-4 0 -6 -6.5t-2 -14.5q-2 -192 -2 -365q0 -66 70 -80q31 -7 31 -19t-28 -12q-30 0 -60 2q-24 2 -40 2q-20 0 -46 -2t-45 -2q-28 0 -28 12q0 7 7 11t24 9q50 14 55 81q7 68 13 177t6 221q0 49 -24 73
t-72 40q-9 3 -19.5 9t-10.5 14t7.5 11.5t16.5 3.5q42 0 75 -3q54 -2 94 -2q7 0 11.5 -3.5t10.5 -11.5l117 -140q64 -76 140 -166.5t129 -152.5q15 -18 22 -18q9 0 10 19v226v155q-1 21 -20 36.5t-44 21.5q-16 3 -27 8t-11 12q0 6 11 9t24 3h71l49 1q32 2 64 2q27 0 27 -13
q0 -14 -31 -20q-36 -7 -49 -18.5t-14 -37.5q-5 -270 -5 -441q0 -28 5 -83l2 -27q0 -32 -24 -32q-14 0 -41 17zM771.5 -284q-8.5 3 -8.5 9t4.5 11t9.5 7q19 7 34.5 20.5t28.5 40.5q18 39 25 112.5t7 146.5v217q0 63 -46 71q-4 1 -6.5 5.5t-2.5 9.5t2.5 8.5t6.5 4.5
q36 8 63 21.5t58 31.5l16 7q9 0 9 -8q-9 -90 -9 -152l1 -188q0 -67 -6.5 -128.5t-26.5 -114.5q-21 -52 -63.5 -93.5t-76.5 -41.5q-11 0 -19.5 3zM868.5 525.5q-17.5 17.5 -17.5 42.5q0 26 17.5 43.5t42.5 17.5q26 0 44 -17.5t18 -43.5q0 -25 -18 -42.5t-44 -17.5
q-25 0 -42.5 17.5z" />
    <glyph glyph-name="uni01CD" unicode="&#x1cd;" horiz-adv-x="702" 
d="M5 -1.5q-8 3.5 -8 10.5q0 14 30 23q29 8 50.5 25t34.5 48q52 119 92.5 221.5t89.5 238.5q14 36 18 66q29 7 48 17q12 6 19.5 18.5t9.5 15.5q6 4 9 -2q3 -5 5 -12t3 -12q60 -191 157 -478l20 -59q16 -46 38 -64t57 -25q15 -3 22.5 -9t7.5 -14q0 -11 -26 -11l-62 2
q-43 3 -85 3l-68 -1q-20 -1 -53 -1q-12 0 -19.5 3.5t-7.5 9.5q0 7 8.5 12.5t21.5 7.5q35 6 50 18t12 32q-1 18 -10.5 54.5t-18.5 71.5q-2 5 -7 23q-2 7 -7 9.5t-17 2.5h-185q-10 0 -17 -17q-10 -30 -23 -74.5t-15 -58.5q-6 -46 59 -62q30 -7 30 -20q0 -12 -27 -12
q-25 0 -40 1l-57 1q-15 0 -35 -1t-30 -2q-28 -3 -54 -3q-12 0 -20 3.5zM408 284q6 0 10 1t4 4q0 1 -2 11l-74 237q-5 16 -8 16q-2 0 -7 -15l-87 -238l-2 -8q0 -5 5 -6.5t15 -1.5h146zM289 811q46 -20 69 -33q8 -4 11 -4t11 4q23 13 69 33.5t56 20.5q15 0 15 -12q0 -8 -6 -13
l-101 -83q-19 -16 -26 -20.5t-18 -4.5t-18 4.5t-26 20.5l-101 83q-7 6 -7 13q0 11 16 11q10 0 56 -20z" />
    <glyph glyph-name="uni01CF" unicode="&#x1cf;" horiz-adv-x="348" 
d="M18 8q0 7 7 11.5t22 7.5q39 7 56.5 22.5t17.5 48.5v452q0 34 -14 48.5t-52 22.5q-29 6 -29 20q0 13 25 13q27 0 69 -2q38 -2 58 -2l56 1q38 2 66 2q26 0 26 -12q0 -14 -29 -20q-40 -8 -55 -23t-15 -48v-452q0 -32 17.5 -47t57.5 -24q15 -3 22 -7.5t7 -11.5q0 -12 -25 -12
q-36 0 -68 3q-40 2 -60 2q-22 0 -64 -2q-33 -3 -70 -3q-26 0 -26 12zM96 811q46 -20 69 -33q8 -4 11 -4t11 4q23 13 69 33.5t56 20.5q15 0 15 -12q0 -8 -6 -13l-101 -83q-19 -16 -26 -20.5t-18 -4.5t-18 4.5t-26 20.5l-101 83q-7 6 -7 13q0 11 16 11q10 0 56 -20z" />
    <glyph glyph-name="uni01D1" unicode="&#x1d1;" horiz-adv-x="762" 
d="M209.5 27.5q-77.5 41.5 -124 116.5t-46.5 171q0 92 40.5 172t119 128.5t186.5 48.5q90 0 167.5 -41.5t124 -116.5t46.5 -171q0 -92 -40.5 -172t-119 -128.5t-187.5 -48.5q-89 0 -166.5 41.5zM548 97q54 69 54 188q0 92 -26.5 168t-79 121.5t-128.5 45.5
q-101 0 -154.5 -68.5t-53.5 -185.5q0 -92 26 -169t78.5 -123t127.5 -46q102 0 156 69zM312 811q46 -20 69 -33q8 -4 11 -4t11 4q23 13 69 33.5t56 20.5q15 0 15 -12q0 -8 -6 -13l-101 -83q-19 -16 -26 -20.5t-18 -4.5t-18 4.5t-26 20.5l-101 83q-7 6 -7 13q0 11 16 11
q10 0 56 -20z" />
    <glyph glyph-name="uni01D3" unicode="&#x1d3;" horiz-adv-x="740" 
d="M168.5 55.5q-70.5 69.5 -70.5 189.5v299q0 31 -13 50t-34 25q-32 9 -32 22t28 13q18 0 52 -2q38 -2 56 -2t56 2l44 1q28 0 28 -13q0 -6 -6.5 -10t-17 -7.5t-14.5 -5.5q-15 -5 -27.5 -25t-12.5 -49v-274q0 -109 53 -164.5t140 -55.5q96 0 144 64t48 182q0 135 -2 206
q-2 50 -12.5 79t-33.5 38q-2 1 -12.5 4.5t-16.5 8t-6 9.5q0 12 29 12l46 -1q12 -1 37 -1q18 0 46 2q26 2 38 2q28 0 28 -13t-31 -20q-28 -6 -40 -26t-14 -54q-6 -116 -8 -242l-1 -45q-1 -78 -36.5 -139t-95.5 -95t-133 -34q-133 0 -203.5 69.5zM317 811q46 -20 69 -33
q8 -4 11 -4t11 4q23 13 69 33.5t56 20.5q15 0 15 -12q0 -8 -6 -13l-101 -83q-19 -16 -26 -20.5t-18 -4.5t-18 4.5t-26 20.5l-101 83q-7 6 -7 13q0 11 16 11q10 0 56 -20z" />
    <glyph glyph-name="uni01D5" unicode="&#x1d5;" horiz-adv-x="740" 
d="M168.5 55.5q-70.5 69.5 -70.5 189.5v299q0 31 -13 50t-34 25q-32 9 -32 22t28 13q18 0 52 -2q38 -2 56 -2t56 2l44 1q28 0 28 -13q0 -6 -6.5 -10t-17 -7.5t-14.5 -5.5q-15 -5 -27.5 -25t-12.5 -49v-274q0 -109 53 -164.5t140 -55.5q96 0 144 64t48 182q0 135 -2 206
q-2 50 -12.5 79t-33.5 38q-2 1 -12.5 4.5t-16.5 8t-6 9.5q0 12 29 12l46 -1q12 -1 37 -1q18 0 46 2q26 2 38 2q28 0 28 -13t-31 -20q-28 -6 -40 -26t-14 -54q-6 -116 -8 -242l-1 -45q-1 -78 -36.5 -139t-95.5 -95t-133 -34q-133 0 -203.5 69.5zM257 709q-17 17 -17 41
q0 25 17 41.5t41 16.5q25 0 42 -16.5t17 -41.5q0 -24 -17 -41t-42 -17q-24 0 -41 17zM453 709q-17 17 -17 41q0 25 17 41.5t41 16.5q25 0 41.5 -16.5t16.5 -41.5q0 -24 -16.5 -41t-41.5 -17q-24 0 -41 17zM252.5 850.5q-4.5 4.5 -4.5 9.5q0 16 7.5 32.5t20.5 16.5h265
q6 0 10.5 -4.5t4.5 -9.5q0 -18 -10.5 -33.5t-23.5 -15.5h-258q-7 0 -11.5 4.5z" />
    <glyph glyph-name="uni01D7" unicode="&#x1d7;" horiz-adv-x="740" 
d="M168.5 55.5q-70.5 69.5 -70.5 189.5v299q0 31 -13 50t-34 25q-32 9 -32 22t28 13q18 0 52 -2q38 -2 56 -2t56 2l44 1q28 0 28 -13q0 -6 -6.5 -10t-17 -7.5t-14.5 -5.5q-15 -5 -27.5 -25t-12.5 -49v-274q0 -109 53 -164.5t140 -55.5q96 0 144 64t48 182q0 135 -2 206
q-2 50 -12.5 79t-33.5 38q-2 1 -12.5 4.5t-16.5 8t-6 9.5q0 12 29 12l46 -1q12 -1 37 -1q18 0 46 2q26 2 38 2q28 0 28 -13t-31 -20q-28 -6 -40 -26t-14 -54q-6 -116 -8 -242l-1 -45q-1 -78 -36.5 -139t-95.5 -95t-133 -34q-133 0 -203.5 69.5zM257 709q-17 17 -17 41
q0 25 17 41.5t41 16.5q25 0 42 -16.5t17 -41.5q0 -24 -17 -41t-42 -17q-24 0 -41 17zM453 709q-17 17 -17 41q0 25 17 41.5t41 16.5q25 0 41.5 -16.5t16.5 -41.5q0 -24 -16.5 -41t-41.5 -17q-24 0 -41 17zM311 826q-5 3 -5 7q0 7 8 15q18 16 71.5 50t82.5 49q12 6 20 6
q12 0 22 -10.5t16 -24t6 -20.5q0 -10 -6 -12q-26 -11 -82 -29t-92 -28q-4 -1 -13.5 -3.5t-16.5 -2.5q-6 0 -11 3z" />
    <glyph glyph-name="uni01D9" unicode="&#x1d9;" horiz-adv-x="740" 
d="M168.5 55.5q-70.5 69.5 -70.5 189.5v299q0 31 -13 50t-34 25q-32 9 -32 22t28 13q18 0 52 -2q38 -2 56 -2t56 2l44 1q28 0 28 -13q0 -6 -6.5 -10t-17 -7.5t-14.5 -5.5q-15 -5 -27.5 -25t-12.5 -49v-274q0 -109 53 -164.5t140 -55.5q96 0 144 64t48 182q0 135 -2 206
q-2 50 -12.5 79t-33.5 38q-2 1 -12.5 4.5t-16.5 8t-6 9.5q0 12 29 12l46 -1q12 -1 37 -1q18 0 46 2q26 2 38 2q28 0 28 -13t-31 -20q-28 -6 -40 -26t-14 -54q-6 -116 -8 -242l-1 -45q-1 -78 -36.5 -139t-95.5 -95t-133 -34q-133 0 -203.5 69.5zM257 709q-17 17 -17 41
q0 25 17 41.5t41 16.5q25 0 42 -16.5t17 -41.5q0 -24 -17 -41t-42 -17q-24 0 -41 17zM453 709q-17 17 -17 41q0 25 17 41.5t41 16.5q25 0 41.5 -16.5t16.5 -41.5q0 -24 -16.5 -41t-41.5 -17q-24 0 -41 17zM316 925q46 -20 69 -33q8 -4 11 -4t11 4q23 13 69 33.5t56 20.5
q15 0 15 -12q0 -8 -6 -13l-101 -83q-19 -16 -26 -20.5t-18 -4.5t-18 4.5t-26 20.5l-101 83q-7 6 -7 13q0 11 16 11q10 0 56 -20z" />
    <glyph glyph-name="uni01DB" unicode="&#x1db;" horiz-adv-x="740" 
d="M168.5 55.5q-70.5 69.5 -70.5 189.5v299q0 31 -13 50t-34 25q-32 9 -32 22t28 13q18 0 52 -2q38 -2 56 -2t56 2l44 1q28 0 28 -13q0 -6 -6.5 -10t-17 -7.5t-14.5 -5.5q-15 -5 -27.5 -25t-12.5 -49v-274q0 -109 53 -164.5t140 -55.5q96 0 144 64t48 182q0 135 -2 206
q-2 50 -12.5 79t-33.5 38q-2 1 -12.5 4.5t-16.5 8t-6 9.5q0 12 29 12l46 -1q12 -1 37 -1q18 0 46 2q26 2 38 2q28 0 28 -13t-31 -20q-28 -6 -40 -26t-14 -54q-6 -116 -8 -242l-1 -45q-1 -78 -36.5 -139t-95.5 -95t-133 -34q-133 0 -203.5 69.5zM257 709q-17 17 -17 41
q0 25 17 41.5t41 16.5q25 0 42 -16.5t17 -41.5q0 -24 -17 -41t-42 -17q-24 0 -41 17zM453 709q-17 17 -17 41q0 25 17 41.5t41 16.5q25 0 41.5 -16.5t16.5 -41.5q0 -24 -16.5 -41t-41.5 -17q-24 0 -41 17zM411.5 824.5q-9.5 2.5 -13.5 3.5q-36 10 -92 28t-82 29q-6 2 -6 12
q0 7 6 20.5t16 24t22 10.5q8 0 20 -6q29 -15 82.5 -49t71.5 -50q8 -8 8 -15q0 -4 -5 -7t-11 -3q-7 0 -16.5 2.5z" />
    <glyph glyph-name="uni01DE" unicode="&#x1de;" horiz-adv-x="702" 
d="M5 -1.5q-8 3.5 -8 10.5q0 14 30 23q29 8 50.5 25t34.5 48q52 119 92.5 221.5t89.5 238.5q14 36 18 66q29 7 48 17q12 6 19.5 18.5t9.5 15.5q6 4 9 -2q3 -5 5 -12t3 -12q60 -191 157 -478l20 -59q16 -46 38 -64t57 -25q15 -3 22.5 -9t7.5 -14q0 -11 -26 -11l-62 2
q-43 3 -85 3l-68 -1q-20 -1 -53 -1q-12 0 -19.5 3.5t-7.5 9.5q0 7 8.5 12.5t21.5 7.5q35 6 50 18t12 32q-1 18 -10.5 54.5t-18.5 71.5q-2 5 -7 23q-2 7 -7 9.5t-17 2.5h-185q-10 0 -17 -17q-10 -30 -23 -74.5t-15 -58.5q-6 -46 59 -62q30 -7 30 -20q0 -12 -27 -12
q-25 0 -40 1l-57 1q-15 0 -35 -1t-30 -2q-28 -3 -54 -3q-12 0 -20 3.5zM408 284q6 0 10 1t4 4q0 1 -2 11l-74 237q-5 16 -8 16q-2 0 -7 -15l-87 -238l-2 -8q0 -5 5 -6.5t15 -1.5h146zM229 709q-17 17 -17 41q0 25 17 41.5t41 16.5q25 0 42 -16.5t17 -41.5q0 -24 -17 -41
t-42 -17q-24 0 -41 17zM425 709q-17 17 -17 41q0 25 17 41.5t41 16.5q25 0 41.5 -16.5t16.5 -41.5q0 -24 -16.5 -41t-41.5 -17q-24 0 -41 17zM221.5 851.5q-4.5 4.5 -4.5 9.5q0 16 7.5 32.5t20.5 16.5h265q6 0 10.5 -4.5t4.5 -9.5q0 -18 -10.5 -33.5t-23.5 -15.5h-258
q-7 0 -11.5 4.5z" />
    <glyph glyph-name="uni01E0" unicode="&#x1e0;" horiz-adv-x="702" 
d="M5 -1.5q-8 3.5 -8 10.5q0 14 30 23q29 8 50.5 25t34.5 48q52 119 92.5 221.5t89.5 238.5q14 36 18 66q29 7 48 17q12 6 19.5 18.5t9.5 15.5q6 4 9 -2q3 -5 5 -12t3 -12q60 -191 157 -478l20 -59q16 -46 38 -64t57 -25q15 -3 22.5 -9t7.5 -14q0 -11 -26 -11l-62 2
q-43 3 -85 3l-68 -1q-20 -1 -53 -1q-12 0 -19.5 3.5t-7.5 9.5q0 7 8.5 12.5t21.5 7.5q35 6 50 18t12 32q-1 18 -10.5 54.5t-18.5 71.5q-2 5 -7 23q-2 7 -7 9.5t-17 2.5h-185q-10 0 -17 -17q-10 -30 -23 -74.5t-15 -58.5q-6 -46 59 -62q30 -7 30 -20q0 -12 -27 -12
q-25 0 -40 1l-57 1q-15 0 -35 -1t-30 -2q-28 -3 -54 -3q-12 0 -20 3.5zM408 284q6 0 10 1t4 4q0 1 -2 11l-74 237q-5 16 -8 16q-2 0 -7 -15l-87 -238l-2 -8q0 -5 5 -6.5t15 -1.5h146zM323 712.5q-19 18.5 -19 43.5q0 26 19 44.5t45 18.5q28 0 47 -18.5t19 -44.5t-19 -44
t-47 -18q-26 0 -45 18.5zM216.5 847.5q-4.5 4.5 -4.5 9.5q0 16 7.5 32.5t20.5 16.5h265q6 0 10.5 -4.5t4.5 -9.5q0 -18 -10.5 -33.5t-23.5 -15.5h-258q-7 0 -11.5 4.5z" />
    <glyph glyph-name="uni01E4" unicode="&#x1e4;" horiz-adv-x="731" 
d="M695.5 173q5.5 -4 5.5 -10l-1 -3q-12 -27 -34 -27h-44v-26q0 -6 3.5 -10.5t4.5 -6.5q2 -3 7 -9t5 -10q0 -17 -16 -19q-9 -2 -28 -12q-48 -23 -98 -38.5t-113 -15.5q-93 0 -173 42.5t-127.5 117t-47.5 166.5q0 95 49 175.5t134.5 128t188.5 47.5q37 0 106.5 -11.5
t93.5 -22.5q6 -2 8.5 -5.5t4.5 -10.5q10 -84 10 -110q0 -8 -4.5 -14t-10.5 -6q-10 0 -15 6t-10 19q-15 36 -37 61q-17 19 -54 35t-93 16q-73 0 -129.5 -40t-87 -106.5t-30.5 -143.5q0 -91 32 -159.5t86.5 -105t120.5 -36.5q68 0 103 32q12 11 20 30t8 42h-157
q-8 0 -12.5 7.5t-4.5 14.5q0 9 7.5 15.5t18.5 6.5h149q1 9 1 24q0 25 -11 32q-12 11 -39.5 18.5t-46.5 8.5q-7 1 -14.5 6.5t-7.5 12.5q0 6 7.5 11t13.5 5q24 0 66 -2q44 -2 70 -2q17 0 49 2t52 2q6 0 12.5 -4t6.5 -12q0 -7 -6.5 -12t-13.5 -7q-23 -7 -33 -17.5t-13 -31.5
q-1 -9 -4 -34h61q6 0 11.5 -4z" />
    <glyph glyph-name="uni01E8" unicode="&#x1e8;" horiz-adv-x="710" 
d="M34.5 -1.5q-8.5 3.5 -8.5 9.5q0 7 7.5 11.5t23.5 7.5q38 7 51.5 22t13.5 51v451q0 33 -14 47.5t-53 22.5q-29 6 -29 20q0 6 7.5 9.5t18.5 3.5q27 0 67 -2l56 -1q32 0 48 1l66 1q25 0 25 -12q0 -14 -29 -20q-36 -8 -46.5 -23t-10.5 -47v-193q0 -6 2 -12t5 -6q9 0 26 17
l197 205q17 17 17 31q0 19 -27 25q-15 4 -21.5 9t-6.5 12q0 6 7.5 9t18.5 3h59q42 0 112 2l63 2q10 0 16.5 -3.5t6.5 -8.5q0 -15 -32 -21q-94 -15 -152 -64q-47 -39 -88 -79t-98 -100q-3 -3 -3 -8q0 -7 7 -14l241 -261q31 -34 49.5 -47t57.5 -22q18 -4 25.5 -8t7.5 -11
q0 -13 -33 -13q-21 0 -43.5 1.5t-33.5 1.5q-36 3 -76 3l-39 -1q-30 -2 -57 -2q-26 0 -26 13q0 12 25 18q32 7 32 23q0 10 -15 27l-195 219q-16 16 -23 16q-6 0 -6 -19q0 -89 4 -188q2 -35 14.5 -53.5t47.5 -26.5q16 -3 23.5 -7.5t7.5 -11.5q0 -6 -8 -9.5t-21 -3.5
q-39 0 -67 5q-7 0 -19.5 1.5t-24.5 1.5q-21 0 -57 -4q-42 -4 -73 -4q-12 0 -20.5 3.5zM280 811q46 -20 69 -33q8 -4 11 -4t11 4q23 13 69 33.5t56 20.5q15 0 15 -12q0 -8 -6 -13l-101 -83q-19 -16 -26 -20.5t-18 -4.5t-18 4.5t-26 20.5l-101 83q-7 6 -7 13q0 11 16 11
q10 0 56 -20z" />
    <glyph glyph-name="uni01EA" unicode="&#x1ea;" horiz-adv-x="762" 
d="M681 161q-42 -76 -110 -122q-66 -46 -104 -89.5t-38 -101.5q0 -25 18.5 -42t44.5 -17q17 0 33.5 9t27.5 17.5t15 10.5t7 2q9 0 9 -11q0 -22 -20.5 -46.5t-52 -41t-60.5 -16.5q-50 0 -83 32t-33 81q0 48 40.5 92t95.5 79q-46 -11 -95 -11q-89 0 -166.5 41.5t-124 116.5
t-46.5 171q0 92 40.5 172t119 128.5t186.5 48.5q90 0 167.5 -41.5t124 -116.5t46.5 -171q0 -98 -42 -174zM546 104q54 73 54 201q0 142 -60 227.5t-170 85.5q-101 0 -154.5 -73t-53.5 -200q0 -143 59.5 -228.5t168.5 -85.5q102 0 156 73z" />
    <glyph glyph-name="uni01EC" unicode="&#x1ec;" horiz-adv-x="762" 
d="M681 161q-42 -76 -110 -122q-66 -46 -104 -89.5t-38 -101.5q0 -25 18.5 -42t44.5 -17q17 0 33.5 9t27.5 17.5t15 10.5t7 2q9 0 9 -11q0 -22 -20.5 -46.5t-52 -41t-60.5 -16.5q-50 0 -83 32t-33 81q0 48 40.5 92t95.5 79q-46 -11 -95 -11q-89 0 -166.5 41.5t-124 116.5
t-46.5 171q0 92 40.5 172t119 128.5t186.5 48.5q90 0 167.5 -41.5t124 -116.5t46.5 -171q0 -98 -42 -174zM546 104q54 73 54 201q0 142 -60 227.5t-170 85.5q-101 0 -154.5 -73t-53.5 -200q0 -143 59.5 -228.5t168.5 -85.5q102 0 156 73zM234.5 725.5q-4.5 4.5 -4.5 9.5
q0 16 7.5 32.5t20.5 16.5h265q6 0 10.5 -4.5t4.5 -9.5q0 -18 -10.5 -33.5t-23.5 -15.5h-258q-7 0 -11.5 4.5z" />
    <glyph glyph-name="uni01EE" unicode="&#x1ee;" horiz-adv-x="527" 
d="M83 20q-26 12 -31 35q-5 24 -9 56.5t-4 59.5q0 7 6.5 12t14.5 5q6 0 21 -34q23 -62 63 -96.5t84 -34.5q67 0 102.5 47.5t35.5 120.5q0 40 -17 74.5t-47 55.5t-69 21q-9 0 -14 -0.5t-12 -0.5q-13 0 -19.5 3.5t-6.5 13.5q0 9 2.5 14t15.5 23l145 186q1 2 5 7t4 12
q0 12 -28 12h-138q-29 0 -58 -19.5t-44 -54.5q-15 -33 -33 -33q-5 0 -8 4t-3 9q0 8 7 27q23 55 26 109q1 21 17 21q6 0 18.5 -8.5t15.5 -10.5q8 -4 25 -5t37 -1l228 1q11 0 27 1.5t25 1.5q5 0 7.5 -10t-1.5 -14l-182 -238q-3 -4 -3.5 -8t4.5 -5q82 -2 136 -48t54 -127
q0 -71 -37 -120t-96 -73.5t-126 -24.5q-79 0 -140 34zM185 811q46 -20 69 -33q8 -4 11 -4t11 4q23 13 69 33.5t56 20.5q15 0 15 -12q0 -8 -6 -13l-101 -83q-19 -16 -26 -20.5t-18 -4.5t-18 4.5t-26 20.5l-101 83q-7 6 -7 13q0 11 16 11q10 0 56 -20z" />
    <glyph glyph-name="uni01F1" unicode="&#x1f1;" horiz-adv-x="1359" 
d="M297 -4q-86 4 -128 4q-18 0 -52 -2q-38 -2 -66 -2q-26 0 -26 13q0 8 6.5 11.5t22.5 6.5q38 7 52.5 22t14.5 49v452q0 34 -14 48.5t-53 22.5q-16 3 -22.5 7t-6.5 12q0 7 7 10.5t19 3.5q25 0 63 -2l59 -1q23 0 99 4q68 4 84 4q119 0 202.5 -41.5t125.5 -113.5t42 -164
q0 -93 -45.5 -172.5t-126 -127t-179.5 -47.5q-28 0 -78 3zM490.5 70q55.5 36 85.5 100.5t30 148.5q0 91 -35 159.5t-94 105t-128 36.5q-48 0 -71.5 -2.5t-37 -14t-13.5 -36.5v-442q0 -52 36 -71.5t99 -19.5q73 0 128.5 36zM1121 -3q-82 2 -122 2q-86 -2 -129 -2l-77 -1
q-5 0 -7.5 8.5t-1.5 11.5q4 11 22 39.5t36 53.5q20 29 46 66.5t57 81.5q166 242 224 330q4 8 4 11q0 9 -18 9q-62 2 -122 2q-66 0 -91 -2q-32 -2 -62 -22t-46 -56q-8 -16 -15 -24t-18 -8t-11 13q0 8 7 27q22 56 28 122q1 20 17 20q5 0 18 -7t20 -11q14 -6 37.5 -10t48.5 -4
h123q100 0 230 4q5 0 10.5 -8t2.5 -12l-64 -91q-84 -119 -151.5 -219t-159.5 -244q-6 -10 -6 -17q0 -6 4 -10.5t11 -5.5q50 -4 100 -4q83 0 137 9q37 6 63.5 31.5t45.5 73.5q2 7 8.5 12.5t12.5 5.5q11 0 11 -13t-13.5 -67t-22.5 -79q-7 -18 -21 -18q-48 0 -166 2z" />
    <glyph glyph-name="uni01F2" unicode="&#x1f2;" horiz-adv-x="1156" 
d="M297 -4q-86 4 -128 4q-18 0 -52 -2q-38 -2 -66 -2q-26 0 -26 13q0 8 6.5 11.5t22.5 6.5q38 7 52.5 22t14.5 49v452q0 34 -14 48.5t-53 22.5q-16 3 -22.5 7t-6.5 12q0 7 7 10.5t19 3.5q25 0 63 -2l59 -1q23 0 99 4q68 4 84 4q119 0 202.5 -41.5t125.5 -113.5t42 -164
q0 -93 -45.5 -172.5t-126 -127t-179.5 -47.5q-28 0 -78 3zM490.5 70q55.5 36 85.5 100.5t30 148.5q0 91 -35 159.5t-94 105t-128 36.5q-48 0 -71.5 -2.5t-37 -14t-13.5 -36.5v-442q0 -52 36 -71.5t99 -19.5q73 0 128.5 36zM788 2.5q-6 7.5 -6 13.5q0 7 38 61
q108 160 184 282q2 4 2 5q0 5 -12 5l-83 3q-25 0 -44 -19q-7 -7 -36 -48l-15 -21q-3 -3 -10 -3t-12 3.5t-3 9.5q21 80 21 109q0 8 6 14t11 6q6 0 17 -9q7 -6 45 -6l39 1q99 0 194 3q7 0 11 -8t0 -13q-30 -39 -39 -52l-185 -285q-3 -4 -3 -7q0 -8 14 -8h98q25 0 47 23
q12 12 26 32t29 44q5 6 11 6t10.5 -3.5t4.5 -9.5q0 -8 -12 -54.5t-19 -66.5q-3 -15 -17 -15l-46 1q-80 4 -172 4q-18 0 -31.5 -1t-21.5 -2l-30 -2q-5 0 -11 7.5z" />
    <glyph glyph-name="uni01F4" unicode="&#x1f4;" horiz-adv-x="726" 
d="M214 28.5q-80 42.5 -127.5 117t-47.5 166.5q0 95 49 175.5t134.5 128t188.5 47.5q37 0 106.5 -11.5t93.5 -22.5q6 -2 8.5 -5.5t4.5 -10.5q10 -84 10 -110q0 -8 -4.5 -14t-10.5 -6q-10 0 -15 6t-10 19q-15 36 -37 61q-17 19 -54 35t-93 16q-73 0 -129.5 -40t-87 -106.5
t-30.5 -143.5q0 -91 32 -159.5t86.5 -105t120.5 -36.5q68 0 103 32q12 11 20 30.5t8 42.5q0 20 1 33l1 34q0 25 -11 32q-12 11 -39.5 18.5t-46.5 8.5q-7 1 -14.5 6.5t-7.5 12.5q0 6 7.5 11t13.5 5q24 0 66 -2q44 -2 70 -2q17 0 49 2t52 2q6 0 12.5 -4t6.5 -12q0 -7 -6.5 -12
t-13.5 -7q-23 -7 -33 -17.5t-13 -31.5q-5 -36 -5 -75v-29q0 -6 3.5 -10.5t4.5 -6.5q2 -3 7 -9t5 -10q0 -17 -16 -19q-9 -2 -28 -12q-48 -23 -98 -38.5t-113 -15.5q-93 0 -173 42.5zM366 691q0 7 7 17q51 75 88 121q9 13 29 13q15 -1 39.5 -10t23.5 -18q-1 -6 -4 -10t-11 -10
q-31 -24 -91 -65q-36 -24 -52 -36q-13 -9 -21 -9t-8 7z" />
    <glyph glyph-name="uni01F6" unicode="&#x1f6;" horiz-adv-x="918" 
d="M559.5 29.5q-43.5 43.5 -43.5 124.5v131q0 8 -1.5 11.5t-5.5 3.5h-275q-5 0 -6.5 -2.5t-1.5 -9.5v-184q0 -30 19.5 -49.5t55.5 -27.5q15 -3 22 -7.5t7 -11.5q0 -12 -26 -12q-36 0 -68 3q-40 2 -60 2q-19 0 -55 -2q-28 -3 -65 -3q-25 0 -25 12q0 7 7 11.5t22 7.5
q36 7 48 21.5t12 49.5v453q0 35 -10 49t-45 21q-29 6 -29 20q0 13 25 13q29 0 65 -2q32 -2 50 -2l54 1q38 2 67 2q25 0 25 -12q0 -14 -29 -20q-38 -8 -52.5 -24t-14.5 -46v-186q0 -11 14 -11h267q9 0 9 13v184q0 30 -14 46t-52 24q-28 6 -28 20q0 12 25 12q28 0 68 -2l59 -1
q16 0 44 2q34 2 62 2q26 0 26 -13q0 -14 -29 -20q-35 -7 -45 -22t-10 -47v-387q0 -63 27 -96t61 -33q53 0 84.5 37t31.5 114q0 103 -68 171q-5 5 -5 12q0 11 11 26t25 26.5t22 11.5q44 0 69 -47.5t25 -120.5q0 -91 -30 -154t-83 -94.5t-120 -31.5q-69 0 -112.5 43.5z" />
    <glyph glyph-name="uni01F7" unicode="&#x1f7;" horiz-adv-x="596" 
d="M33 -177q-7 3 -7 9q0 7 7 11.5t22 7.5q40 8 57.5 23.5t17.5 48.5v627q0 32 -12 48t-48 23q-29 6 -29 20q0 6 7.5 9.5t18.5 3.5q32 0 56 -2q18 -2 29 -2l25 1q18 2 47 2q12 0 14.5 -2.5t2.5 -9.5q0 -18 -3 -27q-2 -10 -2 -23v-17q0 -8 2 -15.5t4 -4.5q71 109 177 109
q88 0 130 -46t42 -113q0 -79 -46.5 -156.5t-118.5 -140.5t-148 -102q-22 -12 -32 -26t-10 -38v-120q0 -30 18 -45.5t57 -24.5q15 -3 22 -7.5t7 -11.5q0 -12 -25 -12q-38 0 -70 3q-38 2 -58 2q-23 0 -65 -2q-33 -3 -71 -3q-11 0 -18 3zM419 282q55 75 55 189q0 61 -24.5 94.5
t-71.5 33.5q-40 0 -72.5 -27t-51 -66t-18.5 -73v-265q0 -30 9 -30q7 0 21 9q98 60 153 135z" />
    <glyph glyph-name="uni01F8" unicode="&#x1f8;" horiz-adv-x="798" 
d="M631 -1q-27 17 -50 49l-108 124q-246 283 -267 306q-11 15 -18 15q-4 0 -6 -6.5t-2 -14.5q-2 -192 -2 -365q0 -66 70 -80q31 -7 31 -19t-28 -12q-30 0 -60 2q-24 2 -40 2q-20 0 -46 -2t-45 -2q-28 0 -28 12q0 7 7 11t24 9q50 14 55 81q7 68 13 177t6 221q0 49 -24 73
t-72 40q-9 3 -19.5 9t-10.5 14t7.5 11.5t16.5 3.5q42 0 75 -3q54 -2 94 -2q7 0 11.5 -3.5t10.5 -11.5l117 -140q64 -76 140 -166.5t129 -152.5q15 -18 22 -18q9 0 10 19v226v155q-1 21 -20 36.5t-44 21.5q-16 3 -27 8t-11 12q0 6 11 9t24 3h71l49 1q32 2 64 2q27 0 27 -13
q0 -14 -31 -20q-36 -7 -49 -18.5t-14 -37.5q-5 -270 -5 -441q0 -28 5 -83l2 -27q0 -32 -24 -32q-14 0 -41 17zM423 693q-16 12 -52 36q-60 41 -91 65q-8 6 -11 10t-4 10q-1 9 23.5 18t39.5 10q20 0 29 -13q37 -46 88 -121q7 -10 7 -17t-8 -7t-21 9z" />
    <glyph glyph-name="uni0200" unicode="&#x200;" horiz-adv-x="702" 
d="M5 -1.5q-8 3.5 -8 10.5q0 14 30 23q29 8 50.5 25t34.5 48q52 119 92.5 221.5t89.5 238.5q14 36 18 66q29 7 48 17q12 6 19.5 18.5t9.5 15.5q6 4 9 -2q3 -5 5 -12t3 -12q60 -191 157 -478l20 -59q16 -46 38 -64t57 -25q15 -3 22.5 -9t7.5 -14q0 -11 -26 -11l-62 2
q-43 3 -85 3l-68 -1q-20 -1 -53 -1q-12 0 -19.5 3.5t-7.5 9.5q0 7 8.5 12.5t21.5 7.5q35 6 50 18t12 32q-1 18 -10.5 54.5t-18.5 71.5q-2 5 -7 23q-2 7 -7 9.5t-17 2.5h-185q-10 0 -17 -17q-10 -30 -23 -74.5t-15 -58.5q-6 -46 59 -62q30 -7 30 -20q0 -12 -27 -12
q-25 0 -40 1l-57 1q-15 0 -35 -1t-30 -2q-28 -3 -54 -3q-12 0 -20 3.5zM408 284q6 0 10 1t4 4q0 1 -2 11l-74 237q-5 16 -8 16q-2 0 -7 -15l-87 -238l-2 -8q0 -5 5 -6.5t15 -1.5h146zM324 691q0 7 -7 17q-51 75 -88 121q-9 13 -29 13q-15 -1 -39.5 -10t-23.5 -18q1 -6 4 -10
t11 -10q31 -24 91 -65q36 -24 52 -36q13 -9 21 -9t8 7zM476 691q0 7 -7 17q-51 75 -88 121q-9 13 -29 13q-15 -1 -39.5 -10t-23.5 -18q1 -6 4 -10t11 -10q31 -24 91 -65q36 -24 52 -36q13 -9 21 -9t8 7z" />
    <glyph glyph-name="uni0202" unicode="&#x202;" horiz-adv-x="702" 
d="M5 -1.5q-8 3.5 -8 10.5q0 14 30 23q29 8 50.5 25t34.5 48q52 119 92.5 221.5t89.5 238.5q14 36 18 66q29 7 48 17q12 6 19.5 18.5t9.5 15.5q6 4 9 -2q3 -5 5 -12t3 -12q60 -191 157 -478l20 -59q16 -46 38 -64t57 -25q15 -3 22.5 -9t7.5 -14q0 -11 -26 -11l-62 2
q-43 3 -85 3l-68 -1q-20 -1 -53 -1q-12 0 -19.5 3.5t-7.5 9.5q0 7 8.5 12.5t21.5 7.5q35 6 50 18t12 32q-1 18 -10.5 54.5t-18.5 71.5q-2 5 -7 23q-2 7 -7 9.5t-17 2.5h-185q-10 0 -17 -17q-10 -30 -23 -74.5t-15 -58.5q-6 -46 59 -62q30 -7 30 -20q0 -12 -27 -12
q-25 0 -40 1l-57 1q-15 0 -35 -1t-30 -2q-28 -3 -54 -3q-12 0 -20 3.5zM408 284q6 0 10 1t4 4q0 1 -2 11l-74 237q-5 16 -8 16q-2 0 -7 -15l-87 -238l-2 -8q0 -5 5 -6.5t15 -1.5h146zM442 808q32 -18 49 -44.5t17 -48.5q0 -12 -2 -18.5t-9 -6.5q-6 0 -11.5 4.5t-9 9
t-5.5 7.5q-21 25 -45.5 36t-57.5 11t-57.5 -11t-45.5 -36q-2 -3 -7 -9t-9.5 -9t-9.5 -3t-8 7t-3 18q0 22 17 48.5t49 44.5t74 18t74 -18z" />
    <glyph glyph-name="uni0204" unicode="&#x204;" horiz-adv-x="568" 
d="M31 7q0 13 29 19q38 8 54 23.5t16 48.5v452q0 34 -14 48.5t-51 22.5q-29 6 -29 20q0 6 7 9.5t19 3.5q35 0 87 -2q50 -2 80 -2q67 0 165 2q33 0 56.5 1.5t26.5 1.5q7 0 13 -3t7 -9l5 -30q11 -57 11 -82q0 -9 -4.5 -13t-9.5 -4q-9 0 -14 12q-1 4 -6.5 19.5t-10.5 25.5
t-10 16q-27 28 -68 28h-112q-14 0 -28 -10.5t-14 -25.5v-204q0 -10 6 -16t15 -6h94q27 0 38.5 12t19.5 41q7 20 19 20q5 0 9 -5t4 -13q-4 -56 -4 -73q0 -37 3 -79v-4q0 -16 -9 -16q-16 0 -24 29q-7 27 -17.5 39.5t-29.5 12.5h-93q-17 0 -24 -5.5t-7 -20.5v-191
q0 -34 14.5 -48t46.5 -14h79q58 0 85 19q16 11 29 29t28 49q8 13 17 12q11 0 11 -16t-10 -52.5t-21 -67.5q-7 -16 -17 -16q-70 0 -150 3q-27 1 -69.5 2t-98.5 1q-28 0 -57 -3q-57 -3 -66 -3q-26 0 -26 12zM254 691q0 7 -7 17q-51 75 -88 121q-9 13 -29 13q-15 -1 -39.5 -10
t-23.5 -18q1 -6 4 -10t11 -10q31 -24 91 -65q36 -24 52 -36q13 -9 21 -9t8 7zM406 691q0 7 -7 17q-51 75 -88 121q-9 13 -29 13q-15 -1 -39.5 -10t-23.5 -18q1 -6 4 -10t11 -10q31 -24 91 -65q36 -24 52 -36q13 -9 21 -9t8 7z" />
    <glyph glyph-name="uni0206" unicode="&#x206;" horiz-adv-x="568" 
d="M31 7q0 13 29 19q38 8 54 23.5t16 48.5v452q0 34 -14 48.5t-51 22.5q-29 6 -29 20q0 6 7 9.5t19 3.5q35 0 87 -2q50 -2 80 -2q67 0 165 2q33 0 56.5 1.5t26.5 1.5q7 0 13 -3t7 -9l5 -30q11 -57 11 -82q0 -9 -4.5 -13t-9.5 -4q-9 0 -14 12q-1 4 -6.5 19.5t-10.5 25.5
t-10 16q-27 28 -68 28h-112q-14 0 -28 -10.5t-14 -25.5v-204q0 -10 6 -16t15 -6h94q27 0 38.5 12t19.5 41q7 20 19 20q5 0 9 -5t4 -13q-4 -56 -4 -73q0 -37 3 -79v-4q0 -16 -9 -16q-16 0 -24 29q-7 27 -17.5 39.5t-29.5 12.5h-93q-17 0 -24 -5.5t-7 -20.5v-191
q0 -34 14.5 -48t46.5 -14h79q58 0 85 19q16 11 29 29t28 49q8 13 17 12q11 0 11 -16t-10 -52.5t-21 -67.5q-7 -16 -17 -16q-70 0 -150 3q-27 1 -69.5 2t-98.5 1q-28 0 -57 -3q-57 -3 -66 -3q-26 0 -26 12zM372 808q32 -18 49 -44.5t17 -48.5q0 -12 -2 -18.5t-9 -6.5
q-6 0 -11.5 4.5t-9 9t-5.5 7.5q-21 25 -45.5 36t-57.5 11t-57.5 -11t-45.5 -36q-2 -3 -7 -9t-9.5 -9t-9.5 -3t-8 7t-3 18q0 22 17 48.5t49 44.5t74 18t74 -18z" />
    <glyph glyph-name="uni0208" unicode="&#x208;" horiz-adv-x="348" 
d="M18 8q0 7 7 11.5t22 7.5q39 7 56.5 22.5t17.5 48.5v452q0 34 -14 48.5t-52 22.5q-29 6 -29 20q0 13 25 13q27 0 69 -2q38 -2 58 -2l56 1q38 2 66 2q26 0 26 -12q0 -14 -29 -20q-40 -8 -55 -23t-15 -48v-452q0 -32 17.5 -47t57.5 -24q15 -3 22 -7.5t7 -11.5q0 -12 -25 -12
q-36 0 -68 3q-40 2 -60 2q-22 0 -64 -2q-33 -3 -70 -3q-26 0 -26 12zM131 691q0 7 -7 17q-51 75 -88 121q-9 13 -29 13q-15 -1 -39.5 -10t-23.5 -18q1 -6 4 -10t11 -10q31 -24 91 -65q36 -24 52 -36q13 -9 21 -9t8 7zM283 691q0 7 -7 17q-51 75 -88 121q-9 13 -29 13
q-15 -1 -39.5 -10t-23.5 -18q1 -6 4 -10t11 -10q31 -24 91 -65q36 -24 52 -36q13 -9 21 -9t8 7z" />
    <glyph glyph-name="uni020A" unicode="&#x20a;" horiz-adv-x="348" 
d="M18 8q0 7 7 11.5t22 7.5q39 7 56.5 22.5t17.5 48.5v452q0 34 -14 48.5t-52 22.5q-29 6 -29 20q0 13 25 13q27 0 69 -2q38 -2 58 -2l56 1q38 2 66 2q26 0 26 -12q0 -14 -29 -20q-40 -8 -55 -23t-15 -48v-452q0 -32 17.5 -47t57.5 -24q15 -3 22 -7.5t7 -11.5q0 -12 -25 -12
q-36 0 -68 3q-40 2 -60 2q-22 0 -64 -2q-33 -3 -70 -3q-26 0 -26 12zM249 808q32 -18 49 -44.5t17 -48.5q0 -12 -2 -18.5t-9 -6.5q-6 0 -11.5 4.5t-9 9t-5.5 7.5q-21 25 -45.5 36t-57.5 11t-57.5 -11t-45.5 -36q-2 -3 -7 -9t-9.5 -9t-9.5 -3t-8 7t-3 18q0 22 17 48.5
t49 44.5t74 18t74 -18z" />
    <glyph glyph-name="uni020C" unicode="&#x20c;" horiz-adv-x="762" 
d="M209.5 27.5q-77.5 41.5 -124 116.5t-46.5 171q0 92 40.5 172t119 128.5t186.5 48.5q90 0 167.5 -41.5t124 -116.5t46.5 -171q0 -92 -40.5 -172t-119 -128.5t-187.5 -48.5q-89 0 -166.5 41.5zM548 97q54 69 54 188q0 92 -26.5 168t-79 121.5t-128.5 45.5
q-101 0 -154.5 -68.5t-53.5 -185.5q0 -92 26 -169t78.5 -123t127.5 -46q102 0 156 69zM347 691q0 7 -7 17q-51 75 -88 121q-9 13 -29 13q-15 -1 -39.5 -10t-23.5 -18q1 -6 4 -10t11 -10q31 -24 91 -65q36 -24 52 -36q13 -9 21 -9t8 7zM499 691q0 7 -7 17q-51 75 -88 121
q-9 13 -29 13q-15 -1 -39.5 -10t-23.5 -18q1 -6 4 -10t11 -10q31 -24 91 -65q36 -24 52 -36q13 -9 21 -9t8 7z" />
    <glyph glyph-name="uni020E" unicode="&#x20e;" horiz-adv-x="762" 
d="M209.5 27.5q-77.5 41.5 -124 116.5t-46.5 171q0 92 40.5 172t119 128.5t186.5 48.5q90 0 167.5 -41.5t124 -116.5t46.5 -171q0 -92 -40.5 -172t-119 -128.5t-187.5 -48.5q-89 0 -166.5 41.5zM548 97q54 69 54 188q0 92 -26.5 168t-79 121.5t-128.5 45.5
q-101 0 -154.5 -68.5t-53.5 -185.5q0 -92 26 -169t78.5 -123t127.5 -46q102 0 156 69zM465 808q32 -18 49 -44.5t17 -48.5q0 -12 -2 -18.5t-9 -6.5q-6 0 -11.5 4.5t-9 9t-5.5 7.5q-21 25 -45.5 36t-57.5 11t-57.5 -11t-45.5 -36q-2 -3 -7 -9t-9.5 -9t-9.5 -3t-8 7t-3 18
q0 22 17 48.5t49 44.5t74 18t74 -18z" />
    <glyph glyph-name="uni0210" unicode="&#x210;" horiz-adv-x="730" 
d="M548.5 -5q-37.5 16 -64.5 51q-41 51 -71 94t-72 114q-13 24 -37 37q-25 12 -63 17q-14 0 -14 -20v-181q0 -33 16.5 -53t54.5 -27q15 -3 22 -7.5t7 -11.5q0 -12 -26 -12q-10 0 -67 3q-25 3 -51 3q-34 0 -66 -3q-10 0 -31 -1.5t-39 -1.5q-26 0 -26 12q0 7 7 11.5t22 7.5
q39 7 55 22.5t16 49.5v434q0 36 -4 52.5t-16 24t-40 11.5q-15 1 -22.5 7t-7.5 13q0 6 7.5 9.5t18.5 3.5q32 0 64 -2l48 -1q17 0 47 2q38 4 76 4q113 0 172 -41t59 -122q0 -61 -35 -100.5t-86 -62.5q-3 -1 -3 -5l2 -8q60 -91 99.5 -142.5t95.5 -102.5q26 -24 53 -30t71 -6
q15 0 15 -14q0 -23 -29 -33.5t-66 -10.5q-54 0 -91.5 16zM374.5 375q37.5 41 37.5 101q0 71 -29 108.5t-105 37.5q-28 0 -37.5 -19t-11.5 -74q-2 -64 -2 -159q0 -22 11.5 -29t36.5 -7q62 0 99.5 41zM250 691q0 7 -7 17q-51 75 -88 121q-9 13 -29 13q-15 -1 -39.5 -10
t-23.5 -18q1 -6 4 -10t11 -10q31 -24 91 -65q36 -24 52 -36q13 -9 21 -9t8 7zM402 691q0 7 -7 17q-51 75 -88 121q-9 13 -29 13q-15 -1 -39.5 -10t-23.5 -18q1 -6 4 -10t11 -10q31 -24 91 -65q36 -24 52 -36q13 -9 21 -9t8 7z" />
    <glyph glyph-name="uni0212" unicode="&#x212;" horiz-adv-x="730" 
d="M548.5 -5q-37.5 16 -64.5 51q-41 51 -71 94t-72 114q-13 24 -37 37q-25 12 -63 17q-14 0 -14 -20v-181q0 -33 16.5 -53t54.5 -27q15 -3 22 -7.5t7 -11.5q0 -12 -26 -12q-10 0 -67 3q-25 3 -51 3q-34 0 -66 -3q-10 0 -31 -1.5t-39 -1.5q-26 0 -26 12q0 7 7 11.5t22 7.5
q39 7 55 22.5t16 49.5v434q0 36 -4 52.5t-16 24t-40 11.5q-15 1 -22.5 7t-7.5 13q0 6 7.5 9.5t18.5 3.5q32 0 64 -2l48 -1q17 0 47 2q38 4 76 4q113 0 172 -41t59 -122q0 -61 -35 -100.5t-86 -62.5q-3 -1 -3 -5l2 -8q60 -91 99.5 -142.5t95.5 -102.5q26 -24 53 -30t71 -6
q15 0 15 -14q0 -23 -29 -33.5t-66 -10.5q-54 0 -91.5 16zM374.5 375q37.5 41 37.5 101q0 71 -29 108.5t-105 37.5q-28 0 -37.5 -19t-11.5 -74q-2 -64 -2 -159q0 -22 11.5 -29t36.5 -7q62 0 99.5 41zM368 808q32 -18 49 -44.5t17 -48.5q0 -12 -2 -18.5t-9 -6.5
q-6 0 -11.5 4.5t-9 9t-5.5 7.5q-21 25 -45.5 36t-57.5 11t-57.5 -11t-45.5 -36q-2 -3 -7 -9t-9.5 -9t-9.5 -3t-8 7t-3 18q0 22 17 48.5t49 44.5t74 18t74 -18z" />
    <glyph glyph-name="uni0214" unicode="&#x214;" horiz-adv-x="740" 
d="M168.5 55.5q-70.5 69.5 -70.5 189.5v299q0 31 -13 50t-34 25q-32 9 -32 22t28 13q18 0 52 -2q38 -2 56 -2t56 2l44 1q28 0 28 -13q0 -6 -6.5 -10t-17 -7.5t-14.5 -5.5q-15 -5 -27.5 -25t-12.5 -49v-274q0 -109 53 -164.5t140 -55.5q96 0 144 64t48 182q0 135 -2 206
q-2 50 -12.5 79t-33.5 38q-2 1 -12.5 4.5t-16.5 8t-6 9.5q0 12 29 12l46 -1q12 -1 37 -1q18 0 46 2q26 2 38 2q28 0 28 -13t-31 -20q-28 -6 -40 -26t-14 -54q-6 -116 -8 -242l-1 -45q-1 -78 -36.5 -139t-95.5 -95t-133 -34q-133 0 -203.5 69.5zM352 691q0 7 -7 17
q-51 75 -88 121q-9 13 -29 13q-15 -1 -39.5 -10t-23.5 -18q1 -6 4 -10t11 -10q31 -24 91 -65q36 -24 52 -36q13 -9 21 -9t8 7zM504 691q0 7 -7 17q-51 75 -88 121q-9 13 -29 13q-15 -1 -39.5 -10t-23.5 -18q1 -6 4 -10t11 -10q31 -24 91 -65q36 -24 52 -36q13 -9 21 -9t8 7z
" />
    <glyph glyph-name="uni0216" unicode="&#x216;" horiz-adv-x="740" 
d="M168.5 55.5q-70.5 69.5 -70.5 189.5v299q0 31 -13 50t-34 25q-32 9 -32 22t28 13q18 0 52 -2q38 -2 56 -2t56 2l44 1q28 0 28 -13q0 -6 -6.5 -10t-17 -7.5t-14.5 -5.5q-15 -5 -27.5 -25t-12.5 -49v-274q0 -109 53 -164.5t140 -55.5q96 0 144 64t48 182q0 135 -2 206
q-2 50 -12.5 79t-33.5 38q-2 1 -12.5 4.5t-16.5 8t-6 9.5q0 12 29 12l46 -1q12 -1 37 -1q18 0 46 2q26 2 38 2q28 0 28 -13t-31 -20q-28 -6 -40 -26t-14 -54q-6 -116 -8 -242l-1 -45q-1 -78 -36.5 -139t-95.5 -95t-133 -34q-133 0 -203.5 69.5zM470 808q32 -18 49 -44.5
t17 -48.5q0 -12 -2 -18.5t-9 -6.5q-6 0 -11.5 4.5t-9 9t-5.5 7.5q-21 25 -45.5 36t-57.5 11t-57.5 -11t-45.5 -36q-2 -3 -7 -9t-9.5 -9t-9.5 -3t-8 7t-3 18q0 22 17 48.5t49 44.5t74 18t74 -18z" />
    <glyph glyph-name="uni0218" unicode="&#x218;" horiz-adv-x="472" 
d="M62 31q-13 11 -15 21q-11 32 -13 119q0 7 5.5 10.5t14.5 3.5q14 0 18 -12q20 -73 60.5 -112t90.5 -39t80.5 32t30.5 81q0 36 -12.5 60.5t-34.5 42t-66 43.5q-60 36 -90.5 58t-53.5 56.5t-23 82.5q0 53 26 95.5t75.5 66.5t116.5 24q58 0 113 -23q17 -7 23 -27
q17 -68 17 -106q0 -5 -4.5 -8t-11.5 -3q-9 0 -17 4t-10 10q-20 57 -50.5 85.5t-73.5 28.5q-49 0 -78.5 -26t-29.5 -80q0 -37 33 -66.5t106 -73.5q73 -45 109 -87.5t36 -108.5q0 -93 -61 -145.5t-164 -52.5q-86 0 -147 46zM173 -270q0 9 15 14q25 9 39.5 28t14.5 41
q0 20 -10 29t-34 15q-19 5 -28.5 15.5t-9.5 30.5q0 18 14 30t37 12q39 0 65 -28t26 -73q0 -37 -20 -65t-47 -43.5t-46 -15.5q-16 0 -16 10z" />
    <glyph glyph-name="uni021A" unicode="&#x21a;" horiz-adv-x="679" 
d="M184 8q0 7 7 11.5t23 7.5q40 7 58 24t18 50v396q0 63 -4 84t-15 24q-16 4 -62 4h-39q-27 0 -52.5 -12t-37.5 -32q-28 -42 -46 -42q-10 0 -10 14q0 8 6 22q16 31 23 55.5t11 57.5q3 24 20 24q5 0 14.5 -14t12.5 -19q7 -9 28.5 -14t42.5 -5l361 1q57 0 85 14q12 8 16 12
q2 1 9.5 6.5t17.5 5.5q4 0 6 -6.5t2 -14.5q0 -7 -3 -25l-7 -30q-3 -11 -5 -21.5t-2 -23.5v-14q0 -13 -4.5 -23.5t-11.5 -10.5q-8 0 -12.5 9.5t-10.5 31.5q-6 27 -27.5 40.5t-66.5 13.5h-84q-22 0 -32 -6.5t-13.5 -29.5t-3.5 -76v-396q0 -32 18.5 -48.5t58.5 -25.5
q15 -3 22 -7.5t7 -11.5q0 -12 -26 -12q-37 0 -69 3q-40 2 -60 2q-23 0 -65 -2q-33 -3 -71 -3q-27 0 -27 12zM286 -270q0 9 15 14q25 9 39.5 28t14.5 41q0 20 -10 29t-34 15q-19 5 -28.5 15.5t-9.5 30.5q0 18 14 30t37 12q39 0 65 -28t26 -73q0 -37 -20 -65t-47 -43.5
t-46 -15.5q-16 0 -16 10z" />
    <glyph glyph-name="uni021E" unicode="&#x21e;" horiz-adv-x="807" 
d="M38 -0.5q-7 3.5 -7 9.5q0 7 6 11t22 7q36 7 48.5 21.5t12.5 49.5v453q0 35 -10 49t-45 21q-15 3 -22 7.5t-7 11.5q0 6 6.5 10t18.5 4q29 0 65 -2q32 -2 50 -2l54 1q38 2 67 2q25 0 25 -13q0 -7 -7 -11.5t-22 -7.5q-38 -8 -52.5 -24t-14.5 -46v-191q0 -11 14 -11h334
q9 0 9 13v189q0 30 -14.5 46t-51.5 24q-15 3 -22 7.5t-7 11.5q0 13 25 13q27 0 69 -2l58 -1q17 0 45 2q34 2 62 2q12 0 19 -4t7 -10q0 -7 -7 -11.5t-22 -7.5q-35 -7 -45 -22t-10 -47v-453q0 -37 10.5 -51t46.5 -21q16 -3 22 -7t6 -11q0 -6 -7.5 -9.5t-18.5 -3.5q-35 0 -64 3
q-32 2 -51 2q-18 0 -54 -2q-30 -3 -67 -3q-11 0 -18 3.5t-7 9.5q0 8 6 11.5t22 6.5q35 8 51.5 24t16.5 46v193q0 15 -8 15h-341q-5 0 -6.5 -2.5t-1.5 -9.5v-189q0 -30 19.5 -49.5t55.5 -27.5q16 -3 22.5 -6.5t6.5 -11.5q0 -6 -7.5 -9.5t-18.5 -3.5q-36 0 -68 3q-40 2 -60 2
q-19 0 -55 -2q-28 -3 -65 -3q-11 0 -18 3.5zM325 811q46 -20 69 -33q8 -4 11 -4t11 4q23 13 69 33.5t56 20.5q15 0 15 -12q0 -8 -6 -13l-101 -83q-19 -16 -26 -20.5t-18 -4.5t-18 4.5t-26 20.5l-101 83q-7 6 -7 13q0 11 16 11q10 0 56 -20z" />
    <glyph glyph-name="uni0220" unicode="&#x220;" horiz-adv-x="804" 
d="M506.5 -281q-7.5 4 -7.5 10q0 7 6.5 11t21.5 7q35 6 52 22.5t17 47.5v585q0 89 -40 140.5t-110 51.5q-92 0 -156 -58q-21 -21 -35.5 -53.5t-14.5 -87.5v-296q1 -32 17.5 -46t48.5 -23q29 -9 29 -20q0 -12 -25 -12q-32 0 -49 1l-52 1q-26 0 -74 -2q-50 -2 -79 -2
q-25 0 -25 12q0 7 7 11.5t22 7.5q39 7 56.5 22.5t17.5 48.5v452q0 34 -14 48.5t-53 22.5q-29 6 -29 20q0 6 7.5 9.5t18.5 3.5q23 0 61 -2q34 -2 51 -2q15 0 37 4q16 2 21 2t8 -3.5t3 -10.5q0 -4 -3 -13.5t-3 -18.5v-44q0 -14 5 -20q61 59 127 88t143 29q53 0 96 -32
t67.5 -87.5t24.5 -123.5v-601q0 -35 11 -50t47 -22q16 -3 22 -7t6 -11q0 -6 -7 -9.5t-18 -3.5q-26 0 -66 2q-34 2 -53 2t-53 -2q-28 -3 -66 -3q-11 0 -18.5 4z" />
    <glyph glyph-name="uni0222" unicode="&#x222;" horiz-adv-x="615" 
d="M172.5 4q-58.5 18 -95 54.5t-36.5 91.5q0 48 27 83t65 57.5t101 52.5q-70 35 -112 75t-42 96q0 67 47.5 106.5t117.5 39.5q7 0 12 -6t5 -13q0 -3 -21 -13t-37 -29.5t-16 -53.5q0 -49 40 -83t112 -67q50 26 79.5 61t29.5 76q0 40 -19.5 63.5t-40.5 37t-21 16.5
q0 8 6.5 17.5t14.5 9.5q34 0 71.5 -13t63 -41t25.5 -69q0 -62 -43 -103t-117 -75q70 -37 108 -63t57.5 -57.5t19.5 -76.5q0 -63 -39 -106.5t-102 -64.5t-137 -21q-65 0 -123.5 18zM381 43q34 15 54.5 42t20.5 61q0 51 -42 89.5t-136 81.5q-56 -28 -86.5 -61.5t-30.5 -82.5
q0 -37 20 -70.5t54 -54t75 -20.5q37 0 71 15z" />
    <glyph glyph-name="uni0224" unicode="&#x224;" horiz-adv-x="608" 
d="M247 -263.5q-47 11.5 -47 32.5q0 26 13.5 42t31.5 16q5 0 13.5 -5.5t17.5 -12.5q25 -19 47 -30.5t50 -11.5q46 0 84.5 23t60.5 60t22 77q0 36 -20.5 54.5t-61.5 18.5h-224q-75 0 -122 -3l-75 -1q-6 0 -9 7t-2 13q4 11 22 39.5t36 53.5l98 142q142 203 228 336q1 2 3 5
t2 6q0 8 -18 9q-60 2 -118 2q-62 0 -100 -2q-29 -2 -58.5 -22.5t-44.5 -55.5q-8 -16 -15 -24t-18 -8t-11 13q0 8 7 27q23 57 28 117q1 21 17 21q5 0 17 -8t17 -11q8 -4 26.5 -5.5t31.5 -2t19 -0.5q48 -1 136 -1q100 0 230 4q5 0 10.5 -8t2.5 -12l-64 -91q-87 -122 -226 -334
l-86 -130q-5 -7 -5 -17q0 -16 15 -16l270 2q69 1 102 -27.5t33 -74.5q0 -69 -44.5 -118.5t-108.5 -74.5t-122 -25q-44 0 -91 11.5z" />
    <glyph glyph-name="uni0226" unicode="&#x226;" horiz-adv-x="702" 
d="M5 -1.5q-8 3.5 -8 10.5q0 14 30 23q29 8 50.5 25t34.5 48q52 119 92.5 221.5t89.5 238.5q14 36 18 66q29 7 48 17q12 6 19.5 18.5t9.5 15.5q6 4 9 -2q3 -5 5 -12t3 -12q60 -191 157 -478l20 -59q16 -46 38 -64t57 -25q15 -3 22.5 -9t7.5 -14q0 -11 -26 -11l-62 2
q-43 3 -85 3l-68 -1q-20 -1 -53 -1q-12 0 -19.5 3.5t-7.5 9.5q0 7 8.5 12.5t21.5 7.5q35 6 50 18t12 32q-1 18 -10.5 54.5t-18.5 71.5q-2 5 -7 23q-2 7 -7 9.5t-17 2.5h-185q-10 0 -17 -17q-10 -30 -23 -74.5t-15 -58.5q-6 -46 59 -62q30 -7 30 -20q0 -12 -27 -12
q-25 0 -40 1l-57 1q-15 0 -35 -1t-30 -2q-28 -3 -54 -3q-12 0 -20 3.5zM408 284q6 0 10 1t4 4q0 1 -2 11l-74 237q-5 16 -8 16q-2 0 -7 -15l-87 -238l-2 -8q0 -5 5 -6.5t15 -1.5h146zM323 712.5q-19 18.5 -19 43.5q0 26 19 44.5t45 18.5q28 0 47 -18.5t19 -44.5t-19 -44
t-47 -18q-26 0 -45 18.5z" />
    <glyph glyph-name="uni0228" unicode="&#x228;" horiz-adv-x="545" 
d="M31 7q0 13 29 19q38 8 54 23.5t16 48.5v452q0 34 -14 48.5t-51 22.5q-29 6 -29 20q0 6 7 9.5t19 3.5q35 0 87 -2q50 -2 80 -2q67 0 165 2q33 0 56.5 1.5t26.5 1.5q7 0 13 -3t7 -9l5 -30q11 -57 11 -82q0 -9 -4.5 -13t-9.5 -4q-9 0 -14 12q-1 4 -6.5 19.5t-10.5 25.5
t-10 16q-27 28 -68 28h-112q-14 0 -28 -10.5t-14 -25.5v-204q0 -10 6 -16t15 -6h94q27 0 38.5 12t19.5 41q7 20 19 20q5 0 9 -5t4 -13q-4 -56 -4 -73q0 -37 3 -79v-4q0 -16 -9 -16q-16 0 -24 29q-7 27 -17.5 39.5t-29.5 12.5h-93q-17 0 -24 -5.5t-7 -20.5v-191
q0 -34 14.5 -48t46.5 -14h79q58 0 85 19q16 11 29 29t28 49q8 13 17 12q11 0 11 -16t-10 -52.5t-21 -67.5q-7 -16 -17 -16q-70 0 -150 3q-27 1 -69.5 2t-98.5 1q-28 0 -57 -3q-57 -3 -66 -3q-26 0 -26 12zM202 -266.5q-12 8.5 -12 27.5q0 15 5.5 24t12.5 9q2 0 16 -6.5
t46 -6.5q20 0 31.5 10.5t11.5 28.5q0 24 -12.5 36.5t-35.5 12.5q-6 0 -13.5 -2t-11.5 -2q-12 0 -19.5 6.5t-7.5 12.5q0 8 6 16l84 108h37l-37 -53q-4 -5 -4 -10q0 -7 10 -12q26 -9 45.5 -32t19.5 -54q0 -32 -22.5 -60.5t-55 -45t-58.5 -16.5q-24 0 -36 8.5z" />
    <glyph glyph-name="uni022A" unicode="&#x22a;" horiz-adv-x="762" 
d="M209.5 27.5q-77.5 41.5 -124 116.5t-46.5 171q0 92 40.5 172t119 128.5t186.5 48.5q90 0 167.5 -41.5t124 -116.5t46.5 -171q0 -92 -40.5 -172t-119 -128.5t-187.5 -48.5q-89 0 -166.5 41.5zM548 97q54 69 54 188q0 92 -26.5 168t-79 121.5t-128.5 45.5
q-101 0 -154.5 -68.5t-53.5 -185.5q0 -92 26 -169t78.5 -123t127.5 -46q102 0 156 69zM252 709q-17 17 -17 41q0 25 17 41.5t41 16.5q25 0 42 -16.5t17 -41.5q0 -24 -17 -41t-42 -17q-24 0 -41 17zM448 709q-17 17 -17 41q0 25 17 41.5t41 16.5q25 0 41.5 -16.5t16.5 -41.5
q0 -24 -16.5 -41t-41.5 -17q-24 0 -41 17zM245.5 851.5q-4.5 4.5 -4.5 9.5q0 16 7.5 32.5t20.5 16.5h265q6 0 10.5 -4.5t4.5 -9.5q0 -18 -10.5 -33.5t-23.5 -15.5h-258q-7 0 -11.5 4.5z" />
    <glyph glyph-name="uni022C" unicode="&#x22c;" horiz-adv-x="762" 
d="M209.5 27.5q-77.5 41.5 -124 116.5t-46.5 171q0 92 40.5 172t119 128.5t186.5 48.5q90 0 167.5 -41.5t124 -116.5t46.5 -171q0 -92 -40.5 -172t-119 -128.5t-187.5 -48.5q-89 0 -166.5 41.5zM548 97q54 69 54 188q0 92 -26.5 168t-79 121.5t-128.5 45.5
q-101 0 -154.5 -68.5t-53.5 -185.5q0 -92 26 -169t78.5 -123t127.5 -46q102 0 156 69zM259 697.5q-6 5.5 -6 10.5q0 6 16 29t34.5 42t29.5 19q28 0 74 -4l21 -1q32 -2 50 -2q20 0 37 19q6 6 12 13t8 7q7 0 14 -5.5t7 -11.5q0 -4 -7 -12t-9 -10q-13 -15 -44 -57
q-5 -7 -14.5 -10.5t-15.5 -3.5t-56 4q-82 5 -88 5q-7 0 -16.5 -4.5t-15.5 -10.5q-7 -7 -12.5 -14.5t-7.5 -7.5q-5 0 -11 5.5zM265.5 851.5q-4.5 4.5 -4.5 9.5q0 16 7.5 32.5t20.5 16.5h265q6 0 10.5 -4.5t4.5 -9.5q0 -18 -10.5 -33.5t-23.5 -15.5h-258q-7 0 -11.5 4.5z" />
    <glyph glyph-name="uni022E" unicode="&#x22e;" horiz-adv-x="762" 
d="M209.5 27.5q-77.5 41.5 -124 116.5t-46.5 171q0 92 40.5 172t119 128.5t186.5 48.5q90 0 167.5 -41.5t124 -116.5t46.5 -171q0 -92 -40.5 -172t-119 -128.5t-187.5 -48.5q-89 0 -166.5 41.5zM548 97q54 69 54 188q0 92 -26.5 168t-79 121.5t-128.5 45.5
q-101 0 -154.5 -68.5t-53.5 -185.5q0 -92 26 -169t78.5 -123t127.5 -46q102 0 156 69zM346 712.5q-19 18.5 -19 43.5q0 26 19 44.5t45 18.5q28 0 47 -18.5t19 -44.5t-19 -44t-47 -18q-26 0 -45 18.5z" />
    <glyph glyph-name="uni0230" unicode="&#x230;" horiz-adv-x="762" 
d="M209.5 27.5q-77.5 41.5 -124 116.5t-46.5 171q0 92 40.5 172t119 128.5t186.5 48.5q90 0 167.5 -41.5t124 -116.5t46.5 -171q0 -92 -40.5 -172t-119 -128.5t-187.5 -48.5q-89 0 -166.5 41.5zM548 97q54 69 54 188q0 92 -26.5 168t-79 121.5t-128.5 45.5
q-101 0 -154.5 -68.5t-53.5 -185.5q0 -92 26 -169t78.5 -123t127.5 -46q102 0 156 69zM346 712.5q-19 18.5 -19 43.5q0 26 19 44.5t45 18.5q28 0 47 -18.5t19 -44.5t-19 -44t-47 -18q-26 0 -45 18.5zM243.5 853.5q-4.5 4.5 -4.5 9.5q0 16 7.5 32.5t20.5 16.5h265
q6 0 10.5 -4.5t4.5 -9.5q0 -18 -10.5 -33.5t-23.5 -15.5h-258q-7 0 -11.5 4.5z" />
    <glyph glyph-name="uni0232" unicode="&#x232;" horiz-adv-x="605" 
d="M157 7q0 14 32 20q74 13 74 82v144q0 36 -27 84l-121 194q-21 33 -41.5 57.5t-43.5 30.5q-16 6 -23 10.5t-7 11.5q0 12 26 12q17 0 59 -2q46 -2 74 -2q19 0 53 2q30 2 43 2q12 0 20 -3t8 -9q0 -13 -31 -21q-21 -5 -30 -11t-9 -18q0 -13 12 -36l96 -173q16 -30 25 -30
q5 0 10.5 6t16.5 24q31 51 86 153q16 28 16 47q0 18 -13.5 26.5t-32.5 10.5q-11 2 -21.5 8t-10.5 13q0 6 8 9t21 3l43 -1q13 -1 41 -1q23 0 61 2q30 2 42 2q30 0 30 -13q0 -7 -10.5 -11.5t-34.5 -11.5q-26 -7 -44.5 -25.5t-43.5 -57.5l-22 -34l-93 -150q-16 -28 -20.5 -45
t-4.5 -47v-150q0 -35 18 -54.5t57 -27.5q16 -3 24 -7.5t8 -11.5q0 -13 -29 -13q-18 0 -38 1.5t-30 1.5q-30 3 -60 3q-32 0 -64 -3q-10 0 -31 -1.5t-39 -1.5q-29 0 -29 12zM192.5 725.5q-4.5 4.5 -4.5 9.5q0 16 7.5 32.5t20.5 16.5h265q6 0 10.5 -4.5t4.5 -9.5
q0 -18 -10.5 -33.5t-23.5 -15.5h-258q-7 0 -11.5 4.5z" />
    <glyph glyph-name="uni023A" unicode="&#x23a;" horiz-adv-x="702" 
d="M700.5 21q7.5 -6 7.5 -14q0 -11 -26 -11l-62 2q-43 3 -85 3l-68 -1q-20 -1 -53 -1q-12 0 -19.5 3.5t-7.5 9.5q0 7 8.5 12.5t21.5 7.5q35 6 50 18t12 32q-1 18 -10.5 54.5t-18.5 71.5q-2 5 -7 23q-2 7 -7 9.5t-17 2.5h-65l-120 -211l4 -1q30 -7 30 -20q0 -12 -27 -12h-26
l-41 -71q-7 -12 -18.5 -16t-30.5 -4q-17 0 -17 17l0.5 1.5t2.5 5.5l39 69h-6q-15 0 -35 -1t-30 -2q-28 -3 -54 -3q-12 0 -20 3.5t-8 10.5q0 14 30 23q29 8 50.5 25t34.5 48q52 119 92.5 221.5t89.5 238.5q14 36 18 66q29 7 48 17q12 6 19.5 18.5t9.5 15.5q6 4 9 -2
q3 -5 5 -12t3 -12l10 -32l33 -102l101 177q7 12 18.5 15t32.5 3q6 0 10.5 -4t4.5 -10l-2 -7l-141 -247q43 -132 103 -309l7 -21q16 -46 38 -64t57 -25q15 -3 22.5 -9zM242 292q0 -5 5 -6.5t15 -1.5h50l73 127l-39 126q-5 16 -8 16q-2 0 -7 -15l-87 -238zM418 285q4 1 4 4
q0 1 -2 11l-12 37l-30 -53h30q6 0 10 1zM289 243h-55q-10 0 -17 -17q-10 -30 -23 -74.5t-15 -58.5l-1 -8q0 -12 7 -24z" />
    <glyph glyph-name="uni023B" unicode="&#x23b;" horiz-adv-x="648" 
d="M642 164q6 0 10 -4t4 -12q0 -14 -7.5 -45t-17.5 -58q-6 -13 -11 -18t-19 -10q-37 -15 -88.5 -23.5t-106.5 -8.5q-88 0 -169 36l-53 -93q-7 -12 -19 -16t-31 -4q-8 0 -12.5 5t-4.5 12l0.5 1.5t3.5 5.5l67 117q-69 45 -108.5 115t-39.5 157q0 94 52 172.5t142 124t198 45.5
q57 0 102 -9l26 45q7 12 18 15t32 3q6 0 11 -4t5 -10l-3 -7l-32 -56l21 -6q13 -4 19.5 -11.5t7.5 -20.5q6 -58 9 -116q0 -7 -5.5 -11.5t-11.5 -4.5q-15 0 -19 15q-11 37 -22 60t-31 39l-288 -503q65 -57 152 -57q71 0 118 31t80 95q8 14 21 14zM182 226q17 -57 49 -101
l279 486q-40 14 -92 14q-73 0 -130.5 -39t-90 -103t-32.5 -137q0 -63 17 -120z" />
    <glyph glyph-name="uni023D" unicode="&#x23d;" horiz-adv-x="585" 
d="M573.5 166q3.5 -6 3.5 -13q0 -3 -1 -5.5t-1 -5.5q-14 -50 -19.5 -74.5t-8.5 -54.5q-2 -18 -15 -18q-52 0 -172 2q-88 3 -172 3q-47 0 -107 -4l-31 -1q-12 0 -18.5 4t-6.5 9q0 11 21 18q40 9 57.5 24t17.5 46v217h-63q-7 0 -11.5 7.5t-4.5 14.5q0 9 7.5 15.5t17.5 6.5h54
v200q0 24 -5 35.5t-17 17.5t-40 11q-29 6 -29 20q0 13 26 13q27 0 67 -2q36 -2 56 -2l64 1q44 2 70 2q25 0 25 -12q0 -14 -29 -20q-45 -10 -63.5 -21t-18.5 -38v-205h154q6 0 11 -4t5 -10l-1 -3q-12 -27 -34 -27h-135v-214q0 -31 14.5 -44.5t54.5 -13.5h116q24 0 43.5 7.5
t32.5 18.5q18 17 29 32.5t23 41.5q8 16 13 23.5t11 7.5t9.5 -6z" />
    <glyph glyph-name="uni023E" unicode="&#x23e;" horiz-adv-x="679" 
d="M677 676.5q2 -6.5 2 -14.5q0 -7 -3 -25l-7 -30q-3 -11 -5 -21.5t-2 -23.5v-14q0 -13 -4.5 -23.5t-11.5 -10.5q-8 0 -12.5 9.5t-10.5 31.5q-5 20 -17 32.5t-35 17.5l-175 -305v-199q0 -32 18.5 -48.5t58.5 -25.5q15 -3 22 -7.5t7 -11.5q0 -12 -26 -12q-37 0 -69 3
q-40 2 -60 2q-24 0 -68 -2q-27 -3 -57 -3l-39 -68q-7 -12 -18.5 -16t-30.5 -4q-17 0 -17 17l0.5 1.5t2.5 5.5l170 297v268q0 63 -4 84t-15 24q-16 4 -62 4h-39q-27 0 -52.5 -12t-37.5 -32q-28 -42 -46 -42q-10 0 -10 14q0 8 6 22q16 31 23 55.5t11 57.5q3 24 20 24
q5 0 14.5 -14t12.5 -19q7 -9 28.5 -14t42.5 -5l346 1l31 54q7 12 19 15t32 3q6 0 11 -4t5 -10l-3 -7l-27 -47q15 2 32 10q12 8 16 12q2 1 9.5 6.5t17.5 5.5q4 0 6 -6.5zM396 414l111 195h-62q-22 0 -32 -6.5t-13.5 -29.5t-3.5 -76v-83zM290 115l-46 -80q24 8 35 23.5
t11 42.5v14z" />
    <glyph glyph-name="uni0243" unicode="&#x243;" horiz-adv-x="617" 
d="M506 330q31 -16 53 -49t22 -87q0 -51 -16 -84t-37.5 -49.5t-50.5 -31.5q-68 -33 -172 -33q-10 0 -42 2q-40 2 -68 2q-24 0 -64 -2q-31 -3 -70 -3q-12 0 -19 3t-7 9q0 13 29 19q39 8 56 23.5t17 48.5v73h-77q-8 0 -12.5 7t-4.5 14q0 9 9 15.5t19 6.5h66v336q0 35 -14.5 51
t-50.5 20q-15 1 -22 7t-7 13q0 6 7 9.5t19 3.5q31 0 65 -2l50 -1q24 0 48 3q57 3 74 3q121 0 178.5 -34.5t57.5 -114.5q0 -31 -11.5 -57t-28.5 -42q-16 -15 -30.5 -24t-38.5 -17q-4 -2 -4 -5.5t4 -4.5q42 -12 73 -28zM242 407q0 -21 13.5 -29t30.5 -8q63 0 108 29
q14 9 27 32t13 61q0 130 -131 130q-35 0 -48 -10.5t-13 -33.5v-171zM387 61.5q34 19.5 54.5 53t20.5 73.5q0 49 -19.5 78.5t-45.5 45.5q-38 24 -102 24q-25 0 -39 -11t-14 -24v-87h97q6 0 11.5 -4t5.5 -9l-1 -4q-13 -26 -35 -26h-78v-61q0 -37 18 -52.5t54 -15.5
q39 0 73 19.5z" />
    <glyph glyph-name="uni0244" unicode="&#x244;" horiz-adv-x="743" 
d="M673 595q-12 -20 -14 -54q-3 -51 -4.5 -107t-2.5 -80l-1 -47h60q6 0 11 -4t5 -9l-1 -3q-11 -27 -34 -27h-42v-10q-1 -78 -36.5 -139t-95.5 -95t-133 -34q-133 0 -203.5 69.5t-70.5 189.5v19h-55q-8 0 -12.5 7t-4.5 15t9 14.5t19 6.5h44v237q0 31 -13 50t-34 25
q-32 9 -32 22t28 13q18 0 52 -2q38 -2 56 -2t56 2l44 1q28 0 28 -13q0 -6 -6.5 -10t-17 -7.5t-14.5 -5.5q-15 -5 -27.5 -25t-12.5 -49v-236h385q0 129 -2 194q-2 50 -12.5 79t-33.5 38q-2 1 -12.5 4.5t-16.5 8t-6 9.5q0 12 29 12l46 -1q12 -1 37 -1q18 0 46 2q26 2 38 2
q28 0 28 -13t-31 -20q-28 -6 -40 -26zM548.5 105q47.5 56 53.5 159h-384q1 -107 54 -161t139 -54q90 0 137.5 56z" />
    <glyph glyph-name="uni0245" unicode="&#x245;" horiz-adv-x="684" 
d="M370 654q11 -26 26 -70l187 -482q23 -58 71 -71q16 -6 23 -10.5t7 -11.5q0 -12 -26 -12l-57 1q-50 2 -74 2t-72 -2l-49 -1q-12 0 -20 3t-8 9q0 8 8.5 14t22.5 7q63 8 63 39q0 16 -4 28t-5 14l-139 373q-2 6 -5 6t-6 -7l-129 -341q-11 -28 -11 -51q0 -26 15.5 -41.5
t42.5 -18.5q14 -2 23 -8t9 -13q0 -6 -8 -9t-21 -3q-29 0 -43 1l-55 1q-23 0 -63 -2q-36 -2 -49 -2q-30 0 -30 13q0 7 7.5 11.5t23.5 8.5q64 15 95 90l175 424l21 51q22 53 25 60q5 10 14 10q11 0 15 -10z" />
    <glyph glyph-name="uni0246" unicode="&#x246;" horiz-adv-x="545" 
d="M551 696l-48 -85q10 -60 10 -80q0 -9 -4.5 -13t-9.5 -4q-9 0 -14 12l-12 34l-118 -207q25 1 35.5 12.5t18.5 40.5q7 20 19 20q5 0 9 -5t4 -13q-4 -56 -4 -73q0 -37 3 -79v-4q0 -16 -9 -16q-16 0 -24 29q-7 27 -17.5 39.5t-29.5 12.5h-26l-98 -171v-46q0 -34 14.5 -48
t46.5 -14h79q58 0 85 19q16 11 29 29t28 49q8 13 17 12q11 0 11 -16t-10 -52.5t-21 -67.5q-7 -16 -17 -16q-70 0 -150 3q-27 1 -69.5 2t-98.5 1q-19 0 -28 -1l-41 -72q-7 -12 -18.5 -16t-30.5 -4q-17 0 -17 17l0.5 1.5t2.5 5.5l36 64q-8 -1 -27 -1q-26 0 -26 12q0 13 29 19
q22 5 35.5 11t21.5 16l8 13q5 15 5 32v452q0 34 -14 48.5t-51 22.5q-29 6 -29 20q0 6 7 9.5t19 3.5q35 0 87 -2q50 -2 80 -2q67 0 165 2q37 0 67 2l26 45q7 12 19 15t32 3q6 0 11 -4t5 -10zM236 375q0 -10 6 -16t15 -6h32l144 253q-18 9 -43 9h-112q-14 0 -28 -10.5
t-14 -25.5v-204zM268 317h-1q-17 0 -24 -5.5t-7 -20.5v-31z" />
    <glyph glyph-name="uni0248" unicode="&#x248;" horiz-adv-x="340" 
d="M326 332q5 -4 5 -10l-1 -3q-12 -27 -34 -27h-50v-231q0 -51 -23.5 -101.5t-56.5 -91.5q-54 -68 -112 -68q-57 0 -86.5 13.5t-29.5 38.5q0 18 15 34.5t29 16.5q24 0 45 -24q17 -22 26.5 -30t21.5 -8q65 0 65 161v290h-105q-8 0 -12.5 7.5t-4.5 14.5q0 9 7.5 15.5t17.5 6.5
h97v215q0 33 -14.5 47.5t-51.5 22.5q-29 6 -29 20q0 13 26 13q28 0 68 -2q38 -2 58 -2l47 1q36 2 65 2q25 0 25 -12q0 -14 -29 -20q-37 -8 -48 -22t-11 -48v-215h69q6 0 11 -4z" />
    <glyph glyph-name="uni024A" unicode="&#x24a;" horiz-adv-x="755" 
d="M613.5 -248.5q-43.5 42.5 -67.5 108t-24 132.5v9q0 16 -11 16q-5 0 -19 -6q-23 -11 -62 -18.5t-87 -7.5q-85 0 -154.5 41.5t-109.5 113.5t-40 162q0 97 44 179.5t121.5 132t174.5 49.5q30 0 88 -12.5t77 -20.5q9 -3 20 3.5t25 19.5q3 3 13 10.5t16 7.5t8 -11t2 -31v-718
q0 -160 64 -160q12 0 21.5 8t26.5 29q20 24 46 24q13 0 28 -16.5t15 -34.5q0 -25 -29.5 -38.5t-86.5 -13.5q-56 0 -99.5 42.5zM436 38.5q35 14.5 60.5 37t25.5 45.5v398q0 27 -20.5 51.5t-56 39.5t-77.5 15q-65 0 -111.5 -43.5t-70 -112t-23.5 -143.5q0 -76 23.5 -145.5
t71.5 -113t117 -43.5q26 0 61 14.5z" />
    <glyph glyph-name="uni024C" unicode="&#x24c;" horiz-adv-x="730" 
d="M735 23q0 -23 -29 -33.5t-66 -10.5q-54 0 -91.5 16t-64.5 51l-18 22q-37 47 -61 80.5t-59 93.5q-7 11 -22.5 21.5t-30.5 16.5q-13 5 -52 10h-2q-12 0 -12 -18v-165q0 -33 16.5 -53t54.5 -27q15 -3 22 -7.5t7 -11.5q0 -12 -26 -12q-10 0 -67 3q-25 3 -51 3q-34 0 -66 -3
q-10 0 -31 -1.5t-39 -1.5q-26 0 -26 12q0 7 7 11.5t22 7.5q39 7 55 22.5t16 49.5v192h-54q-6 0 -11 4.5t-5 10.5q0 11 7.5 23t19.5 12h43v189q0 43 -12.5 63.5t-47.5 27.5q-30 6 -30 20q0 6 7.5 9.5t18.5 3.5q32 0 64 -2l48 -1q17 0 47 2q38 4 76 4q113 0 172 -41.5
t59 -122.5q0 -109 -118 -167q-3 -1 -3 -5q0 -3 3 -8q61 -92 98 -140.5t93 -99.5q26 -24 53 -30t71 -6q15 0 15 -14zM375 379.5q37 38.5 37 96.5q0 71 -27 108.5t-95 37.5q-35 0 -47 -13t-13 -39q-3 -103 -3 -192q0 -22 11.5 -29.5t36.5 -7.5q63 0 100 38.5z" />
    <glyph glyph-name="uni024E" unicode="&#x24e;" horiz-adv-x="605" 
d="M643 641q0 -7 -10.5 -11.5t-34.5 -11.5q-26 -7 -44.5 -25.5t-43.5 -57.5l-17 -27h81q6 0 11 -4t5 -10l-1 -3q-12 -27 -34 -27h-90q-29 -45 -46 -74l-24 -39q-16 -28 -20.5 -45t-4.5 -47v-150q0 -35 18 -54.5t57 -27.5q16 -3 24 -7.5t8 -11.5q0 -13 -29 -13q-18 0 -38 1.5
t-30 1.5q-30 3 -60 3q-32 0 -64 -3q-10 0 -31 -1.5t-39 -1.5q-29 0 -29 12q0 14 32 20q74 13 74 82v144q0 36 -27 84l-79 127h-104q-8 0 -12.5 7.5t-4.5 14.5q0 9 7.5 15.5t17.5 6.5h68l-14 23q-21 33 -41.5 57.5t-43.5 30.5q-16 6 -23 10.5t-7 11.5q0 12 26 12q17 0 59 -2
q46 -2 74 -2q19 0 53 2q30 2 43 2q12 0 20 -3t8 -9q0 -13 -31 -21q-21 -5 -30 -11t-9 -18q0 -13 12 -36l26 -47h194q4 9 14 27q16 28 16 47q0 18 -13.5 26.5t-32.5 10.5q-11 2 -21.5 8t-10.5 13q0 6 8 9t21 3l43 -1q13 -1 41 -1q23 0 61 2q30 2 42 2q30 0 30 -13zM421 464
h-146l46 -82q16 -30 25 -30q5 0 10.5 6t16.5 24q19 32 48 82z" />
    <glyph glyph-name="uni1E00" unicode="&#x1e00;" horiz-adv-x="702" 
d="M5 -1.5q-8 3.5 -8 10.5q0 14 30 23q29 8 50.5 25t34.5 48q52 119 92.5 221.5t89.5 238.5q14 36 18 66q29 7 48 17q12 6 19.5 18.5t9.5 15.5q6 4 9 -2q3 -5 5 -12t3 -12q60 -191 157 -478l20 -59q16 -46 38 -64t57 -25q15 -3 22.5 -9t7.5 -14q0 -11 -26 -11l-62 2
q-43 3 -85 3l-68 -1q-20 -1 -53 -1q-12 0 -19.5 3.5t-7.5 9.5q0 7 8.5 12.5t21.5 7.5q35 6 50 18t12 32q-1 18 -10.5 54.5t-18.5 71.5q-2 5 -7 23q-2 7 -7 9.5t-17 2.5h-185q-10 0 -17 -17q-10 -30 -23 -74.5t-15 -58.5q-6 -46 59 -62q30 -7 30 -20q0 -12 -27 -12
q-25 0 -40 1l-57 1q-15 0 -35 -1t-30 -2q-28 -3 -54 -3q-12 0 -20 3.5zM408 284q6 0 10 1t4 4q0 1 -2 11l-74 237q-5 16 -8 16q-2 0 -7 -15l-87 -238l-2 -8q0 -5 5 -6.5t15 -1.5h146zM399.5 -83.5q26.5 -19.5 26.5 -51.5q0 -36 -29.5 -58.5t-69.5 -22.5q-38 0 -64.5 20
t-26.5 53q0 35 30 57t70 22q37 0 63.5 -19.5zM299.5 -176q14.5 -15 36.5 -15q19 0 30 15t11 36t-14 35.5t-35 14.5q-19 0 -31 -15t-12 -35q0 -21 14.5 -36z" />
    <glyph glyph-name="uni1E02" unicode="&#x1e02;" horiz-adv-x="601" 
d="M25 -2q-7 3 -7 9q0 13 29 19q39 8 56 23.5t17 48.5v452q0 35 -14.5 51t-50.5 20q-15 1 -22 7t-7 13q0 6 7 9.5t19 3.5q31 0 65 -2l50 -1q24 0 48 3q57 3 74 3q121 0 178.5 -34.5t57.5 -114.5q0 -31 -11.5 -57t-28.5 -42q-16 -15 -30.5 -24t-38.5 -17q-4 -2 -4 -5.5
t4 -4.5q42 -12 73 -28t53 -49t22 -87q0 -51 -16 -84t-37.5 -49.5t-50.5 -31.5q-68 -33 -172 -33q-10 0 -42 2q-40 2 -68 2q-24 0 -64 -2q-32 -3 -70 -3q-12 0 -19 3zM377 399q14 9 27 32t13 61q0 130 -131 130q-35 0 -48 -10.5t-13 -33.5v-171q0 -21 13.5 -29t30.5 -8
q63 0 108 29zM370 61.5q34 19.5 54.5 53t20.5 73.5q0 49 -19.5 78.5t-45.5 45.5q-38 24 -102 24q-25 0 -39 -11t-14 -24v-191q0 -37 18 -52.5t54 -15.5q39 0 73 19.5zM226 712.5q-19 18.5 -19 43.5q0 26 19 44.5t45 18.5q28 0 47 -18.5t19 -44.5t-19 -44t-47 -18
q-26 0 -45 18.5z" />
    <glyph glyph-name="uni1E04" unicode="&#x1e04;" horiz-adv-x="601" 
d="M25 -2q-7 3 -7 9q0 13 29 19q39 8 56 23.5t17 48.5v452q0 35 -14.5 51t-50.5 20q-15 1 -22 7t-7 13q0 6 7 9.5t19 3.5q31 0 65 -2l50 -1q24 0 48 3q57 3 74 3q121 0 178.5 -34.5t57.5 -114.5q0 -31 -11.5 -57t-28.5 -42q-16 -15 -30.5 -24t-38.5 -17q-4 -2 -4 -5.5
t4 -4.5q42 -12 73 -28t53 -49t22 -87q0 -51 -16 -84t-37.5 -49.5t-50.5 -31.5q-68 -33 -172 -33q-10 0 -42 2q-40 2 -68 2q-24 0 -64 -2q-32 -3 -70 -3q-12 0 -19 3zM377 399q14 9 27 32t13 61q0 130 -131 130q-35 0 -48 -10.5t-13 -33.5v-171q0 -21 13.5 -29t30.5 -8
q63 0 108 29zM370 61.5q34 19.5 54.5 53t20.5 73.5q0 49 -19.5 78.5t-45.5 45.5q-38 24 -102 24q-25 0 -39 -11t-14 -24v-191q0 -37 18 -52.5t54 -15.5q39 0 73 19.5zM234 -191.5q-19 18.5 -19 43.5q0 26 19 44.5t45 18.5q28 0 47 -18.5t19 -44.5t-19 -44t-47 -18
q-26 0 -45 18.5z" />
    <glyph glyph-name="uni1E06" unicode="&#x1e06;" horiz-adv-x="601" 
d="M25 -2q-7 3 -7 9q0 13 29 19q39 8 56 23.5t17 48.5v452q0 35 -14.5 51t-50.5 20q-15 1 -22 7t-7 13q0 6 7 9.5t19 3.5q31 0 65 -2l50 -1q24 0 48 3q57 3 74 3q121 0 178.5 -34.5t57.5 -114.5q0 -31 -11.5 -57t-28.5 -42q-16 -15 -30.5 -24t-38.5 -17q-4 -2 -4 -5.5
t4 -4.5q42 -12 73 -28t53 -49t22 -87q0 -51 -16 -84t-37.5 -49.5t-50.5 -31.5q-68 -33 -172 -33q-10 0 -42 2q-40 2 -68 2q-24 0 -64 -2q-32 -3 -70 -3q-12 0 -19 3zM377 399q14 9 27 32t13 61q0 130 -131 130q-35 0 -48 -10.5t-13 -33.5v-171q0 -21 13.5 -29t30.5 -8
q63 0 108 29zM370 61.5q34 19.5 54.5 53t20.5 73.5q0 49 -19.5 78.5t-45.5 45.5q-38 24 -102 24q-25 0 -39 -11t-14 -24v-191q0 -37 18 -52.5t54 -15.5q39 0 73 19.5zM130.5 -174.5q-4.5 4.5 -4.5 9.5q0 16 7.5 32.5t20.5 16.5h265q6 0 10.5 -4.5t4.5 -9.5
q0 -18 -10.5 -33.5t-23.5 -15.5h-258q-7 0 -11.5 4.5z" />
    <glyph glyph-name="uni1E08" unicode="&#x1e08;" horiz-adv-x="710" 
d="M225 27.5q-84 42.5 -134.5 119t-50.5 174.5q0 94 52 172.5t142 124t198 45.5q51 0 89 -7t91 -22q13 -4 19.5 -11.5t7.5 -20.5q6 -58 9 -116q0 -7 -5.5 -11.5t-11.5 -4.5q-15 0 -19 15q-10 38 -22.5 62t-33.5 40q-49 38 -138 38q-73 0 -130.5 -39t-90 -103t-32.5 -137
q0 -85 31.5 -159t90 -118.5t136.5 -44.5q71 0 118 31t80 95q8 14 21 14q6 0 10 -4t4 -12q0 -14 -7.5 -45t-17.5 -58q-6 -13 -11 -18t-19 -10q-37 -15 -88.5 -23.5t-106.5 -8.5q-97 0 -181 42.5zM296 -266.5q-12 8.5 -12 27.5q0 15 5.5 24t12.5 9q2 0 16 -6.5t46 -6.5
q20 0 31.5 10.5t11.5 28.5q0 24 -12.5 36.5t-35.5 12.5q-6 0 -13.5 -2t-11.5 -2q-12 0 -19.5 6.5t-7.5 12.5q0 8 6 16l84 108h37l-37 -53q-4 -5 -4 -10q0 -7 10 -12q26 -9 45.5 -32t19.5 -54q0 -32 -22.5 -60.5t-55 -45t-58.5 -16.5q-24 0 -36 8.5zM355 691q0 7 7 17
q51 75 88 121q9 13 29 13q15 -1 39.5 -10t23.5 -18q-1 -6 -4 -10t-11 -10q-31 -24 -91 -65q-36 -24 -52 -36q-13 -9 -21 -9t-8 7z" />
    <glyph glyph-name="uni1E0A" unicode="&#x1e0a;" horiz-adv-x="758" 
d="M297 -4q-86 4 -128 4q-18 0 -52 -2q-38 -2 -66 -2q-26 0 -26 13q0 8 6.5 11.5t22.5 6.5q38 7 52.5 22t14.5 49v452q0 34 -14 48.5t-53 22.5q-16 3 -22.5 7t-6.5 12q0 7 7 10.5t19 3.5q25 0 63 -2l59 -1q23 0 99 4q68 4 84 4q119 0 202.5 -41.5t125.5 -113.5t42 -164
q0 -93 -45.5 -172.5t-126 -127t-179.5 -47.5q-28 0 -78 3zM490.5 70q55.5 36 85.5 100.5t30 148.5q0 91 -35 159.5t-94 105t-128 36.5q-48 0 -71.5 -2.5t-37 -14t-13.5 -36.5v-442q0 -52 36 -71.5t99 -19.5q73 0 128.5 36zM324 712.5q-19 18.5 -19 43.5q0 26 19 44.5
t45 18.5q28 0 47 -18.5t19 -44.5t-19 -44t-47 -18q-26 0 -45 18.5z" />
    <glyph glyph-name="uni1E0C" unicode="&#x1e0c;" horiz-adv-x="758" 
d="M297 -4q-86 4 -128 4q-18 0 -52 -2q-38 -2 -66 -2q-26 0 -26 13q0 8 6.5 11.5t22.5 6.5q38 7 52.5 22t14.5 49v452q0 34 -14 48.5t-53 22.5q-16 3 -22.5 7t-6.5 12q0 7 7 10.5t19 3.5q25 0 63 -2l59 -1q23 0 99 4q68 4 84 4q119 0 202.5 -41.5t125.5 -113.5t42 -164
q0 -93 -45.5 -172.5t-126 -127t-179.5 -47.5q-28 0 -78 3zM490.5 70q55.5 36 85.5 100.5t30 148.5q0 91 -35 159.5t-94 105t-128 36.5q-48 0 -71.5 -2.5t-37 -14t-13.5 -36.5v-442q0 -52 36 -71.5t99 -19.5q73 0 128.5 36zM316 -191.5q-19 18.5 -19 43.5q0 26 19 44.5
t45 18.5q28 0 47 -18.5t19 -44.5t-19 -44t-47 -18q-26 0 -45 18.5z" />
    <glyph glyph-name="uni1E0E" unicode="&#x1e0e;" horiz-adv-x="758" 
d="M297 -4q-86 4 -128 4q-18 0 -52 -2q-38 -2 -66 -2q-26 0 -26 13q0 8 6.5 11.5t22.5 6.5q38 7 52.5 22t14.5 49v452q0 34 -14 48.5t-53 22.5q-16 3 -22.5 7t-6.5 12q0 7 7 10.5t19 3.5q25 0 63 -2l59 -1q23 0 99 4q68 4 84 4q119 0 202.5 -41.5t125.5 -113.5t42 -164
q0 -93 -45.5 -172.5t-126 -127t-179.5 -47.5q-28 0 -78 3zM490.5 70q55.5 36 85.5 100.5t30 148.5q0 91 -35 159.5t-94 105t-128 36.5q-48 0 -71.5 -2.5t-37 -14t-13.5 -36.5v-442q0 -52 36 -71.5t99 -19.5q73 0 128.5 36zM212.5 -174.5q-4.5 4.5 -4.5 9.5q0 16 7.5 32.5
t20.5 16.5h265q6 0 10.5 -4.5t4.5 -9.5q0 -18 -10.5 -33.5t-23.5 -15.5h-258q-7 0 -11.5 4.5z" />
    <glyph glyph-name="uni1E10" unicode="&#x1e10;" horiz-adv-x="758" 
d="M297 -4q-86 4 -128 4q-18 0 -52 -2q-38 -2 -66 -2q-26 0 -26 13q0 8 6.5 11.5t22.5 6.5q38 7 52.5 22t14.5 49v452q0 34 -14 48.5t-53 22.5q-16 3 -22.5 7t-6.5 12q0 7 7 10.5t19 3.5q25 0 63 -2l59 -1q23 0 99 4q68 4 84 4q119 0 202.5 -41.5t125.5 -113.5t42 -164
q0 -93 -45.5 -172.5t-126 -127t-179.5 -47.5q-28 0 -78 3zM490.5 70q55.5 36 85.5 100.5t30 148.5q0 91 -35 159.5t-94 105t-128 36.5q-48 0 -71.5 -2.5t-37 -14t-13.5 -36.5v-442q0 -52 36 -71.5t99 -19.5q73 0 128.5 36zM263 -266.5q-12 8.5 -12 27.5q0 15 5.5 24t12.5 9
q2 0 16 -6.5t46 -6.5q20 0 31.5 10.5t11.5 28.5q0 24 -12.5 36.5t-35.5 12.5q-6 0 -13.5 -2t-11.5 -2q-12 0 -19.5 6.5t-7.5 12.5q0 8 6 16l84 108h37l-37 -53q-4 -5 -4 -10q0 -7 10 -12q26 -9 45.5 -32t19.5 -54q0 -32 -22.5 -60.5t-55 -45t-58.5 -16.5q-24 0 -36 8.5z" />
    <glyph glyph-name="uni1E12" unicode="&#x1e12;" horiz-adv-x="758" 
d="M297 -4q-86 4 -128 4q-18 0 -52 -2q-38 -2 -66 -2q-26 0 -26 13q0 8 6.5 11.5t22.5 6.5q38 7 52.5 22t14.5 49v452q0 34 -14 48.5t-53 22.5q-16 3 -22.5 7t-6.5 12q0 7 7 10.5t19 3.5q25 0 63 -2l59 -1q23 0 99 4q68 4 84 4q119 0 202.5 -41.5t125.5 -113.5t42 -164
q0 -93 -45.5 -172.5t-126 -127t-179.5 -47.5q-28 0 -78 3zM490.5 70q55.5 36 85.5 100.5t30 148.5q0 91 -35 159.5t-94 105t-128 36.5q-48 0 -71.5 -2.5t-37 -14t-13.5 -36.5v-442q0 -52 36 -71.5t99 -19.5q73 0 128.5 36zM212 -209q0 7 7 13l101 87q17 15 25 19.5t19 4.5
t19 -4.5t25 -19.5l101 -87q6 -5 6 -13q0 -12 -15 -12q-10 0 -56 20.5t-69 33.5q-8 4 -11 4t-11 -4q-23 -13 -69 -33t-56 -20q-16 0 -16 11z" />
    <glyph glyph-name="uni1E14" unicode="&#x1e14;" horiz-adv-x="545" 
d="M31 7q0 13 29 19q38 8 54 23.5t16 48.5v452q0 34 -14 48.5t-51 22.5q-29 6 -29 20q0 6 7 9.5t19 3.5q35 0 87 -2q50 -2 80 -2q67 0 165 2q33 0 56.5 1.5t26.5 1.5q7 0 13 -3t7 -9l5 -30q11 -57 11 -82q0 -9 -4.5 -13t-9.5 -4q-9 0 -14 12q-1 4 -6.5 19.5t-10.5 25.5
t-10 16q-27 28 -68 28h-112q-14 0 -28 -10.5t-14 -25.5v-204q0 -10 6 -16t15 -6h94q27 0 38.5 12t19.5 41q7 20 19 20q5 0 9 -5t4 -13q-4 -56 -4 -73q0 -37 3 -79v-4q0 -16 -9 -16q-16 0 -24 29q-7 27 -17.5 39.5t-29.5 12.5h-93q-17 0 -24 -5.5t-7 -20.5v-191
q0 -34 14.5 -48t46.5 -14h79q58 0 85 19q16 11 29 29t28 49q8 13 17 12q11 0 11 -16t-10 -52.5t-21 -67.5q-7 -16 -17 -16q-70 0 -150 3q-27 1 -69.5 2t-98.5 1q-28 0 -57 -3q-57 -3 -66 -3q-26 0 -26 12zM151.5 725.5q-4.5 4.5 -4.5 9.5q0 16 7.5 32.5t20.5 16.5h265
q6 0 10.5 -4.5t4.5 -9.5q0 -18 -10.5 -33.5t-23.5 -15.5h-258q-7 0 -11.5 4.5zM362.5 810.5q-9.5 2.5 -13.5 3.5q-36 10 -92 28t-82 29q-6 2 -6 12q0 7 6 20.5t16 24t22 10.5q8 0 20 -6q29 -15 82.5 -49t71.5 -50q8 -8 8 -15q0 -4 -5 -7t-11 -3q-7 0 -16.5 2.5z" />
    <glyph glyph-name="uni1E16" unicode="&#x1e16;" horiz-adv-x="545" 
d="M31 7q0 13 29 19q38 8 54 23.5t16 48.5v452q0 34 -14 48.5t-51 22.5q-29 6 -29 20q0 6 7 9.5t19 3.5q35 0 87 -2q50 -2 80 -2q67 0 165 2q33 0 56.5 1.5t26.5 1.5q7 0 13 -3t7 -9l5 -30q11 -57 11 -82q0 -9 -4.5 -13t-9.5 -4q-9 0 -14 12q-1 4 -6.5 19.5t-10.5 25.5
t-10 16q-27 28 -68 28h-112q-14 0 -28 -10.5t-14 -25.5v-204q0 -10 6 -16t15 -6h94q27 0 38.5 12t19.5 41q7 20 19 20q5 0 9 -5t4 -13q-4 -56 -4 -73q0 -37 3 -79v-4q0 -16 -9 -16q-16 0 -24 29q-7 27 -17.5 39.5t-29.5 12.5h-93q-17 0 -24 -5.5t-7 -20.5v-191
q0 -34 14.5 -48t46.5 -14h79q58 0 85 19q16 11 29 29t28 49q8 13 17 12q11 0 11 -16t-10 -52.5t-21 -67.5q-7 -16 -17 -16q-70 0 -150 3q-27 1 -69.5 2t-98.5 1q-28 0 -57 -3q-57 -3 -66 -3q-26 0 -26 12zM151.5 725.5q-4.5 4.5 -4.5 9.5q0 16 7.5 32.5t20.5 16.5h265
q6 0 10.5 -4.5t4.5 -9.5q0 -18 -10.5 -33.5t-23.5 -15.5h-258q-7 0 -11.5 4.5zM210 809q-5 3 -5 7q0 7 8 15q18 16 71.5 50t82.5 49q12 6 20 6q12 0 22 -10.5t16 -24t6 -20.5q0 -10 -6 -12q-26 -11 -82 -29t-92 -28q-4 -1 -13.5 -3.5t-16.5 -2.5q-6 0 -11 3z" />
    <glyph glyph-name="uni1E18" unicode="&#x1e18;" horiz-adv-x="568" 
d="M31 7q0 13 29 19q38 8 54 23.5t16 48.5v452q0 34 -14 48.5t-51 22.5q-29 6 -29 20q0 6 7 9.5t19 3.5q35 0 87 -2q50 -2 80 -2q67 0 165 2q33 0 56.5 1.5t26.5 1.5q7 0 13 -3t7 -9l5 -30q11 -57 11 -82q0 -9 -4.5 -13t-9.5 -4q-9 0 -14 12q-1 4 -6.5 19.5t-10.5 25.5
t-10 16q-27 28 -68 28h-112q-14 0 -28 -10.5t-14 -25.5v-204q0 -10 6 -16t15 -6h94q27 0 38.5 12t19.5 41q7 20 19 20q5 0 9 -5t4 -13q-4 -56 -4 -73q0 -37 3 -79v-4q0 -16 -9 -16q-16 0 -24 29q-7 27 -17.5 39.5t-29.5 12.5h-93q-17 0 -24 -5.5t-7 -20.5v-191
q0 -34 14.5 -48t46.5 -14h79q58 0 85 19q16 11 29 29t28 49q8 13 17 12q11 0 11 -16t-10 -52.5t-21 -67.5q-7 -16 -17 -16q-70 0 -150 3q-27 1 -69.5 2t-98.5 1q-28 0 -57 -3q-57 -3 -66 -3q-26 0 -26 12zM143 -209q0 7 7 13l101 87q17 15 25 19.5t19 4.5t19 -4.5t25 -19.5
l101 -87q6 -5 6 -13q0 -12 -15 -12q-10 0 -56 20.5t-69 33.5q-8 4 -11 4t-11 -4q-23 -13 -69 -33t-56 -20q-16 0 -16 11z" />
    <glyph glyph-name="uni1E1A" unicode="&#x1e1a;" horiz-adv-x="568" 
d="M31 7q0 13 29 19q38 8 54 23.5t16 48.5v452q0 34 -14 48.5t-51 22.5q-29 6 -29 20q0 6 7 9.5t19 3.5q35 0 87 -2q50 -2 80 -2q67 0 165 2q33 0 56.5 1.5t26.5 1.5q7 0 13 -3t7 -9l5 -30q11 -57 11 -82q0 -9 -4.5 -13t-9.5 -4q-9 0 -14 12q-1 4 -6.5 19.5t-10.5 25.5
t-10 16q-27 28 -68 28h-112q-14 0 -28 -10.5t-14 -25.5v-204q0 -10 6 -16t15 -6h94q27 0 38.5 12t19.5 41q7 20 19 20q5 0 9 -5t4 -13q-4 -56 -4 -73q0 -37 3 -79v-4q0 -16 -9 -16q-16 0 -24 29q-7 27 -17.5 39.5t-29.5 12.5h-93q-17 0 -24 -5.5t-7 -20.5v-191
q0 -34 14.5 -48t46.5 -14h79q58 0 85 19q16 11 29 29t28 49q8 13 17 12q11 0 11 -16t-10 -52.5t-21 -67.5q-7 -16 -17 -16q-70 0 -150 3q-27 1 -69.5 2t-98.5 1q-28 0 -57 -3q-57 -3 -66 -3q-26 0 -26 12zM149 -199.5q-6 5.5 -6 10.5q0 6 16 29t34.5 42t29.5 19q28 0 74 -4
l21 -1q32 -2 50 -2q20 0 37 19q6 6 12 13t8 7q7 0 14 -5.5t7 -11.5q0 -4 -7 -12t-9 -10q-13 -15 -44 -57q-5 -7 -14.5 -10.5t-15.5 -3.5t-56 4q-82 5 -88 5q-7 0 -16.5 -4.5t-15.5 -10.5q-7 -7 -12.5 -14.5t-7.5 -7.5q-5 0 -11 5.5z" />
    <glyph glyph-name="uni1E1C" unicode="&#x1e1c;" horiz-adv-x="545" 
d="M31 7q0 13 29 19q38 8 54 23.5t16 48.5v452q0 34 -14 48.5t-51 22.5q-29 6 -29 20q0 6 7 9.5t19 3.5q35 0 87 -2q50 -2 80 -2q67 0 165 2q33 0 56.5 1.5t26.5 1.5q7 0 13 -3t7 -9l5 -30q11 -57 11 -82q0 -9 -4.5 -13t-9.5 -4q-9 0 -14 12q-1 4 -6.5 19.5t-10.5 25.5
t-10 16q-27 28 -68 28h-112q-14 0 -28 -10.5t-14 -25.5v-204q0 -10 6 -16t15 -6h94q27 0 38.5 12t19.5 41q7 20 19 20q5 0 9 -5t4 -13q-4 -56 -4 -73q0 -37 3 -79v-4q0 -16 -9 -16q-16 0 -24 29q-7 27 -17.5 39.5t-29.5 12.5h-93q-17 0 -24 -5.5t-7 -20.5v-191
q0 -34 14.5 -48t46.5 -14h79q58 0 85 19q16 11 29 29t28 49q8 13 17 12q11 0 11 -16t-10 -52.5t-21 -67.5q-7 -16 -17 -16q-70 0 -150 3q-27 1 -69.5 2t-98.5 1q-28 0 -57 -3q-57 -3 -66 -3q-26 0 -26 12zM224 708q-32 18 -49 44.5t-17 48.5q0 11 3 18t8 7q6 0 11.5 -4.5
t9 -9t5.5 -7.5q21 -25 45.5 -36t57.5 -11t57.5 11t45.5 36q2 3 7 9t9.5 9t9.5 3q7 0 9 -6t2 -19q0 -22 -17 -48.5t-49 -44.5t-74 -18t-74 18zM205 -266.5q-12 8.5 -12 27.5q0 15 5.5 24t12.5 9q2 0 16 -6.5t46 -6.5q20 0 31.5 10.5t11.5 28.5q0 24 -12.5 36.5t-35.5 12.5
q-6 0 -13.5 -2t-11.5 -2q-12 0 -19.5 6.5t-7.5 12.5q0 8 6 16l84 108h37l-37 -53q-4 -5 -4 -10q0 -7 10 -12q26 -9 45.5 -32t19.5 -54q0 -32 -22.5 -60.5t-55 -45t-58.5 -16.5q-24 0 -36 8.5z" />
    <glyph glyph-name="uni1E1E" unicode="&#x1e1e;" horiz-adv-x="524" 
d="M26 8q0 7 7 11.5t22 7.5q38 7 52 22t14 50v431q0 43 -12.5 63.5t-47.5 27.5q-30 6 -30 20q0 6 7.5 9.5t18.5 3.5q35 0 85 -2t79 -2h144q31 0 71 6q30 4 38 4q7 0 13.5 -3t7.5 -9q2 -28 3.5 -59.5t1.5 -53.5q0 -9 -3 -15t-7 -6q-6 0 -11 4t-6 10q-11 40 -27 59
q-26 26 -69 26h-109q-22 0 -31 -13t-10 -36v-94v-96q0 -22 15 -22l65 1q17 1 44 1q41 0 61 45q2 5 8 11t10 6q5 0 9.5 -5t3.5 -13q-3 -37 -3 -61t3 -68q0 -21 -9 -21t-15 7.5t-9 16.5q-13 43 -48 43l-49 1q-42 0 -63 -1q-10 -1 -16.5 -7t-6.5 -18q0 -126 3 -190
q1 -33 16 -49.5t53 -23.5q15 -3 22 -7.5t7 -11.5q0 -12 -25 -12q-19 0 -39 1.5t-29 1.5q-25 3 -51 3q-32 0 -62 -3q-10 0 -31 -1.5t-40 -1.5q-25 0 -25 12zM243 712.5q-19 18.5 -19 43.5q0 26 19 44.5t45 18.5q28 0 47 -18.5t19 -44.5t-19 -44t-47 -18q-26 0 -45 18.5z" />
    <glyph glyph-name="uni1E20" unicode="&#x1e20;" horiz-adv-x="726" 
d="M214 28.5q-80 42.5 -127.5 117t-47.5 166.5q0 95 49 175.5t134.5 128t188.5 47.5q37 0 106.5 -11.5t93.5 -22.5q6 -2 8.5 -5.5t4.5 -10.5q10 -84 10 -110q0 -8 -4.5 -14t-10.5 -6q-10 0 -15 6t-10 19q-15 36 -37 61q-17 19 -54 35t-93 16q-73 0 -129.5 -40t-87 -106.5
t-30.5 -143.5q0 -91 32 -159.5t86.5 -105t120.5 -36.5q68 0 103 32q12 11 20 30.5t8 42.5q0 20 1 33l1 34q0 25 -11 32q-12 11 -39.5 18.5t-46.5 8.5q-7 1 -14.5 6.5t-7.5 12.5q0 6 7.5 11t13.5 5q24 0 66 -2q44 -2 70 -2q17 0 49 2t52 2q6 0 12.5 -4t6.5 -12q0 -7 -6.5 -12
t-13.5 -7q-23 -7 -33 -17.5t-13 -31.5q-5 -36 -5 -75v-29q0 -6 3.5 -10.5t4.5 -6.5q2 -3 7 -9t5 -10q0 -17 -16 -19q-9 -2 -28 -12q-48 -23 -98 -38.5t-113 -15.5q-93 0 -173 42.5zM266.5 725.5q-4.5 4.5 -4.5 9.5q0 16 7.5 32.5t20.5 16.5h265q6 0 10.5 -4.5t4.5 -9.5
q0 -18 -10.5 -33.5t-23.5 -15.5h-258q-7 0 -11.5 4.5z" />
    </font>
</defs>
</svg>
