<svg xmlns="http://www.w3.org/2000/svg" viewBox="0 0 225 117.1">
    <path d="M225 76c-3.8 10.4-11.9 16.4-21.2 21.3-19 9.9-39.5 14.7-60.4 17.6-33.1 4.6-65.8 2-97.7-7.9-9.8-3-19.1-7.5-28.3-12C9.3 91 3.2 84.7 0 76v-7c3.4-9.4 10-16.2 18.8-20.2 11-4.9 22.5-8.8 33.9-12.7 3.4-1.2 5.9-2.3 7.8-5.8 19.9-35.6 69.7-41 96.3-10.6 4.3 4.9 7.1 11.6 12.2 15 5.4 3.6 12.8 4.2 19.3 6.1 1.3.4 2.6.7 3.8 1.3 13.6 5.7 27 11.6 32.8 26.9.1 2.3.1 4.7.1 7zm-71.9-35.6c-13.6-28.9-52.6-34.9-73.6-11.3-10.1 11.3-11 12 4.6 18.7 13.8 5.9 28.6 5.5 43.2 3.6 9.4-1.2 18.4-4.1 25.8-11zm-40.6 52.3c3.8 0 7.4-3.7 7.2-7.4-.1-3.8-3.8-7.2-7.6-7.1-3.7.2-6.9 3.5-7 7.1.1 3.8 3.6 7.4 7.4 7.4zm-56-11.6c4 .1 7.4-3.1 7.4-7 0-3.8-2.9-7-6.7-7.2-4.1-.2-7.5 2.7-7.6 6.7-.2 4.1 2.9 7.4 6.9 7.5zm111.7-14.2c-4.1 0-7.3 3.2-7.2 7.2.1 4 3.3 7.1 7.4 7 3.9-.1 6.9-3.1 6.9-6.9.2-4.2-2.9-7.3-7.1-7.3z" />
  </svg>